<svg xmlns="http://www.w3.org/2000/svg" viewBox="0 0 35.43 39.41"><defs><style>.cls-1{fill:#fff;}.cls-2{fill:#fffefe;}.cls-3{fill:#fffdfd;}.cls-4{fill:#fffcfc;}.cls-5{fill:#fffbfb;}.cls-6{fill:snow;}.cls-7{fill:#fff9f9;}.cls-8{fill:#fff8f8;}.cls-9{fill:#fef7f7;}.cls-10{fill:#fef6f6;}.cls-11{fill:#fef5f5;}.cls-12{fill:#fef4f4;}.cls-13{fill:#fef3f3;}.cls-14{fill:#fef2f3;}.cls-15{fill:#fef1f2;}.cls-16{fill:#fef0f1;}.cls-17{fill:#feeff0;}.cls-18{fill:#feeeef;}.cls-19{fill:#feedee;}.cls-20{fill:#feeced;}.cls-21{fill:#feebec;}.cls-22{fill:#feeaeb;}.cls-23{fill:#fde9ea;}.cls-24{fill:#fde8e9;}.cls-25{fill:#fde7e8;}.cls-26{fill:#fde6e7;}.cls-27{fill:#fde5e6;}.cls-28{fill:#fde4e5;}.cls-29{fill:#fde3e4;}.cls-30{fill:#fde2e3;}.cls-31{fill:#fde1e2;}.cls-32{fill:#fde0e1;}.cls-33{fill:#fddfe0;}.cls-34{fill:#fddedf;}.cls-35{fill:#fdddde;}.cls-36{fill:#fddcdd;}.cls-37{fill:#fcdbdc;}.cls-38{fill:#fcdadb;}.cls-39{fill:#fcd9da;}.cls-40{fill:#fcd8da;}.cls-41{fill:#fcd7d9;}.cls-42{fill:#fcd6d8;}.cls-43{fill:#fcd5d7;}.cls-44{fill:#fcd4d6;}.cls-45{fill:#fcd3d5;}.cls-46{fill:#fcd2d4;}.cls-47{fill:#fcd1d3;}.cls-48{fill:#fcd0d2;}.cls-49{fill:#fccfd1;}.cls-50{fill:#fcced0;}.cls-51{fill:#fbcdcf;}.cls-52{fill:#fbccce;}.cls-53{fill:#fbcbcd;}.cls-54{fill:#fbcacc;}.cls-55{fill:#fbc9cb;}.cls-56{fill:#fbc8ca;}.cls-57{fill:#fbc7c9;}.cls-58{fill:#fbc6c8;}.cls-59{fill:#fbc5c7;}.cls-60{fill:#fbc4c6;}.cls-61{fill:#fbc3c5;}.cls-62{fill:#fbc2c4;}.cls-63{fill:#fbc1c3;}.cls-64{fill:#fbc0c2;}.cls-65{fill:#fabfc1;}.cls-66{fill:#fabec0;}.cls-67{fill:#fabdbf;}.cls-68{fill:#fabcbe;}.cls-69{fill:#fabbbd;}.cls-70{fill:#fababc;}.cls-71{fill:#fab9bb;}.cls-72{fill:#fab8ba;}.cls-73{fill:#fab7b9;}.cls-74{fill:#fab6b8;}.cls-75{fill:#fab5b7;}.cls-76{fill:#fab4b6;}.cls-77{fill:#fab3b5;}.cls-78{fill:#fab2b4;}.cls-79{fill:#f9b1b3;}.cls-80{fill:#f9b0b2;}.cls-81{fill:#f9afb1;}.cls-82{fill:#f9aeb0;}.cls-83{fill:#f9adaf;}.cls-84{fill:#f9acae;}.cls-85{fill:#f9abad;}.cls-86{fill:#f9aaac;}.cls-87{fill:#f9a9ab;}.cls-88{fill:#f9a8aa;}.cls-89{fill:#f9a7a9;}.cls-90{fill:#f9a6a9;}.cls-91{fill:#f9a5a8;}.cls-92{fill:#f9a4a7;}.cls-93{fill:#f8a3a6;}.cls-94{fill:#f8a2a5;}.cls-95{fill:#f8a1a4;}.cls-96{fill:#f8a0a3;}.cls-97{fill:#f89fa2;}.cls-98{fill:#f89ea1;}.cls-99{fill:#f89da0;}.cls-100{fill:#f89c9f;}.cls-101{fill:#f89b9e;}.cls-102{fill:#f89a9d;}.cls-103{fill:#f8999c;}.cls-104{fill:#f8989b;}.cls-105{fill:#f8979a;}.cls-106{fill:#f89699;}.cls-107{fill:#f79598;}.cls-108{fill:#f79497;}.cls-109{fill:#f79396;}.cls-110{fill:#f79295;}.cls-111{fill:#f79194;}.cls-112{fill:#f79093;}.cls-113{fill:#f78f92;}.cls-114{fill:#f78e91;}.cls-115{fill:#f78d90;}.cls-116{fill:#f78c90;}.cls-117{fill:#f78b8f;}.cls-118{fill:#f78a8e;}.cls-119{fill:#f7898d;}.cls-120{fill:#f7888c;}.cls-121{fill:#f6878b;}.cls-122{fill:#f6868a;}.cls-123{fill:#f68589;}.cls-124{fill:#f68488;}.cls-125{fill:#f68387;}.cls-126{fill:#f68286;}.cls-127{fill:#f68185;}.cls-128{fill:#f68084;}.cls-129{fill:#f58185;}.cls-130{fill:#f58186;}.cls-131{fill:#f48287;}.cls-132{fill:#f38288;}.cls-133{fill:#f38389;}.cls-134{fill:#f2838a;}.cls-135{fill:#f1848b;}.cls-136{fill:#f1848c;}.cls-137{fill:#f0858d;}.cls-138{fill:#ef858e;}.cls-139{fill:#ef868f;}.cls-140{fill:#ee8690;}.cls-141{fill:#ee8791;}.cls-142{fill:#ed8792;}.cls-143{fill:#ec8893;}.cls-144{fill:#ec8894;}.cls-145{fill:#eb8995;}.cls-146{fill:#ea8996;}.cls-147{fill:#ea8a97;}.cls-148{fill:#e98a98;}.cls-149{fill:#e88b99;}.cls-150{fill:#e88b9a;}.cls-151{fill:#e78c9b;}.cls-152{fill:#e68c9c;}.cls-153{fill:#e68d9d;}.cls-154{fill:#e58e9e;}.cls-155{fill:#e48e9f;}.cls-156{fill:#e48fa0;}.cls-157{fill:#e38fa1;}.cls-158{fill:#e290a2;}.cls-159{fill:#e290a3;}.cls-160{fill:#e191a4;}.cls-161{fill:#e191a5;}.cls-162{fill:#e092a6;}.cls-163{fill:#df92a7;}.cls-164{fill:#df93a8;}.cls-165{fill:#de93a9;}.cls-166{fill:#dd94aa;}.cls-167{fill:#dd94ab;}.cls-168{fill:#dc95ac;}.cls-169{fill:#db95ad;}.cls-170{fill:#db96ae;}.cls-171{fill:#da96af;}.cls-172{fill:#d997b0;}.cls-173{fill:#d997b1;}.cls-174{fill:#d898b2;}.cls-175{fill:#d798b3;}.cls-176{fill:#d799b4;}.cls-177{fill:#d699b5;}.cls-178{fill:#d59ab6;}.cls-179{fill:#d59bb7;}.cls-180{fill:#d49bb8;}.cls-181{fill:#d49cb9;}.cls-182{fill:#d39cba;}.cls-183{fill:#d29dbb;}.cls-184{fill:#d29dbc;}.cls-185{fill:#d19ebd;}.cls-186{fill:#d09ebe;}.cls-187{fill:#d09fbf;}.cls-188{fill:#cf9fc0;}.cls-189{fill:#cea0c1;}.cls-190{fill:#cda1c2;}.cls-191{fill:#cca1c3;}.cls-192{fill:#cca2c4;}.cls-193{fill:#cba2c5;}.cls-194{fill:#caa3c6;}.cls-195{fill:#caa3c7;}.cls-196{fill:#c9a4c8;}.cls-197{fill:#c8a4c9;}.cls-198{fill:#c8a5ca;}.cls-199{fill:#c7a5cb;}.cls-200{fill:#c7a6cc;}.cls-201{fill:#c6a7cd;}.cls-202{fill:#c5a7ce;}.cls-203{fill:#c5a8cf;}.cls-204{fill:#c4a8d0;}.cls-205{fill:#c3a9d1;}.cls-206{fill:#c3a9d2;}.cls-207{fill:#c2aad3;}.cls-208{fill:#c1aad4;}.cls-209{fill:#c1abd5;}.cls-210{fill:#c0abd6;}.cls-211{fill:#bfacd7;}.cls-212{fill:#bfacd8;}.cls-213{fill:#beadd9;}.cls-214{fill:#bdadda;}.cls-215{fill:#bdaedb;}.cls-216{fill:#bcaedc;}.cls-217{fill:#bbafdd;}.cls-218{fill:#bbafde;}.cls-219{fill:#bab0df;}.cls-220{fill:#bab0e0;}.cls-221{fill:#b9b1e1;}.cls-222{fill:#b8b1e2;}.cls-223{fill:#b8b2e3;}.cls-224{fill:#b7b2e4;}.cls-225{fill:#b6b3e5;}.cls-226{fill:#b6b4e6;}.cls-227{fill:#b5b4e7;}.cls-228{fill:#b4b5e8;}.cls-229{fill:#b4b5e9;}.cls-230{fill:#b3b6ea;}.cls-231{fill:#b2b6eb;}.cls-232{fill:#b2b7ec;}.cls-233{fill:#b1b7ed;}.cls-234{fill:#b0b8ee;}.cls-235{fill:#b0b8ef;}.cls-236{fill:#afb9f0;}.cls-237{fill:#aeb9f1;}.cls-238{fill:#aebaf2;}.cls-239{fill:#adbaf3;}.cls-240{fill:#adbbf4;}.cls-241{fill:#acbbf5;}.cls-242{fill:#abbcf6;}.cls-243{fill:#abbcf7;}.cls-244{fill:#aabdf8;}.cls-245{fill:#a9bdf9;}.cls-246{fill:#a9befa;}.cls-247{fill:#a8befb;}.cls-248{fill:#a7bffc;}.cls-249{fill:#a7bffd;}.cls-250{fill:#a6c0fe;}.cls-251{fill:#a6bffd;}.cls-252{fill:#a5befd;}.cls-253{fill:#a5bdfc;}.cls-254{fill:#a5bcfc;}.cls-255{fill:#a5bbfb;}.cls-256{fill:#a4bafb;}.cls-257{fill:#a4b9fa;}.cls-258{fill:#a4b8fa;}.cls-259{fill:#a3b7f9;}.cls-260{fill:#a3b6f8;}.cls-261{fill:#a3b5f8;}.cls-262{fill:#a3b4f7;}.cls-263{fill:#a2b3f7;}.cls-264{fill:#a2b2f6;}.cls-265{fill:#a2b1f6;}.cls-266{fill:#a1b0f5;}.cls-267{fill:#a1aff5;}.cls-268{fill:#a1aef4;}.cls-269{fill:#a1adf4;}.cls-270{fill:#a0acf3;}.cls-271{fill:#a0abf2;}.cls-272{fill:#a0aaf2;}.cls-273{fill:#9fa9f1;}.cls-274{fill:#9fa8f1;}.cls-275{fill:#9fa8f0;}.cls-276{fill:#9fa7f0;}.cls-277{fill:#9ea6ef;}.cls-278{fill:#9ea5ef;}.cls-279{fill:#9ea4ee;}.cls-280{fill:#9da3ed;}.cls-281{fill:#9da2ed;}.cls-282{fill:#9da1ec;}.cls-283{fill:#9da0ec;}.cls-284{fill:#9c9feb;}.cls-285{fill:#9c9eeb;}.cls-286{fill:#9c9dea;}.cls-287{fill:#9b9cea;}.cls-288{fill:#9b9be9;}.cls-289{fill:#9b9ae9;}.cls-290{fill:#9b99e8;}.cls-291{fill:#9a98e7;}.cls-292{fill:#9a97e7;}.cls-293{fill:#9a96e6;}.cls-294{fill:#9995e6;}.cls-295{fill:#9994e5;}.cls-296{fill:#9993e5;}.cls-297{fill:#9992e4;}.cls-298{fill:#9891e4;}.cls-299{fill:#9890e3;}</style></defs><title>num1_2</title><g id="圖層_2" data-name="圖層 2"><g id="圖層_1-2" data-name="圖層 1"><ellipse class="cls-1" cx="14.69" cy="2.74" rx="2.88" ry="2.74"/><ellipse class="cls-2" cx="14.92" cy="2.74" rx="2.88" ry="2.74"/><ellipse class="cls-3" cx="15.15" cy="2.74" rx="2.88" ry="2.74"/><ellipse class="cls-4" cx="15.38" cy="2.75" rx="2.88" ry="2.74"/><ellipse class="cls-5" cx="15.61" cy="2.76" rx="2.88" ry="2.74"/><ellipse class="cls-6" cx="15.84" cy="2.77" rx="2.88" ry="2.74"/><ellipse class="cls-7" cx="16.07" cy="2.78" rx="2.88" ry="2.74"/><ellipse class="cls-8" cx="16.29" cy="2.8" rx="2.88" ry="2.74"/><ellipse class="cls-9" cx="16.52" cy="2.82" rx="2.88" ry="2.74"/><ellipse class="cls-10" cx="16.74" cy="2.85" rx="2.88" ry="2.74"/><ellipse class="cls-11" cx="16.97" cy="2.87" rx="2.88" ry="2.74"/><ellipse class="cls-12" cx="17.19" cy="2.9" rx="2.88" ry="2.74"/><ellipse class="cls-13" cx="17.41" cy="2.93" rx="2.88" ry="2.74"/><ellipse class="cls-14" cx="17.63" cy="2.96" rx="2.88" ry="2.74"/><ellipse class="cls-15" cx="17.86" cy="3" rx="2.88" ry="2.74"/><ellipse class="cls-16" cx="18.07" cy="3.04" rx="2.88" ry="2.74"/><ellipse class="cls-17" cx="18.29" cy="3.08" rx="2.88" ry="2.74"/><ellipse class="cls-18" cx="18.51" cy="3.12" rx="2.88" ry="2.74"/><ellipse class="cls-19" cx="18.73" cy="3.17" rx="2.88" ry="2.74"/><ellipse class="cls-20" cx="18.94" cy="3.22" rx="2.88" ry="2.74"/><ellipse class="cls-21" cx="19.16" cy="3.27" rx="2.88" ry="2.74"/><ellipse class="cls-22" cx="19.37" cy="3.32" rx="2.88" ry="2.74"/><ellipse class="cls-23" cx="19.58" cy="3.38" rx="2.88" ry="2.74"/><ellipse class="cls-24" cx="19.79" cy="3.44" rx="2.88" ry="2.74"/><ellipse class="cls-25" cx="20" cy="3.5" rx="2.88" ry="2.74"/><ellipse class="cls-26" cx="20.21" cy="3.56" rx="2.88" ry="2.74"/><ellipse class="cls-27" cx="20.42" cy="3.63" rx="2.88" ry="2.74"/><ellipse class="cls-28" cx="20.63" cy="3.69" rx="2.88" ry="2.74"/><ellipse class="cls-29" cx="20.83" cy="3.77" rx="2.88" ry="2.74"/><ellipse class="cls-30" cx="21.04" cy="3.84" rx="2.88" ry="2.74"/><ellipse class="cls-31" cx="21.24" cy="3.91" rx="2.88" ry="2.74"/><ellipse class="cls-32" cx="21.44" cy="3.99" rx="2.88" ry="2.74"/><ellipse class="cls-33" cx="21.65" cy="4.07" rx="2.88" ry="2.74"/><ellipse class="cls-34" cx="21.85" cy="4.15" rx="2.88" ry="2.74"/><ellipse class="cls-35" cx="22.04" cy="4.23" rx="2.88" ry="2.74"/><ellipse class="cls-36" cx="22.24" cy="4.32" rx="2.88" ry="2.74"/><ellipse class="cls-37" cx="22.44" cy="4.41" rx="2.88" ry="2.74"/><ellipse class="cls-38" cx="22.63" cy="4.5" rx="2.88" ry="2.74"/><ellipse class="cls-39" cx="22.82" cy="4.59" rx="2.88" ry="2.74"/><ellipse class="cls-40" cx="23.02" cy="4.69" rx="2.88" ry="2.74"/><ellipse class="cls-41" cx="23.21" cy="4.78" rx="2.88" ry="2.74"/><ellipse class="cls-42" cx="23.4" cy="4.88" rx="2.88" ry="2.74"/><ellipse class="cls-43" cx="23.58" cy="4.98" rx="2.88" ry="2.74"/><ellipse class="cls-44" cx="23.77" cy="5.09" rx="2.88" ry="2.74"/><ellipse class="cls-45" cx="23.95" cy="5.19" rx="2.88" ry="2.74"/><ellipse class="cls-46" cx="24.14" cy="5.3" rx="2.88" ry="2.74"/><ellipse class="cls-47" cx="24.32" cy="5.41" rx="2.88" ry="2.74"/><ellipse class="cls-48" cx="24.5" cy="5.52" rx="2.88" ry="2.74"/><ellipse class="cls-49" cx="24.68" cy="5.63" rx="2.88" ry="2.74"/><ellipse class="cls-50" cx="24.86" cy="5.75" rx="2.88" ry="2.74"/><ellipse class="cls-51" cx="25.03" cy="5.87" rx="2.88" ry="2.74"/><ellipse class="cls-52" cx="25.21" cy="5.99" rx="2.88" ry="2.74"/><ellipse class="cls-53" cx="25.38" cy="6.11" rx="2.88" ry="2.74"/><ellipse class="cls-54" cx="25.55" cy="6.23" rx="2.88" ry="2.74"/><ellipse class="cls-55" cx="25.72" cy="6.35" rx="2.88" ry="2.74"/><ellipse class="cls-56" cx="25.89" cy="6.48" rx="2.88" ry="2.74"/><ellipse class="cls-57" cx="26.05" cy="6.61" rx="2.88" ry="2.74"/><ellipse class="cls-58" cx="26.22" cy="6.74" rx="2.88" ry="2.74"/><ellipse class="cls-59" cx="26.38" cy="6.87" rx="2.88" ry="2.74"/><ellipse class="cls-60" cx="26.54" cy="7.01" rx="2.88" ry="2.74"/><ellipse class="cls-61" cx="26.7" cy="7.14" rx="2.88" ry="2.74"/><ellipse class="cls-62" cx="26.86" cy="7.28" rx="2.88" ry="2.74"/><ellipse class="cls-63" cx="27.02" cy="7.42" rx="2.88" ry="2.74"/><ellipse class="cls-64" cx="27.17" cy="7.56" rx="2.88" ry="2.74"/><ellipse class="cls-64" cx="27.32" cy="7.71" rx="2.88" ry="2.74"/><ellipse class="cls-65" cx="27.47" cy="7.85" rx="2.88" ry="2.74"/><ellipse class="cls-66" cx="27.62" cy="8" rx="2.88" ry="2.74"/><ellipse class="cls-67" cx="27.77" cy="8.15" rx="2.88" ry="2.74"/><ellipse class="cls-68" cx="27.91" cy="8.3" rx="2.88" ry="2.74"/><ellipse class="cls-69" cx="28.06" cy="8.45" rx="2.88" ry="2.74"/><ellipse class="cls-70" cx="28.2" cy="8.6" rx="2.88" ry="2.74"/><ellipse class="cls-71" cx="28.34" cy="8.75" rx="2.88" ry="2.74"/><ellipse class="cls-72" cx="28.48" cy="8.91" rx="2.88" ry="2.74"/><ellipse class="cls-73" cx="28.61" cy="9.07" rx="2.88" ry="2.74"/><ellipse class="cls-74" cx="28.74" cy="9.23" rx="2.88" ry="2.74"/><ellipse class="cls-75" cx="28.88" cy="9.39" rx="2.88" ry="2.74"/><ellipse class="cls-76" cx="29.01" cy="9.55" rx="2.88" ry="2.74"/><ellipse class="cls-77" cx="29.13" cy="9.72" rx="2.88" ry="2.74"/><ellipse class="cls-78" cx="29.26" cy="9.88" rx="2.88" ry="2.74"/><ellipse class="cls-79" cx="29.38" cy="10.05" rx="2.88" ry="2.74"/><ellipse class="cls-80" cx="29.5" cy="10.22" rx="2.88" ry="2.74"/><ellipse class="cls-81" cx="29.62" cy="10.39" rx="2.88" ry="2.74"/><ellipse class="cls-82" cx="29.74" cy="10.56" rx="2.88" ry="2.74"/><ellipse class="cls-83" cx="29.86" cy="10.73" rx="2.88" ry="2.74"/><ellipse class="cls-84" cx="29.97" cy="10.91" rx="2.88" ry="2.74"/><ellipse class="cls-85" cx="30.08" cy="11.08" rx="2.88" ry="2.74"/><ellipse class="cls-86" cx="30.19" cy="11.26" rx="2.88" ry="2.74"/><ellipse class="cls-87" cx="30.29" cy="11.44" rx="2.88" ry="2.74"/><ellipse class="cls-88" cx="30.4" cy="11.62" rx="2.88" ry="2.74"/><ellipse class="cls-89" cx="30.5" cy="11.8" rx="2.88" ry="2.74"/><ellipse class="cls-90" cx="30.6" cy="11.98" rx="2.88" ry="2.74"/><ellipse class="cls-91" cx="30.7" cy="12.16" rx="2.88" ry="2.74"/><ellipse class="cls-92" cx="30.79" cy="12.35" rx="2.88" ry="2.74"/><ellipse class="cls-93" cx="30.89" cy="12.53" rx="2.88" ry="2.74"/><ellipse class="cls-94" cx="30.98" cy="12.72" rx="2.88" ry="2.74"/><ellipse class="cls-95" cx="31.06" cy="12.91" rx="2.88" ry="2.74"/><ellipse class="cls-96" cx="31.15" cy="13.1" rx="2.88" ry="2.74"/><ellipse class="cls-97" cx="31.23" cy="13.29" rx="2.88" ry="2.74"/><ellipse class="cls-98" cx="31.32" cy="13.48" rx="2.88" ry="2.74"/><ellipse class="cls-99" cx="31.39" cy="13.68" rx="2.88" ry="2.74"/><ellipse class="cls-100" cx="31.47" cy="13.87" rx="2.88" ry="2.74"/><ellipse class="cls-101" cx="31.54" cy="14.07" rx="2.88" ry="2.74"/><ellipse class="cls-102" cx="31.62" cy="14.26" rx="2.88" ry="2.74"/><ellipse class="cls-103" cx="31.68" cy="14.46" rx="2.88" ry="2.74"/><ellipse class="cls-104" cx="31.75" cy="14.66" rx="2.88" ry="2.74"/><ellipse class="cls-105" cx="31.82" cy="14.86" rx="2.88" ry="2.74"/><ellipse class="cls-106" cx="31.88" cy="15.06" rx="2.88" ry="2.74"/><ellipse class="cls-107" cx="31.94" cy="15.26" rx="2.88" ry="2.74"/><ellipse class="cls-108" cx="31.99" cy="15.46" rx="2.88" ry="2.74"/><ellipse class="cls-109" cx="32.05" cy="15.67" rx="2.88" ry="2.74"/><ellipse class="cls-110" cx="32.1" cy="15.87" rx="2.88" ry="2.74"/><ellipse class="cls-111" cx="32.15" cy="16.08" rx="2.88" ry="2.74"/><ellipse class="cls-112" cx="32.19" cy="16.29" rx="2.88" ry="2.74"/><ellipse class="cls-113" cx="32.23" cy="16.49" rx="2.88" ry="2.74"/><ellipse class="cls-114" cx="32.28" cy="16.7" rx="2.88" ry="2.74"/><ellipse class="cls-115" cx="32.31" cy="16.91" rx="2.88" ry="2.74"/><ellipse class="cls-116" cx="32.35" cy="17.12" rx="2.88" ry="2.74"/><ellipse class="cls-117" cx="32.38" cy="17.33" rx="2.88" ry="2.74"/><ellipse class="cls-118" cx="32.41" cy="17.54" rx="2.88" ry="2.74"/><ellipse class="cls-119" cx="32.44" cy="17.76" rx="2.88" ry="2.74"/><ellipse class="cls-120" cx="32.46" cy="17.97" rx="2.88" ry="2.74"/><ellipse class="cls-121" cx="32.48" cy="18.19" rx="2.88" ry="2.74"/><ellipse class="cls-122" cx="32.5" cy="18.4" rx="2.88" ry="2.74"/><ellipse class="cls-123" cx="32.52" cy="18.62" rx="2.88" ry="2.74"/><ellipse class="cls-124" cx="32.53" cy="18.83" rx="2.88" ry="2.74"/><ellipse class="cls-125" cx="32.54" cy="19.05" rx="2.88" ry="2.74"/><ellipse class="cls-126" cx="32.55" cy="19.27" rx="2.88" ry="2.74"/><ellipse class="cls-127" cx="32.55" cy="19.49" rx="2.88" ry="2.74"/><ellipse class="cls-128" cx="32.55" cy="19.71" rx="2.88" ry="2.74"/><ellipse class="cls-129" cx="32.55" cy="19.85" rx="2.88" ry="2.74"/><ellipse class="cls-130" cx="32.55" cy="20" rx="2.88" ry="2.74"/><ellipse class="cls-131" cx="32.55" cy="20.14" rx="2.88" ry="2.74"/><ellipse class="cls-132" cx="32.54" cy="20.29" rx="2.88" ry="2.74"/><ellipse class="cls-133" cx="32.54" cy="20.43" rx="2.88" ry="2.74"/><ellipse class="cls-134" cx="32.53" cy="20.58" rx="2.88" ry="2.74"/><ellipse class="cls-135" cx="32.52" cy="20.72" rx="2.88" ry="2.74"/><ellipse class="cls-136" cx="32.51" cy="20.86" rx="2.88" ry="2.74"/><ellipse class="cls-137" cx="32.5" cy="21.01" rx="2.88" ry="2.74"/><ellipse class="cls-138" cx="32.49" cy="21.15" rx="2.88" ry="2.74"/><ellipse class="cls-139" cx="32.48" cy="21.29" rx="2.88" ry="2.74"/><ellipse class="cls-140" cx="32.46" cy="21.43" rx="2.88" ry="2.74"/><ellipse class="cls-141" cx="32.45" cy="21.58" rx="2.88" ry="2.74"/><ellipse class="cls-142" cx="32.43" cy="21.72" rx="2.88" ry="2.74"/><ellipse class="cls-143" cx="32.41" cy="21.86" rx="2.88" ry="2.74"/><ellipse class="cls-144" cx="32.39" cy="22" rx="2.88" ry="2.74"/><ellipse class="cls-145" cx="32.37" cy="22.14" rx="2.88" ry="2.74"/><ellipse class="cls-146" cx="32.35" cy="22.28" rx="2.88" ry="2.74"/><ellipse class="cls-147" cx="32.33" cy="22.42" rx="2.88" ry="2.74"/><ellipse class="cls-148" cx="32.3" cy="22.56" rx="2.88" ry="2.74"/><ellipse class="cls-149" cx="32.28" cy="22.7" rx="2.88" ry="2.74"/><ellipse class="cls-150" cx="32.25" cy="22.84" rx="2.88" ry="2.74"/><ellipse class="cls-151" cx="32.22" cy="22.98" rx="2.88" ry="2.74"/><ellipse class="cls-152" cx="32.19" cy="23.11" rx="2.88" ry="2.74"/><ellipse class="cls-153" cx="32.16" cy="23.25" rx="2.88" ry="2.74"/><ellipse class="cls-154" cx="32.13" cy="23.39" rx="2.88" ry="2.74"/><ellipse class="cls-155" cx="32.1" cy="23.52" rx="2.88" ry="2.74"/><ellipse class="cls-156" cx="32.07" cy="23.66" rx="2.88" ry="2.74"/><ellipse class="cls-157" cx="32.03" cy="23.8" rx="2.88" ry="2.74"/><ellipse class="cls-158" cx="32" cy="23.93" rx="2.88" ry="2.74"/><ellipse class="cls-159" cx="31.96" cy="24.07" rx="2.88" ry="2.74"/><ellipse class="cls-160" cx="31.92" cy="24.2" rx="2.88" ry="2.74"/><ellipse class="cls-161" cx="31.88" cy="24.34" rx="2.88" ry="2.74"/><ellipse class="cls-162" cx="31.84" cy="24.47" rx="2.88" ry="2.74"/><ellipse class="cls-163" cx="31.8" cy="24.6" rx="2.88" ry="2.74"/><ellipse class="cls-164" cx="31.76" cy="24.73" rx="2.88" ry="2.74"/><ellipse class="cls-165" cx="31.71" cy="24.87" rx="2.88" ry="2.74"/><ellipse class="cls-166" cx="31.67" cy="25" rx="2.88" ry="2.74"/><ellipse class="cls-167" cx="31.62" cy="25.13" rx="2.88" ry="2.74"/><ellipse class="cls-168" cx="31.58" cy="25.26" rx="2.88" ry="2.74"/><ellipse class="cls-169" cx="31.53" cy="25.39" rx="2.88" ry="2.74"/><ellipse class="cls-170" cx="31.48" cy="25.52" rx="2.88" ry="2.74"/><ellipse class="cls-171" cx="31.43" cy="25.65" rx="2.88" ry="2.74"/><ellipse class="cls-172" cx="31.38" cy="25.78" rx="2.88" ry="2.74"/><ellipse class="cls-173" cx="31.32" cy="25.91" rx="2.88" ry="2.74"/><ellipse class="cls-174" cx="31.27" cy="26.03" rx="2.88" ry="2.74"/><ellipse class="cls-175" cx="31.22" cy="26.16" rx="2.88" ry="2.74"/><ellipse class="cls-176" cx="31.16" cy="26.29" rx="2.88" ry="2.74"/><ellipse class="cls-177" cx="31.1" cy="26.42" rx="2.88" ry="2.74"/><ellipse class="cls-178" cx="31.05" cy="26.54" rx="2.88" ry="2.74"/><ellipse class="cls-179" cx="30.99" cy="26.67" rx="2.88" ry="2.74"/><ellipse class="cls-180" cx="30.93" cy="26.79" rx="2.88" ry="2.74"/><ellipse class="cls-181" cx="30.87" cy="26.91" rx="2.88" ry="2.74"/><ellipse class="cls-182" cx="30.81" cy="27.04" rx="2.88" ry="2.74"/><ellipse class="cls-183" cx="30.74" cy="27.16" rx="2.88" ry="2.74"/><ellipse class="cls-184" cx="30.68" cy="27.28" rx="2.88" ry="2.74"/><ellipse class="cls-185" cx="30.61" cy="27.41" rx="2.88" ry="2.74"/><ellipse class="cls-186" cx="30.55" cy="27.53" rx="2.88" ry="2.74"/><ellipse class="cls-187" cx="30.48" cy="27.65" rx="2.88" ry="2.74"/><ellipse class="cls-188" cx="30.41" cy="27.77" rx="2.88" ry="2.74"/><ellipse class="cls-189" cx="30.35" cy="27.89" rx="2.88" ry="2.74"/><ellipse class="cls-189" cx="30.28" cy="28.01" rx="2.88" ry="2.74"/><ellipse class="cls-190" cx="30.2" cy="28.13" rx="2.88" ry="2.74"/><ellipse class="cls-191" cx="30.13" cy="28.24" rx="2.88" ry="2.74"/><ellipse class="cls-192" cx="30.06" cy="28.36" rx="2.88" ry="2.74"/><ellipse class="cls-193" cx="29.99" cy="28.48" rx="2.88" ry="2.74"/><ellipse class="cls-194" cx="29.91" cy="28.59" rx="2.88" ry="2.74"/><ellipse class="cls-195" cx="29.84" cy="28.71" rx="2.88" ry="2.74"/><ellipse class="cls-196" cx="29.76" cy="28.82" rx="2.88" ry="2.74"/><ellipse class="cls-197" cx="29.68" cy="28.94" rx="2.88" ry="2.74"/><ellipse class="cls-198" cx="29.6" cy="29.05" rx="2.88" ry="2.74"/><ellipse class="cls-199" cx="29.53" cy="29.16" rx="2.88" ry="2.74"/><ellipse class="cls-200" cx="29.45" cy="29.28" rx="2.88" ry="2.74"/><ellipse class="cls-201" cx="29.36" cy="29.39" rx="2.88" ry="2.74"/><ellipse class="cls-202" cx="29.28" cy="29.5" rx="2.88" ry="2.74"/><ellipse class="cls-203" cx="29.2" cy="29.61" rx="2.88" ry="2.74"/><ellipse class="cls-204" cx="29.12" cy="29.72" rx="2.88" ry="2.74"/><ellipse class="cls-205" cx="29.03" cy="29.83" rx="2.88" ry="2.74"/><ellipse class="cls-206" cx="28.95" cy="29.94" rx="2.88" ry="2.74"/><ellipse class="cls-207" cx="28.86" cy="30.04" rx="2.88" ry="2.74"/><ellipse class="cls-208" cx="28.77" cy="30.15" rx="2.88" ry="2.74"/><ellipse class="cls-209" cx="28.68" cy="30.26" rx="2.88" ry="2.74"/><ellipse class="cls-210" cx="28.59" cy="30.36" rx="2.88" ry="2.74"/><ellipse class="cls-211" cx="28.5" cy="30.47" rx="2.88" ry="2.74"/><ellipse class="cls-212" cx="28.41" cy="30.57" rx="2.88" ry="2.74"/><ellipse class="cls-213" cx="28.32" cy="30.68" rx="2.88" ry="2.74"/><ellipse class="cls-214" cx="28.23" cy="30.78" rx="2.88" ry="2.74"/><ellipse class="cls-215" cx="28.14" cy="30.88" rx="2.88" ry="2.74"/><ellipse class="cls-216" cx="28.04" cy="30.98" rx="2.88" ry="2.74"/><ellipse class="cls-217" cx="27.95" cy="31.08" rx="2.88" ry="2.74"/><ellipse class="cls-218" cx="27.85" cy="31.18" rx="2.88" ry="2.74"/><ellipse class="cls-219" cx="27.75" cy="31.28" rx="2.88" ry="2.74"/><ellipse class="cls-220" cx="27.66" cy="31.38" rx="2.88" ry="2.74"/><ellipse class="cls-221" cx="27.56" cy="31.48" rx="2.88" ry="2.74"/><ellipse class="cls-222" cx="27.46" cy="31.58" rx="2.88" ry="2.74"/><ellipse class="cls-223" cx="27.36" cy="31.67" rx="2.88" ry="2.74"/><ellipse class="cls-224" cx="27.26" cy="31.77" rx="2.88" ry="2.74"/><ellipse class="cls-225" cx="27.16" cy="31.86" rx="2.88" ry="2.74"/><ellipse class="cls-226" cx="27.05" cy="31.96" rx="2.88" ry="2.74"/><ellipse class="cls-227" cx="26.95" cy="32.05" rx="2.88" ry="2.74"/><ellipse class="cls-228" cx="26.85" cy="32.14" rx="2.88" ry="2.74"/><ellipse class="cls-229" cx="26.74" cy="32.23" rx="2.88" ry="2.74"/><ellipse class="cls-230" cx="26.64" cy="32.32" rx="2.88" ry="2.74"/><ellipse class="cls-231" cx="26.53" cy="32.41" rx="2.88" ry="2.74"/><ellipse class="cls-232" cx="26.42" cy="32.5" rx="2.88" ry="2.74"/><ellipse class="cls-233" cx="26.32" cy="32.59" rx="2.88" ry="2.74"/><ellipse class="cls-234" cx="26.21" cy="32.68" rx="2.88" ry="2.74"/><ellipse class="cls-235" cx="26.1" cy="32.77" rx="2.88" ry="2.74"/><ellipse class="cls-236" cx="25.99" cy="32.85" rx="2.88" ry="2.74"/><ellipse class="cls-237" cx="25.88" cy="32.94" rx="2.88" ry="2.74"/><ellipse class="cls-238" cx="25.77" cy="33.02" rx="2.88" ry="2.74"/><ellipse class="cls-239" cx="25.66" cy="33.11" rx="2.88" ry="2.74"/><ellipse class="cls-240" cx="25.54" cy="33.19" rx="2.88" ry="2.74"/><ellipse class="cls-241" cx="25.43" cy="33.27" rx="2.88" ry="2.74"/><ellipse class="cls-242" cx="25.31" cy="33.35" rx="2.88" ry="2.74"/><ellipse class="cls-243" cx="25.2" cy="33.43" rx="2.88" ry="2.74"/><ellipse class="cls-244" cx="25.08" cy="33.51" rx="2.88" ry="2.74"/><ellipse class="cls-245" cx="24.97" cy="33.59" rx="2.88" ry="2.74"/><ellipse class="cls-246" cx="24.85" cy="33.67" rx="2.88" ry="2.74"/><ellipse class="cls-247" cx="24.73" cy="33.74" rx="2.88" ry="2.74"/><ellipse class="cls-248" cx="24.61" cy="33.82" rx="2.88" ry="2.74"/><ellipse class="cls-249" cx="24.5" cy="33.9" rx="2.88" ry="2.74"/><ellipse class="cls-250" cx="24.13" cy="34.12" rx="2.88" ry="2.74"/><ellipse class="cls-251" cx="23.98" cy="34.21" rx="2.88" ry="2.74"/><ellipse class="cls-252" cx="23.58" cy="34.43" rx="2.88" ry="2.74"/><ellipse class="cls-253" cx="23.17" cy="34.65" rx="2.88" ry="2.74"/><ellipse class="cls-254" cx="22.75" cy="34.85" rx="2.88" ry="2.74"/><ellipse class="cls-255" cx="22.33" cy="35.05" rx="2.88" ry="2.74"/><ellipse class="cls-256" cx="21.9" cy="35.24" rx="2.88" ry="2.74"/><ellipse class="cls-257" cx="21.47" cy="35.41" rx="2.88" ry="2.74"/><ellipse class="cls-258" cx="21.03" cy="35.58" rx="2.88" ry="2.74"/><ellipse class="cls-259" cx="20.59" cy="35.73" rx="2.88" ry="2.74"/><ellipse class="cls-260" cx="20.14" cy="35.87" rx="2.88" ry="2.74"/><ellipse class="cls-261" cx="19.68" cy="36.01" rx="2.88" ry="2.74"/><ellipse class="cls-262" cx="19.22" cy="36.13" rx="2.88" ry="2.74"/><ellipse class="cls-263" cx="18.75" cy="36.24" rx="2.88" ry="2.74"/><ellipse class="cls-264" cx="18.28" cy="36.33" rx="2.88" ry="2.74"/><ellipse class="cls-265" cx="17.81" cy="36.42" rx="2.88" ry="2.74"/><ellipse class="cls-266" cx="17.33" cy="36.49" rx="2.88" ry="2.74"/><ellipse class="cls-267" cx="16.85" cy="36.56" rx="2.88" ry="2.74"/><ellipse class="cls-268" cx="16.36" cy="36.6" rx="2.88" ry="2.74"/><ellipse class="cls-269" cx="15.87" cy="36.64" rx="2.88" ry="2.74"/><ellipse class="cls-270" cx="15.37" cy="36.66" rx="2.88" ry="2.74"/><ellipse class="cls-271" cx="14.87" cy="36.68" rx="2.88" ry="2.74"/><ellipse class="cls-272" cx="14.38" cy="36.67" rx="2.88" ry="2.74"/><ellipse class="cls-273" cx="13.89" cy="36.66" rx="2.88" ry="2.74"/><ellipse class="cls-274" cx="13.41" cy="36.63" rx="2.88" ry="2.74"/><ellipse class="cls-275" cx="12.93" cy="36.59" rx="2.88" ry="2.74"/><ellipse class="cls-276" cx="12.45" cy="36.54" rx="2.88" ry="2.74"/><ellipse class="cls-277" cx="11.97" cy="36.48" rx="2.88" ry="2.74"/><ellipse class="cls-278" cx="11.5" cy="36.41" rx="2.88" ry="2.74"/><ellipse class="cls-279" cx="11.04" cy="36.32" rx="2.88" ry="2.74"/><ellipse class="cls-280" cx="10.58" cy="36.22" rx="2.88" ry="2.74"/><ellipse class="cls-281" cx="10.12" cy="36.12" rx="2.88" ry="2.74"/><ellipse class="cls-282" cx="9.67" cy="36" rx="2.88" ry="2.74"/><ellipse class="cls-283" cx="9.22" cy="35.87" rx="2.88" ry="2.74"/><ellipse class="cls-284" cx="8.78" cy="35.73" rx="2.88" ry="2.74"/><ellipse class="cls-285" cx="8.35" cy="35.57" rx="2.88" ry="2.74"/><ellipse class="cls-286" cx="7.91" cy="35.41" rx="2.88" ry="2.74"/><ellipse class="cls-287" cx="7.49" cy="35.24" rx="2.88" ry="2.74"/><ellipse class="cls-288" cx="7.07" cy="35.06" rx="2.88" ry="2.74"/><ellipse class="cls-289" cx="6.66" cy="34.87" rx="2.88" ry="2.74"/><ellipse class="cls-290" cx="6.25" cy="34.66" rx="2.88" ry="2.74"/><ellipse class="cls-291" cx="5.85" cy="34.45" rx="2.88" ry="2.74"/><ellipse class="cls-292" cx="5.45" cy="34.23" rx="2.88" ry="2.74"/><ellipse class="cls-293" cx="5.06" cy="34" rx="2.88" ry="2.74"/><ellipse class="cls-294" cx="4.68" cy="33.76" rx="2.88" ry="2.74"/><ellipse class="cls-295" cx="4.31" cy="33.51" rx="2.88" ry="2.74"/><ellipse class="cls-296" cx="3.94" cy="33.26" rx="2.88" ry="2.74"/><ellipse class="cls-297" cx="3.58" cy="32.99" rx="2.88" ry="2.74"/><ellipse class="cls-298" cx="3.22" cy="32.72" rx="2.88" ry="2.74"/><ellipse class="cls-299" cx="2.88" cy="32.43" rx="2.88" ry="2.74"/></g></g></svg>