<svg xmlns="http://www.w3.org/2000/svg" viewBox="0 0 36.85 37.42"><defs><style>.cls-1{fill:#fff;}.cls-2{fill:#fffefe;}.cls-3{fill:#fffdfd;}.cls-4{fill:#fffcfc;}.cls-5{fill:#fffbfb;}.cls-6{fill:snow;}.cls-7{fill:#fff9f9;}.cls-8{fill:#fff8f8;}.cls-9{fill:#fef7f7;}.cls-10{fill:#fef6f6;}.cls-11{fill:#fef5f5;}.cls-12{fill:#fef4f4;}.cls-13{fill:#fef3f3;}.cls-14{fill:#fef2f3;}.cls-15{fill:#fef1f2;}.cls-16{fill:#fef0f1;}.cls-17{fill:#feeff0;}.cls-18{fill:#feeeef;}.cls-19{fill:#feedee;}.cls-20{fill:#feeced;}.cls-21{fill:#feebec;}.cls-22{fill:#feeaeb;}.cls-23{fill:#fde9ea;}.cls-24{fill:#fde8e9;}.cls-25{fill:#fde7e8;}.cls-26{fill:#fde6e7;}.cls-27{fill:#fde5e6;}.cls-28{fill:#fde4e5;}.cls-29{fill:#fde3e4;}.cls-30{fill:#fde2e3;}.cls-31{fill:#fde1e2;}.cls-32{fill:#fde0e1;}.cls-33{fill:#fddfe0;}.cls-34{fill:#fddedf;}.cls-35{fill:#fdddde;}.cls-36{fill:#fddcdd;}.cls-37{fill:#fcdbdc;}.cls-38{fill:#fcdadb;}.cls-39{fill:#fcd9da;}.cls-40{fill:#fcd8da;}.cls-41{fill:#fcd7d9;}.cls-42{fill:#fcd6d8;}.cls-43{fill:#fcd5d7;}.cls-44{fill:#fcd4d6;}.cls-45{fill:#fcd3d5;}.cls-46{fill:#fcd2d4;}.cls-47{fill:#fcd1d3;}.cls-48{fill:#fcd0d2;}.cls-49{fill:#fccfd1;}.cls-50{fill:#fcced0;}.cls-51{fill:#fbcdcf;}.cls-52{fill:#fbccce;}.cls-53{fill:#fbcbcd;}.cls-54{fill:#fbcacc;}.cls-55{fill:#fbc9cb;}.cls-56{fill:#fbc8ca;}.cls-57{fill:#fbc7c9;}.cls-58{fill:#fbc6c8;}.cls-59{fill:#fbc5c7;}.cls-60{fill:#fbc4c6;}.cls-61{fill:#fbc3c5;}.cls-62{fill:#fbc2c4;}.cls-63{fill:#fbc1c3;}.cls-64{fill:#fbc0c2;}.cls-65{fill:#fabfc1;}.cls-66{fill:#fabec0;}.cls-67{fill:#fabdbf;}.cls-68{fill:#fabcbe;}.cls-69{fill:#fabbbd;}.cls-70{fill:#fababc;}.cls-71{fill:#fab9bb;}.cls-72{fill:#fab8ba;}.cls-73{fill:#fab7b9;}.cls-74{fill:#fab6b8;}.cls-75{fill:#fab5b7;}.cls-76{fill:#fab4b6;}.cls-77{fill:#fab3b5;}.cls-78{fill:#fab2b4;}.cls-79{fill:#f9b1b3;}.cls-80{fill:#f9b0b2;}.cls-81{fill:#f9afb1;}.cls-82{fill:#f9aeb0;}.cls-83{fill:#f9adaf;}.cls-84{fill:#f9acae;}.cls-85{fill:#f9abad;}.cls-86{fill:#f9aaac;}.cls-87{fill:#f9a9ab;}.cls-88{fill:#f9a8aa;}.cls-89{fill:#f9a7a9;}.cls-90{fill:#f9a6a9;}.cls-91{fill:#f9a5a8;}.cls-92{fill:#f9a4a7;}.cls-93{fill:#f8a3a6;}.cls-94{fill:#f8a2a5;}.cls-95{fill:#f8a1a4;}.cls-96{fill:#f8a0a3;}.cls-97{fill:#f89fa2;}.cls-98{fill:#f89ea1;}.cls-99{fill:#f89da0;}.cls-100{fill:#f89c9f;}.cls-101{fill:#f89b9e;}.cls-102{fill:#f89a9d;}.cls-103{fill:#f8999c;}.cls-104{fill:#f8989b;}.cls-105{fill:#f8979a;}.cls-106{fill:#f89699;}.cls-107{fill:#f79598;}.cls-108{fill:#f79497;}.cls-109{fill:#f79396;}.cls-110{fill:#f79295;}.cls-111{fill:#f79194;}.cls-112{fill:#f79093;}.cls-113{fill:#f78f92;}.cls-114{fill:#f78e91;}.cls-115{fill:#f78d90;}.cls-116{fill:#f78c90;}.cls-117{fill:#f78b8f;}.cls-118{fill:#f78a8e;}.cls-119{fill:#f7898d;}.cls-120{fill:#f7888c;}.cls-121{fill:#f6878b;}.cls-122{fill:#f6868a;}.cls-123{fill:#f68589;}.cls-124{fill:#f68488;}.cls-125{fill:#f68387;}.cls-126{fill:#f68286;}.cls-127{fill:#f68185;}.cls-128{fill:#f68084;}.cls-129{fill:#f58185;}.cls-130{fill:#f58186;}.cls-131{fill:#f48287;}.cls-132{fill:#f38288;}.cls-133{fill:#f38389;}.cls-134{fill:#f2838a;}.cls-135{fill:#f1848b;}.cls-136{fill:#f1848c;}.cls-137{fill:#f0858d;}.cls-138{fill:#ef858e;}.cls-139{fill:#ef868f;}.cls-140{fill:#ee8690;}.cls-141{fill:#ee8791;}.cls-142{fill:#ed8792;}.cls-143{fill:#ec8893;}.cls-144{fill:#ec8894;}.cls-145{fill:#eb8995;}.cls-146{fill:#ea8996;}.cls-147{fill:#ea8a97;}.cls-148{fill:#e98a98;}.cls-149{fill:#e88b99;}.cls-150{fill:#e88b9a;}.cls-151{fill:#e78c9b;}.cls-152{fill:#e68c9c;}.cls-153{fill:#e68d9d;}.cls-154{fill:#e58e9e;}.cls-155{fill:#e48e9f;}.cls-156{fill:#e48fa0;}.cls-157{fill:#e38fa1;}.cls-158{fill:#e290a2;}.cls-159{fill:#e290a3;}.cls-160{fill:#e191a4;}.cls-161{fill:#e191a5;}.cls-162{fill:#e092a6;}.cls-163{fill:#df92a7;}.cls-164{fill:#df93a8;}.cls-165{fill:#de93a9;}.cls-166{fill:#dd94aa;}.cls-167{fill:#dd94ab;}.cls-168{fill:#dc95ac;}.cls-169{fill:#db95ad;}.cls-170{fill:#db96ae;}.cls-171{fill:#da96af;}.cls-172{fill:#d997b0;}.cls-173{fill:#d997b1;}.cls-174{fill:#d898b2;}.cls-175{fill:#d798b3;}.cls-176{fill:#d799b4;}.cls-177{fill:#d699b5;}.cls-178{fill:#d59ab6;}.cls-179{fill:#d59bb7;}.cls-180{fill:#d49bb8;}.cls-181{fill:#d49cb9;}.cls-182{fill:#d39cba;}.cls-183{fill:#d29dbb;}.cls-184{fill:#d29dbc;}.cls-185{fill:#d19ebd;}.cls-186{fill:#d09ebe;}.cls-187{fill:#d09fbf;}.cls-188{fill:#cf9fc0;}.cls-189{fill:#cea0c1;}.cls-190{fill:#cda1c2;}.cls-191{fill:#cca1c3;}.cls-192{fill:#cca2c4;}.cls-193{fill:#cba2c5;}.cls-194{fill:#caa3c6;}.cls-195{fill:#caa3c7;}.cls-196{fill:#c9a4c8;}.cls-197{fill:#c8a4c9;}.cls-198{fill:#c8a5ca;}.cls-199{fill:#c7a5cb;}.cls-200{fill:#c7a6cc;}.cls-201{fill:#c6a7cd;}.cls-202{fill:#c5a7ce;}.cls-203{fill:#c5a8cf;}.cls-204{fill:#c4a8d0;}.cls-205{fill:#c3a9d1;}.cls-206{fill:#c3a9d2;}.cls-207{fill:#c2aad3;}.cls-208{fill:#c1aad4;}.cls-209{fill:#c1abd5;}.cls-210{fill:#c0abd6;}.cls-211{fill:#bfacd7;}.cls-212{fill:#bfacd8;}.cls-213{fill:#beadd9;}.cls-214{fill:#bdadda;}.cls-215{fill:#bdaedb;}.cls-216{fill:#bcaedc;}.cls-217{fill:#bbafdd;}.cls-218{fill:#bbafde;}.cls-219{fill:#bab0df;}.cls-220{fill:#bab0e0;}.cls-221{fill:#b9b1e1;}.cls-222{fill:#b8b1e2;}.cls-223{fill:#b8b2e3;}.cls-224{fill:#b7b2e4;}.cls-225{fill:#b6b3e5;}.cls-226{fill:#b6b4e6;}.cls-227{fill:#b5b4e7;}.cls-228{fill:#b4b5e8;}.cls-229{fill:#b4b5e9;}.cls-230{fill:#b3b6ea;}.cls-231{fill:#b2b6eb;}.cls-232{fill:#b2b7ec;}.cls-233{fill:#b1b7ed;}.cls-234{fill:#b0b8ee;}.cls-235{fill:#b0b8ef;}.cls-236{fill:#afb9f0;}.cls-237{fill:#aeb9f1;}.cls-238{fill:#aebaf2;}.cls-239{fill:#adbaf3;}.cls-240{fill:#adbbf4;}.cls-241{fill:#acbbf5;}.cls-242{fill:#abbcf6;}.cls-243{fill:#abbcf7;}.cls-244{fill:#aabdf8;}.cls-245{fill:#a9bdf9;}.cls-246{fill:#a9befa;}.cls-247{fill:#a8befb;}.cls-248{fill:#a7bffc;}.cls-249{fill:#a7bffd;}.cls-250{fill:#a6c0fe;}.cls-251{fill:#a6bffd;}.cls-252{fill:#a5befd;}.cls-253{fill:#a5bdfc;}.cls-254{fill:#a5bcfc;}.cls-255{fill:#a5bbfb;}.cls-256{fill:#a4bafb;}.cls-257{fill:#a4b9fa;}.cls-258{fill:#a4b8fa;}.cls-259{fill:#a3b7f9;}.cls-260{fill:#a3b6f8;}.cls-261{fill:#a3b5f8;}.cls-262{fill:#a3b4f7;}.cls-263{fill:#a2b3f7;}.cls-264{fill:#a2b2f6;}.cls-265{fill:#a2b1f6;}.cls-266{fill:#a1b0f5;}.cls-267{fill:#a1aff5;}.cls-268{fill:#a1aef4;}.cls-269{fill:#a1adf4;}.cls-270{fill:#a0acf3;}.cls-271{fill:#a0abf2;}.cls-272{fill:#a0aaf2;}.cls-273{fill:#9fa9f1;}.cls-274{fill:#9fa8f1;}.cls-275{fill:#9fa8f0;}.cls-276{fill:#9fa7f0;}.cls-277{fill:#9ea6ef;}.cls-278{fill:#9ea5ef;}.cls-279{fill:#9ea4ee;}.cls-280{fill:#9da3ed;}.cls-281{fill:#9da2ed;}.cls-282{fill:#9da1ec;}.cls-283{fill:#9da0ec;}.cls-284{fill:#9c9feb;}.cls-285{fill:#9c9eeb;}.cls-286{fill:#9c9dea;}.cls-287{fill:#9b9cea;}.cls-288{fill:#9b9be9;}.cls-289{fill:#9b9ae9;}.cls-290{fill:#9b99e8;}.cls-291{fill:#9a98e7;}.cls-292{fill:#9a97e7;}.cls-293{fill:#9a96e6;}.cls-294{fill:#9995e6;}.cls-295{fill:#9994e5;}.cls-296{fill:#9993e5;}.cls-297{fill:#9992e4;}.cls-298{fill:#9891e4;}.cls-299{fill:#9890e3;}</style></defs><title>num2_2</title><g id="圖層_2" data-name="圖層 2"><g id="圖層_1-2" data-name="圖層 1"><ellipse class="cls-1" cx="17.9" cy="2.6" rx="2.63" ry="2.6"/><ellipse class="cls-2" cx="18.11" cy="2.6" rx="2.63" ry="2.6"/><ellipse class="cls-3" cx="18.32" cy="2.6" rx="2.63" ry="2.6"/><ellipse class="cls-4" cx="18.53" cy="2.61" rx="2.63" ry="2.6"/><ellipse class="cls-5" cx="18.74" cy="2.62" rx="2.63" ry="2.6"/><ellipse class="cls-6" cx="18.95" cy="2.63" rx="2.63" ry="2.6"/><ellipse class="cls-7" cx="19.15" cy="2.64" rx="2.63" ry="2.6"/><ellipse class="cls-8" cx="19.36" cy="2.66" rx="2.63" ry="2.6"/><ellipse class="cls-9" cx="19.57" cy="2.68" rx="2.63" ry="2.6"/><ellipse class="cls-10" cx="19.77" cy="2.7" rx="2.63" ry="2.6"/><ellipse class="cls-11" cx="19.98" cy="2.73" rx="2.63" ry="2.6"/><ellipse class="cls-12" cx="20.18" cy="2.75" rx="2.63" ry="2.6"/><ellipse class="cls-13" cx="20.38" cy="2.78" rx="2.63" ry="2.6"/><ellipse class="cls-14" cx="20.59" cy="2.81" rx="2.63" ry="2.6"/><ellipse class="cls-15" cx="20.79" cy="2.85" rx="2.63" ry="2.6"/><ellipse class="cls-16" cx="20.99" cy="2.89" rx="2.63" ry="2.6"/><ellipse class="cls-17" cx="21.19" cy="2.92" rx="2.63" ry="2.6"/><ellipse class="cls-18" cx="21.39" cy="2.97" rx="2.63" ry="2.6"/><ellipse class="cls-19" cx="21.58" cy="3.01" rx="2.63" ry="2.6"/><ellipse class="cls-20" cx="21.78" cy="3.06" rx="2.63" ry="2.6"/><ellipse class="cls-21" cx="21.98" cy="3.1" rx="2.63" ry="2.6"/><ellipse class="cls-22" cx="22.17" cy="3.15" rx="2.63" ry="2.6"/><ellipse class="cls-23" cx="22.37" cy="3.21" rx="2.63" ry="2.6"/><ellipse class="cls-24" cx="22.56" cy="3.26" rx="2.63" ry="2.6"/><ellipse class="cls-25" cx="22.75" cy="3.32" rx="2.63" ry="2.6"/><ellipse class="cls-26" cx="22.94" cy="3.38" rx="2.63" ry="2.6"/><ellipse class="cls-27" cx="23.13" cy="3.44" rx="2.63" ry="2.6"/><ellipse class="cls-28" cx="23.32" cy="3.51" rx="2.63" ry="2.6"/><ellipse class="cls-29" cx="23.51" cy="3.57" rx="2.63" ry="2.6"/><ellipse class="cls-30" cx="23.7" cy="3.64" rx="2.63" ry="2.6"/><ellipse class="cls-31" cx="23.88" cy="3.71" rx="2.63" ry="2.6"/><ellipse class="cls-32" cx="24.07" cy="3.79" rx="2.63" ry="2.6"/><ellipse class="cls-33" cx="24.25" cy="3.86" rx="2.63" ry="2.6"/><ellipse class="cls-34" cx="24.43" cy="3.94" rx="2.63" ry="2.6"/><ellipse class="cls-35" cx="24.61" cy="4.02" rx="2.63" ry="2.6"/><ellipse class="cls-36" cx="24.8" cy="4.1" rx="2.63" ry="2.6"/><ellipse class="cls-37" cx="24.97" cy="4.19" rx="2.63" ry="2.6"/><ellipse class="cls-38" cx="25.15" cy="4.27" rx="2.63" ry="2.6"/><ellipse class="cls-39" cx="25.33" cy="4.36" rx="2.63" ry="2.6"/><ellipse class="cls-40" cx="25.5" cy="4.45" rx="2.63" ry="2.6"/><ellipse class="cls-41" cx="25.68" cy="4.54" rx="2.63" ry="2.6"/><ellipse class="cls-42" cx="25.85" cy="4.64" rx="2.63" ry="2.6"/><ellipse class="cls-43" cx="26.02" cy="4.73" rx="2.63" ry="2.6"/><ellipse class="cls-44" cx="26.19" cy="4.83" rx="2.63" ry="2.6"/><ellipse class="cls-45" cx="26.36" cy="4.93" rx="2.63" ry="2.6"/><ellipse class="cls-46" cx="26.53" cy="5.03" rx="2.63" ry="2.6"/><ellipse class="cls-47" cx="26.7" cy="5.14" rx="2.63" ry="2.6"/><ellipse class="cls-48" cx="26.86" cy="5.24" rx="2.63" ry="2.6"/><ellipse class="cls-49" cx="27.02" cy="5.35" rx="2.63" ry="2.6"/><ellipse class="cls-50" cx="27.19" cy="5.46" rx="2.63" ry="2.6"/><ellipse class="cls-51" cx="27.35" cy="5.57" rx="2.63" ry="2.6"/><ellipse class="cls-52" cx="27.51" cy="5.68" rx="2.63" ry="2.6"/><ellipse class="cls-53" cx="27.66" cy="5.8" rx="2.63" ry="2.6"/><ellipse class="cls-54" cx="27.82" cy="5.91" rx="2.63" ry="2.6"/><ellipse class="cls-55" cx="27.97" cy="6.03" rx="2.63" ry="2.6"/><ellipse class="cls-56" cx="28.13" cy="6.15" rx="2.63" ry="2.6"/><ellipse class="cls-57" cx="28.28" cy="6.28" rx="2.63" ry="2.6"/><ellipse class="cls-58" cx="28.43" cy="6.4" rx="2.63" ry="2.6"/><ellipse class="cls-59" cx="28.58" cy="6.53" rx="2.63" ry="2.6"/><ellipse class="cls-60" cx="28.73" cy="6.65" rx="2.63" ry="2.6"/><ellipse class="cls-61" cx="28.87" cy="6.78" rx="2.63" ry="2.6"/><ellipse class="cls-62" cx="29.02" cy="6.91" rx="2.63" ry="2.6"/><ellipse class="cls-63" cx="29.16" cy="7.05" rx="2.63" ry="2.6"/><ellipse class="cls-64" cx="29.3" cy="7.18" rx="2.63" ry="2.6"/><ellipse class="cls-64" cx="29.44" cy="7.32" rx="2.63" ry="2.6"/><ellipse class="cls-65" cx="29.58" cy="7.45" rx="2.63" ry="2.6"/><ellipse class="cls-66" cx="29.71" cy="7.59" rx="2.63" ry="2.6"/><ellipse class="cls-67" cx="29.85" cy="7.73" rx="2.63" ry="2.6"/><ellipse class="cls-68" cx="29.98" cy="7.88" rx="2.63" ry="2.6"/><ellipse class="cls-69" cx="30.11" cy="8.02" rx="2.63" ry="2.6"/><ellipse class="cls-70" cx="30.24" cy="8.16" rx="2.63" ry="2.6"/><ellipse class="cls-71" cx="30.37" cy="8.31" rx="2.63" ry="2.6"/><ellipse class="cls-72" cx="30.49" cy="8.46" rx="2.63" ry="2.6"/><ellipse class="cls-73" cx="30.62" cy="8.61" rx="2.63" ry="2.6"/><ellipse class="cls-74" cx="30.74" cy="8.76" rx="2.63" ry="2.6"/><ellipse class="cls-75" cx="30.86" cy="8.91" rx="2.63" ry="2.6"/><ellipse class="cls-76" cx="30.98" cy="9.07" rx="2.63" ry="2.6"/><ellipse class="cls-77" cx="31.09" cy="9.22" rx="2.63" ry="2.6"/><ellipse class="cls-78" cx="31.21" cy="9.38" rx="2.63" ry="2.6"/><ellipse class="cls-79" cx="31.32" cy="9.54" rx="2.63" ry="2.6"/><ellipse class="cls-80" cx="31.43" cy="9.7" rx="2.63" ry="2.6"/><ellipse class="cls-81" cx="31.54" cy="9.86" rx="2.63" ry="2.6"/><ellipse class="cls-82" cx="31.65" cy="10.02" rx="2.63" ry="2.6"/><ellipse class="cls-83" cx="31.75" cy="10.19" rx="2.63" ry="2.6"/><ellipse class="cls-84" cx="31.86" cy="10.35" rx="2.63" ry="2.6"/><ellipse class="cls-85" cx="31.96" cy="10.52" rx="2.63" ry="2.6"/><ellipse class="cls-86" cx="32.06" cy="10.69" rx="2.63" ry="2.6"/><ellipse class="cls-87" cx="32.15" cy="10.86" rx="2.63" ry="2.6"/><ellipse class="cls-88" cx="32.25" cy="11.03" rx="2.63" ry="2.6"/><ellipse class="cls-89" cx="32.34" cy="11.2" rx="2.63" ry="2.6"/><ellipse class="cls-90" cx="32.43" cy="11.37" rx="2.63" ry="2.6"/><ellipse class="cls-91" cx="32.52" cy="11.55" rx="2.63" ry="2.6"/><ellipse class="cls-92" cx="32.61" cy="11.72" rx="2.63" ry="2.6"/><ellipse class="cls-93" cx="32.7" cy="11.9" rx="2.63" ry="2.6"/><ellipse class="cls-94" cx="32.78" cy="12.08" rx="2.63" ry="2.6"/><ellipse class="cls-95" cx="32.86" cy="12.26" rx="2.63" ry="2.6"/><ellipse class="cls-96" cx="32.94" cy="12.44" rx="2.63" ry="2.6"/><ellipse class="cls-97" cx="33.01" cy="12.62" rx="2.63" ry="2.6"/><ellipse class="cls-98" cx="33.09" cy="12.8" rx="2.63" ry="2.6"/><ellipse class="cls-99" cx="33.16" cy="12.98" rx="2.63" ry="2.6"/><ellipse class="cls-100" cx="33.23" cy="13.17" rx="2.63" ry="2.6"/><ellipse class="cls-101" cx="33.3" cy="13.35" rx="2.63" ry="2.6"/><ellipse class="cls-102" cx="33.36" cy="13.54" rx="2.63" ry="2.6"/><ellipse class="cls-103" cx="33.43" cy="13.73" rx="2.63" ry="2.6"/><ellipse class="cls-104" cx="33.49" cy="13.92" rx="2.63" ry="2.6"/><ellipse class="cls-105" cx="33.54" cy="14.11" rx="2.63" ry="2.6"/><ellipse class="cls-106" cx="33.6" cy="14.3" rx="2.63" ry="2.6"/><ellipse class="cls-107" cx="33.65" cy="14.49" rx="2.63" ry="2.6"/><ellipse class="cls-108" cx="33.71" cy="14.68" rx="2.63" ry="2.6"/><ellipse class="cls-109" cx="33.75" cy="14.88" rx="2.63" ry="2.6"/><ellipse class="cls-110" cx="33.8" cy="15.07" rx="2.63" ry="2.6"/><ellipse class="cls-111" cx="33.85" cy="15.27" rx="2.63" ry="2.6"/><ellipse class="cls-112" cx="33.89" cy="15.46" rx="2.63" ry="2.6"/><ellipse class="cls-113" cx="33.93" cy="15.66" rx="2.63" ry="2.6"/><ellipse class="cls-114" cx="33.96" cy="15.86" rx="2.63" ry="2.6"/><ellipse class="cls-115" cx="34" cy="16.06" rx="2.63" ry="2.6"/><ellipse class="cls-116" cx="34.03" cy="16.25" rx="2.63" ry="2.6"/><ellipse class="cls-117" cx="34.06" cy="16.46" rx="2.63" ry="2.6"/><ellipse class="cls-118" cx="34.09" cy="16.66" rx="2.63" ry="2.6"/><ellipse class="cls-119" cx="34.11" cy="16.86" rx="2.63" ry="2.6"/><ellipse class="cls-120" cx="34.14" cy="17.06" rx="2.63" ry="2.6"/><ellipse class="cls-121" cx="34.16" cy="17.26" rx="2.63" ry="2.6"/><ellipse class="cls-122" cx="34.17" cy="17.47" rx="2.63" ry="2.6"/><ellipse class="cls-123" cx="34.19" cy="17.67" rx="2.63" ry="2.6"/><ellipse class="cls-124" cx="34.2" cy="17.88" rx="2.63" ry="2.6"/><ellipse class="cls-125" cx="34.21" cy="18.09" rx="2.63" ry="2.6"/><ellipse class="cls-126" cx="34.21" cy="18.29" rx="2.63" ry="2.6"/><ellipse class="cls-127" cx="34.22" cy="18.5" rx="2.63" ry="2.6"/><ellipse class="cls-128" cx="34.22" cy="18.71" rx="2.63" ry="2.6"/><ellipse class="cls-129" cx="34.22" cy="18.93" rx="2.63" ry="2.6"/><ellipse class="cls-130" cx="34.21" cy="19.14" rx="2.63" ry="2.6"/><ellipse class="cls-131" cx="34.21" cy="19.36" rx="2.63" ry="2.6"/><ellipse class="cls-132" cx="34.2" cy="19.57" rx="2.63" ry="2.6"/><ellipse class="cls-133" cx="34.18" cy="19.79" rx="2.63" ry="2.6"/><ellipse class="cls-134" cx="34.17" cy="20" rx="2.63" ry="2.6"/><ellipse class="cls-135" cx="34.15" cy="20.21" rx="2.63" ry="2.6"/><ellipse class="cls-136" cx="34.13" cy="20.42" rx="2.63" ry="2.6"/><ellipse class="cls-137" cx="34.1" cy="20.63" rx="2.63" ry="2.6"/><ellipse class="cls-138" cx="34.08" cy="20.84" rx="2.63" ry="2.6"/><ellipse class="cls-139" cx="34.05" cy="21.05" rx="2.63" ry="2.6"/><ellipse class="cls-140" cx="34.02" cy="21.26" rx="2.63" ry="2.6"/><ellipse class="cls-141" cx="33.98" cy="21.47" rx="2.63" ry="2.6"/><ellipse class="cls-142" cx="33.94" cy="21.67" rx="2.63" ry="2.6"/><ellipse class="cls-143" cx="33.9" cy="21.88" rx="2.63" ry="2.6"/><ellipse class="cls-144" cx="33.86" cy="22.08" rx="2.63" ry="2.6"/><ellipse class="cls-145" cx="33.82" cy="22.29" rx="2.63" ry="2.6"/><ellipse class="cls-146" cx="33.77" cy="22.49" rx="2.63" ry="2.6"/><ellipse class="cls-147" cx="33.72" cy="22.69" rx="2.63" ry="2.6"/><ellipse class="cls-148" cx="33.66" cy="22.89" rx="2.63" ry="2.6"/><ellipse class="cls-149" cx="33.61" cy="23.09" rx="2.63" ry="2.6"/><ellipse class="cls-150" cx="33.55" cy="23.29" rx="2.63" ry="2.6"/><ellipse class="cls-151" cx="33.49" cy="23.49" rx="2.63" ry="2.6"/><ellipse class="cls-152" cx="33.43" cy="23.68" rx="2.63" ry="2.6"/><ellipse class="cls-153" cx="33.36" cy="23.88" rx="2.63" ry="2.6"/><ellipse class="cls-154" cx="33.29" cy="24.07" rx="2.63" ry="2.6"/><ellipse class="cls-155" cx="33.22" cy="24.27" rx="2.63" ry="2.6"/><ellipse class="cls-156" cx="33.15" cy="24.46" rx="2.63" ry="2.6"/><ellipse class="cls-157" cx="33.07" cy="24.65" rx="2.63" ry="2.6"/><ellipse class="cls-158" cx="33" cy="24.84" rx="2.63" ry="2.6"/><ellipse class="cls-159" cx="32.92" cy="25.03" rx="2.63" ry="2.6"/><ellipse class="cls-160" cx="32.83" cy="25.21" rx="2.63" ry="2.6"/><ellipse class="cls-161" cx="32.75" cy="25.4" rx="2.63" ry="2.6"/><ellipse class="cls-162" cx="32.66" cy="25.58" rx="2.63" ry="2.6"/><ellipse class="cls-163" cx="32.57" cy="25.77" rx="2.63" ry="2.6"/><ellipse class="cls-164" cx="32.48" cy="25.95" rx="2.63" ry="2.6"/><ellipse class="cls-165" cx="32.39" cy="26.13" rx="2.63" ry="2.6"/><ellipse class="cls-166" cx="32.29" cy="26.31" rx="2.63" ry="2.6"/><ellipse class="cls-167" cx="32.19" cy="26.49" rx="2.63" ry="2.6"/><ellipse class="cls-168" cx="32.09" cy="26.67" rx="2.63" ry="2.6"/><ellipse class="cls-169" cx="31.99" cy="26.84" rx="2.63" ry="2.6"/><ellipse class="cls-170" cx="31.89" cy="27.01" rx="2.63" ry="2.6"/><ellipse class="cls-171" cx="31.78" cy="27.19" rx="2.63" ry="2.6"/><ellipse class="cls-172" cx="31.67" cy="27.36" rx="2.63" ry="2.6"/><ellipse class="cls-173" cx="31.56" cy="27.53" rx="2.63" ry="2.6"/><ellipse class="cls-174" cx="31.45" cy="27.7" rx="2.63" ry="2.6"/><ellipse class="cls-175" cx="31.33" cy="27.86" rx="2.63" ry="2.6"/><ellipse class="cls-176" cx="31.21" cy="28.03" rx="2.63" ry="2.6"/><ellipse class="cls-177" cx="31.09" cy="28.19" rx="2.63" ry="2.6"/><ellipse class="cls-178" cx="30.97" cy="28.35" rx="2.63" ry="2.6"/><ellipse class="cls-179" cx="30.85" cy="28.51" rx="2.63" ry="2.6"/><ellipse class="cls-180" cx="30.72" cy="28.67" rx="2.63" ry="2.6"/><ellipse class="cls-181" cx="30.6" cy="28.83" rx="2.63" ry="2.6"/><ellipse class="cls-182" cx="30.47" cy="28.99" rx="2.63" ry="2.6"/><ellipse class="cls-183" cx="30.34" cy="29.14" rx="2.63" ry="2.6"/><ellipse class="cls-184" cx="30.2" cy="29.29" rx="2.63" ry="2.6"/><ellipse class="cls-185" cx="30.07" cy="29.44" rx="2.63" ry="2.6"/><ellipse class="cls-186" cx="29.93" cy="29.59" rx="2.63" ry="2.6"/><ellipse class="cls-187" cx="29.79" cy="29.74" rx="2.63" ry="2.6"/><ellipse class="cls-188" cx="29.65" cy="29.89" rx="2.63" ry="2.6"/><ellipse class="cls-189" cx="29.51" cy="30.03" rx="2.63" ry="2.6"/><ellipse class="cls-189" cx="29.37" cy="30.17" rx="2.63" ry="2.6"/><ellipse class="cls-190" cx="29.22" cy="30.31" rx="2.63" ry="2.6"/><ellipse class="cls-191" cx="29.07" cy="30.45" rx="2.63" ry="2.6"/><ellipse class="cls-192" cx="28.92" cy="30.59" rx="2.63" ry="2.6"/><ellipse class="cls-193" cx="28.77" cy="30.72" rx="2.63" ry="2.6"/><ellipse class="cls-194" cx="28.62" cy="30.86" rx="2.63" ry="2.6"/><ellipse class="cls-195" cx="28.47" cy="30.99" rx="2.63" ry="2.6"/><ellipse class="cls-196" cx="28.31" cy="31.12" rx="2.63" ry="2.6"/><ellipse class="cls-197" cx="28.15" cy="31.24" rx="2.63" ry="2.6"/><ellipse class="cls-198" cx="27.99" cy="31.37" rx="2.63" ry="2.6"/><ellipse class="cls-199" cx="27.83" cy="31.49" rx="2.63" ry="2.6"/><ellipse class="cls-200" cx="27.67" cy="31.62" rx="2.63" ry="2.6"/><ellipse class="cls-201" cx="27.5" cy="31.74" rx="2.63" ry="2.6"/><ellipse class="cls-202" cx="27.34" cy="31.85" rx="2.63" ry="2.6"/><ellipse class="cls-203" cx="27.17" cy="31.97" rx="2.63" ry="2.6"/><ellipse class="cls-204" cx="27" cy="32.08" rx="2.63" ry="2.6"/><ellipse class="cls-205" cx="26.83" cy="32.19" rx="2.63" ry="2.6"/><ellipse class="cls-206" cx="26.66" cy="32.3" rx="2.63" ry="2.6"/><ellipse class="cls-207" cx="26.49" cy="32.41" rx="2.63" ry="2.6"/><ellipse class="cls-208" cx="26.31" cy="32.52" rx="2.63" ry="2.6"/><ellipse class="cls-209" cx="26.14" cy="32.62" rx="2.63" ry="2.6"/><ellipse class="cls-210" cx="25.96" cy="32.72" rx="2.63" ry="2.6"/><ellipse class="cls-211" cx="25.78" cy="32.82" rx="2.63" ry="2.6"/><ellipse class="cls-212" cx="25.6" cy="32.92" rx="2.63" ry="2.6"/><ellipse class="cls-213" cx="25.42" cy="33.01" rx="2.63" ry="2.6"/><ellipse class="cls-214" cx="25.23" cy="33.11" rx="2.63" ry="2.6"/><ellipse class="cls-215" cx="25.05" cy="33.2" rx="2.63" ry="2.6"/><ellipse class="cls-216" cx="24.86" cy="33.28" rx="2.63" ry="2.6"/><ellipse class="cls-217" cx="24.68" cy="33.37" rx="2.63" ry="2.6"/><ellipse class="cls-218" cx="24.49" cy="33.45" rx="2.63" ry="2.6"/><ellipse class="cls-219" cx="24.3" cy="33.53" rx="2.63" ry="2.6"/><ellipse class="cls-220" cx="24.11" cy="33.61" rx="2.63" ry="2.6"/><ellipse class="cls-221" cx="23.92" cy="33.69" rx="2.63" ry="2.6"/><ellipse class="cls-222" cx="23.72" cy="33.76" rx="2.63" ry="2.6"/><ellipse class="cls-223" cx="23.53" cy="33.84" rx="2.63" ry="2.6"/><ellipse class="cls-224" cx="23.33" cy="33.91" rx="2.63" ry="2.6"/><ellipse class="cls-225" cx="23.14" cy="33.97" rx="2.63" ry="2.6"/><ellipse class="cls-226" cx="22.94" cy="34.04" rx="2.63" ry="2.6"/><ellipse class="cls-227" cx="22.74" cy="34.1" rx="2.63" ry="2.6"/><ellipse class="cls-228" cx="22.54" cy="34.16" rx="2.63" ry="2.6"/><ellipse class="cls-229" cx="22.34" cy="34.22" rx="2.63" ry="2.6"/><ellipse class="cls-230" cx="22.14" cy="34.27" rx="2.63" ry="2.6"/><ellipse class="cls-231" cx="21.93" cy="34.32" rx="2.63" ry="2.6"/><ellipse class="cls-232" cx="21.73" cy="34.37" rx="2.63" ry="2.6"/><ellipse class="cls-233" cx="21.52" cy="34.42" rx="2.63" ry="2.6"/><ellipse class="cls-234" cx="21.32" cy="34.47" rx="2.63" ry="2.6"/><ellipse class="cls-235" cx="21.11" cy="34.51" rx="2.63" ry="2.6"/><ellipse class="cls-236" cx="20.9" cy="34.55" rx="2.63" ry="2.6"/><ellipse class="cls-237" cx="20.69" cy="34.59" rx="2.63" ry="2.6"/><ellipse class="cls-238" cx="20.48" cy="34.62" rx="2.63" ry="2.6"/><ellipse class="cls-239" cx="20.27" cy="34.65" rx="2.63" ry="2.6"/><ellipse class="cls-240" cx="20.06" cy="34.68" rx="2.63" ry="2.6"/><ellipse class="cls-241" cx="19.85" cy="34.71" rx="2.63" ry="2.6"/><ellipse class="cls-242" cx="19.63" cy="34.73" rx="2.63" ry="2.6"/><ellipse class="cls-243" cx="19.42" cy="34.75" rx="2.63" ry="2.6"/><ellipse class="cls-244" cx="19.2" cy="34.77" rx="2.63" ry="2.6"/><ellipse class="cls-245" cx="18.99" cy="34.79" rx="2.63" ry="2.6"/><ellipse class="cls-246" cx="18.77" cy="34.8" rx="2.63" ry="2.6"/><ellipse class="cls-247" cx="18.55" cy="34.81" rx="2.63" ry="2.6"/><ellipse class="cls-248" cx="18.34" cy="34.81" rx="2.63" ry="2.6"/><ellipse class="cls-249" cx="18.12" cy="34.82" rx="2.63" ry="2.6"/><ellipse class="cls-250" cx="17.9" cy="34.82" rx="2.63" ry="2.6"/><ellipse class="cls-251" cx="17.47" cy="34.82" rx="2.63" ry="2.6"/><ellipse class="cls-252" cx="17.05" cy="34.8" rx="2.63" ry="2.6"/><ellipse class="cls-253" cx="16.63" cy="34.77" rx="2.63" ry="2.6"/><ellipse class="cls-254" cx="16.21" cy="34.74" rx="2.63" ry="2.6"/><ellipse class="cls-255" cx="15.8" cy="34.69" rx="2.63" ry="2.6"/><ellipse class="cls-256" cx="15.39" cy="34.63" rx="2.63" ry="2.6"/><ellipse class="cls-257" cx="14.98" cy="34.56" rx="2.63" ry="2.6"/><ellipse class="cls-258" cx="14.57" cy="34.49" rx="2.63" ry="2.6"/><ellipse class="cls-259" cx="14.17" cy="34.4" rx="2.63" ry="2.6"/><ellipse class="cls-260" cx="13.78" cy="34.3" rx="2.63" ry="2.6"/><ellipse class="cls-261" cx="13.38" cy="34.2" rx="2.63" ry="2.6"/><ellipse class="cls-262" cx="12.99" cy="34.08" rx="2.63" ry="2.6"/><ellipse class="cls-263" cx="12.61" cy="33.96" rx="2.63" ry="2.6"/><ellipse class="cls-264" cx="12.23" cy="33.82" rx="2.63" ry="2.6"/><ellipse class="cls-265" cx="11.85" cy="33.68" rx="2.63" ry="2.6"/><ellipse class="cls-266" cx="11.48" cy="33.53" rx="2.63" ry="2.6"/><ellipse class="cls-267" cx="11.11" cy="33.37" rx="2.63" ry="2.6"/><ellipse class="cls-268" cx="10.75" cy="33.2" rx="2.63" ry="2.6"/><ellipse class="cls-269" cx="10.39" cy="33.02" rx="2.63" ry="2.6"/><ellipse class="cls-270" cx="10.04" cy="32.83" rx="2.63" ry="2.6"/><ellipse class="cls-271" cx="9.69" cy="32.64" rx="2.63" ry="2.6"/><ellipse class="cls-272" cx="9.35" cy="32.44" rx="2.63" ry="2.6"/><ellipse class="cls-273" cx="9.02" cy="32.23" rx="2.63" ry="2.6"/><ellipse class="cls-274" cx="8.69" cy="32.01" rx="2.63" ry="2.6"/><ellipse class="cls-275" cx="8.36" cy="31.79" rx="2.63" ry="2.6"/><ellipse class="cls-276" cx="8.04" cy="31.55" rx="2.63" ry="2.6"/><ellipse class="cls-277" cx="7.73" cy="31.31" rx="2.63" ry="2.6"/><ellipse class="cls-278" cx="7.42" cy="31.07" rx="2.63" ry="2.6"/><ellipse class="cls-279" cx="7.12" cy="30.81" rx="2.63" ry="2.6"/><ellipse class="cls-280" cx="6.83" cy="30.55" rx="2.63" ry="2.6"/><ellipse class="cls-281" cx="6.54" cy="30.28" rx="2.63" ry="2.6"/><ellipse class="cls-282" cx="6.26" cy="30" rx="2.63" ry="2.6"/><ellipse class="cls-283" cx="5.99" cy="29.72" rx="2.63" ry="2.6"/><ellipse class="cls-284" cx="5.72" cy="29.43" rx="2.63" ry="2.6"/><ellipse class="cls-285" cx="5.46" cy="29.14" rx="2.63" ry="2.6"/><ellipse class="cls-286" cx="5.2" cy="28.84" rx="2.63" ry="2.6"/><ellipse class="cls-287" cx="4.96" cy="28.53" rx="2.63" ry="2.6"/><ellipse class="cls-288" cx="4.72" cy="28.22" rx="2.63" ry="2.6"/><ellipse class="cls-289" cx="4.49" cy="27.9" rx="2.63" ry="2.6"/><ellipse class="cls-290" cx="4.27" cy="27.57" rx="2.63" ry="2.6"/><ellipse class="cls-291" cx="4.05" cy="27.24" rx="2.63" ry="2.6"/><ellipse class="cls-292" cx="3.85" cy="26.91" rx="2.63" ry="2.6"/><ellipse class="cls-293" cx="3.65" cy="26.57" rx="2.63" ry="2.6"/><ellipse class="cls-294" cx="3.46" cy="26.22" rx="2.63" ry="2.6"/><ellipse class="cls-295" cx="3.27" cy="25.87" rx="2.63" ry="2.6"/><ellipse class="cls-296" cx="3.1" cy="25.51" rx="2.63" ry="2.6"/><ellipse class="cls-297" cx="2.93" cy="25.15" rx="2.63" ry="2.6"/><ellipse class="cls-298" cx="2.78" cy="24.79" rx="2.63" ry="2.6"/><ellipse class="cls-299" cx="2.63" cy="24.42" rx="2.63" ry="2.6"/></g></g></svg>