<svg xmlns="http://www.w3.org/2000/svg" viewBox="0 0 40.09 38.79"><defs><style>.cls-1{fill:#fff;}.cls-2{fill:#fffefe;}.cls-3{fill:#fffdfd;}.cls-4{fill:#fffcfc;}.cls-5{fill:#fffbfb;}.cls-6{fill:snow;}.cls-7{fill:#fff9f9;}.cls-8{fill:#fff8f8;}.cls-9{fill:#fef7f7;}.cls-10{fill:#fef6f6;}.cls-11{fill:#fef5f5;}.cls-12{fill:#fef4f4;}.cls-13{fill:#fef3f3;}.cls-14{fill:#fef2f3;}.cls-15{fill:#fef1f2;}.cls-16{fill:#fef0f1;}.cls-17{fill:#feeff0;}.cls-18{fill:#feeeef;}.cls-19{fill:#feedee;}.cls-20{fill:#feeced;}.cls-21{fill:#feebec;}.cls-22{fill:#feeaeb;}.cls-23{fill:#fde9ea;}.cls-24{fill:#fde8e9;}.cls-25{fill:#fde7e8;}.cls-26{fill:#fde6e7;}.cls-27{fill:#fde5e6;}.cls-28{fill:#fde4e5;}.cls-29{fill:#fde3e4;}.cls-30{fill:#fde2e3;}.cls-31{fill:#fde1e2;}.cls-32{fill:#fde0e1;}.cls-33{fill:#fddfe0;}.cls-34{fill:#fddedf;}.cls-35{fill:#fdddde;}.cls-36{fill:#fddcdd;}.cls-37{fill:#fcdbdc;}.cls-38{fill:#fcdadb;}.cls-39{fill:#fcd9da;}.cls-40{fill:#fcd8da;}.cls-41{fill:#fcd7d9;}.cls-42{fill:#fcd6d8;}.cls-43{fill:#fcd5d7;}.cls-44{fill:#fcd4d6;}.cls-45{fill:#fcd3d5;}.cls-46{fill:#fcd2d4;}.cls-47{fill:#fcd1d3;}.cls-48{fill:#fcd0d2;}.cls-49{fill:#fccfd1;}.cls-50{fill:#fcced0;}.cls-51{fill:#fbcdcf;}.cls-52{fill:#fbccce;}.cls-53{fill:#fbcbcd;}.cls-54{fill:#fbcacc;}.cls-55{fill:#fbc9cb;}.cls-56{fill:#fbc8ca;}.cls-57{fill:#fbc7c9;}.cls-58{fill:#fbc6c8;}.cls-59{fill:#fbc5c7;}.cls-60{fill:#fbc4c6;}.cls-61{fill:#fbc3c5;}.cls-62{fill:#fbc2c4;}.cls-63{fill:#fbc1c3;}.cls-64{fill:#fbc0c2;}.cls-65{fill:#fabfc1;}.cls-66{fill:#fabec0;}.cls-67{fill:#fabdbf;}.cls-68{fill:#fabcbe;}.cls-69{fill:#fabbbd;}.cls-70{fill:#fababc;}.cls-71{fill:#fab9bb;}.cls-72{fill:#fab8ba;}.cls-73{fill:#fab7b9;}.cls-74{fill:#fab6b8;}.cls-75{fill:#fab5b7;}.cls-76{fill:#fab4b6;}.cls-77{fill:#fab3b5;}.cls-78{fill:#fab2b4;}.cls-79{fill:#f9b1b3;}.cls-80{fill:#f9b0b2;}.cls-81{fill:#f9afb1;}.cls-82{fill:#f9aeb0;}.cls-83{fill:#f9adaf;}.cls-84{fill:#f9acae;}.cls-85{fill:#f9abad;}.cls-86{fill:#f9aaac;}.cls-87{fill:#f9a9ab;}.cls-88{fill:#f9a8aa;}.cls-89{fill:#f9a7a9;}.cls-90{fill:#f9a6a9;}.cls-91{fill:#f9a5a8;}.cls-92{fill:#f9a4a7;}.cls-93{fill:#f8a3a6;}.cls-94{fill:#f8a2a5;}.cls-95{fill:#f8a1a4;}.cls-96{fill:#f8a0a3;}.cls-97{fill:#f89fa2;}.cls-98{fill:#f89ea1;}.cls-99{fill:#f89da0;}.cls-100{fill:#f89c9f;}.cls-101{fill:#f89b9e;}.cls-102{fill:#f89a9d;}.cls-103{fill:#f8999c;}.cls-104{fill:#f8989b;}.cls-105{fill:#f8979a;}.cls-106{fill:#f89699;}.cls-107{fill:#f79598;}.cls-108{fill:#f79497;}.cls-109{fill:#f79396;}.cls-110{fill:#f79295;}.cls-111{fill:#f79194;}.cls-112{fill:#f79093;}.cls-113{fill:#f78f92;}.cls-114{fill:#f78e91;}.cls-115{fill:#f78d90;}.cls-116{fill:#f78c90;}.cls-117{fill:#f78b8f;}.cls-118{fill:#f78a8e;}.cls-119{fill:#f7898d;}.cls-120{fill:#f7888c;}.cls-121{fill:#f6878b;}.cls-122{fill:#f6868a;}.cls-123{fill:#f68589;}.cls-124{fill:#f68488;}.cls-125{fill:#f68387;}.cls-126{fill:#f68286;}.cls-127{fill:#f68185;}.cls-128{fill:#f68084;}.cls-129{fill:#f58185;}.cls-130{fill:#f58186;}.cls-131{fill:#f48287;}.cls-132{fill:#f38288;}.cls-133{fill:#f38389;}.cls-134{fill:#f2838a;}.cls-135{fill:#f1848b;}.cls-136{fill:#f1848c;}.cls-137{fill:#f0858d;}.cls-138{fill:#ef858e;}.cls-139{fill:#ef868f;}.cls-140{fill:#ee8690;}.cls-141{fill:#ee8791;}.cls-142{fill:#ed8792;}.cls-143{fill:#ec8893;}.cls-144{fill:#ec8894;}.cls-145{fill:#eb8995;}.cls-146{fill:#ea8996;}.cls-147{fill:#ea8a97;}.cls-148{fill:#e98a98;}.cls-149{fill:#e88b99;}.cls-150{fill:#e88b9a;}.cls-151{fill:#e78c9b;}.cls-152{fill:#e68c9c;}.cls-153{fill:#e68d9d;}.cls-154{fill:#e58e9e;}.cls-155{fill:#e48e9f;}.cls-156{fill:#e48fa0;}.cls-157{fill:#e38fa1;}.cls-158{fill:#e290a2;}.cls-159{fill:#e290a3;}.cls-160{fill:#e191a4;}.cls-161{fill:#e191a5;}.cls-162{fill:#e092a6;}.cls-163{fill:#df92a7;}.cls-164{fill:#df93a8;}.cls-165{fill:#de93a9;}.cls-166{fill:#dd94aa;}.cls-167{fill:#dd94ab;}.cls-168{fill:#dc95ac;}.cls-169{fill:#db95ad;}.cls-170{fill:#db96ae;}.cls-171{fill:#da96af;}.cls-172{fill:#d997b0;}.cls-173{fill:#d997b1;}.cls-174{fill:#d898b2;}.cls-175{fill:#d798b3;}.cls-176{fill:#d799b4;}.cls-177{fill:#d699b5;}.cls-178{fill:#d59ab6;}.cls-179{fill:#d59bb7;}.cls-180{fill:#d49bb8;}.cls-181{fill:#d49cb9;}.cls-182{fill:#d39cba;}.cls-183{fill:#d29dbb;}.cls-184{fill:#d29dbc;}.cls-185{fill:#d19ebd;}.cls-186{fill:#d09ebe;}.cls-187{fill:#d09fbf;}.cls-188{fill:#cf9fc0;}.cls-189{fill:#cea0c1;}.cls-190{fill:#cda1c2;}.cls-191{fill:#cca1c3;}.cls-192{fill:#cca2c4;}.cls-193{fill:#cba2c5;}.cls-194{fill:#caa3c6;}.cls-195{fill:#caa3c7;}.cls-196{fill:#c9a4c8;}.cls-197{fill:#c8a4c9;}.cls-198{fill:#c8a5ca;}.cls-199{fill:#c7a5cb;}.cls-200{fill:#c7a6cc;}.cls-201{fill:#c6a7cd;}.cls-202{fill:#c5a7ce;}.cls-203{fill:#c5a8cf;}.cls-204{fill:#c4a8d0;}.cls-205{fill:#c3a9d1;}.cls-206{fill:#c3a9d2;}.cls-207{fill:#c2aad3;}.cls-208{fill:#c1aad4;}.cls-209{fill:#c1abd5;}.cls-210{fill:#c0abd6;}.cls-211{fill:#bfacd7;}.cls-212{fill:#bfacd8;}.cls-213{fill:#beadd9;}.cls-214{fill:#bdadda;}.cls-215{fill:#bdaedb;}.cls-216{fill:#bcaedc;}.cls-217{fill:#bbafdd;}.cls-218{fill:#bbafde;}.cls-219{fill:#bab0df;}.cls-220{fill:#bab0e0;}.cls-221{fill:#b9b1e1;}.cls-222{fill:#b8b1e2;}.cls-223{fill:#b8b2e3;}.cls-224{fill:#b7b2e4;}.cls-225{fill:#b6b3e5;}.cls-226{fill:#b6b4e6;}.cls-227{fill:#b5b4e7;}.cls-228{fill:#b4b5e8;}.cls-229{fill:#b4b5e9;}.cls-230{fill:#b3b6ea;}.cls-231{fill:#b2b6eb;}.cls-232{fill:#b2b7ec;}.cls-233{fill:#b1b7ed;}.cls-234{fill:#b0b8ee;}.cls-235{fill:#b0b8ef;}.cls-236{fill:#afb9f0;}.cls-237{fill:#aeb9f1;}.cls-238{fill:#aebaf2;}.cls-239{fill:#adbaf3;}.cls-240{fill:#adbbf4;}.cls-241{fill:#acbbf5;}.cls-242{fill:#abbcf6;}.cls-243{fill:#abbcf7;}.cls-244{fill:#aabdf8;}.cls-245{fill:#a9bdf9;}.cls-246{fill:#a9befa;}.cls-247{fill:#a8befb;}.cls-248{fill:#a7bffc;}.cls-249{fill:#a7bffd;}.cls-250{fill:#a6c0fe;}.cls-251{fill:#a6bffd;}.cls-252{fill:#a5befd;}.cls-253{fill:#a5bdfc;}.cls-254{fill:#a5bcfc;}.cls-255{fill:#a5bbfb;}.cls-256{fill:#a4bafb;}.cls-257{fill:#a4b9fa;}.cls-258{fill:#a4b8fa;}.cls-259{fill:#a3b7f9;}.cls-260{fill:#a3b6f8;}.cls-261{fill:#a3b5f8;}.cls-262{fill:#a3b4f7;}.cls-263{fill:#a2b3f7;}.cls-264{fill:#a2b2f6;}.cls-265{fill:#a2b1f6;}.cls-266{fill:#a1b0f5;}.cls-267{fill:#a1aff5;}.cls-268{fill:#a1aef4;}.cls-269{fill:#a1adf4;}.cls-270{fill:#a0acf3;}.cls-271{fill:#a0abf2;}.cls-272{fill:#a0aaf2;}.cls-273{fill:#9fa9f1;}.cls-274{fill:#9fa8f1;}.cls-275{fill:#9fa8f0;}.cls-276{fill:#9fa7f0;}.cls-277{fill:#9ea6ef;}.cls-278{fill:#9ea5ef;}.cls-279{fill:#9ea4ee;}.cls-280{fill:#9da3ed;}.cls-281{fill:#9da2ed;}.cls-282{fill:#9da1ec;}.cls-283{fill:#9da0ec;}.cls-284{fill:#9c9feb;}.cls-285{fill:#9c9eeb;}.cls-286{fill:#9c9dea;}.cls-287{fill:#9b9cea;}.cls-288{fill:#9b9be9;}.cls-289{fill:#9b9ae9;}.cls-290{fill:#9b99e8;}.cls-291{fill:#9a98e7;}.cls-292{fill:#9a97e7;}.cls-293{fill:#9a96e6;}.cls-294{fill:#9995e6;}.cls-295{fill:#9994e5;}.cls-296{fill:#9993e5;}.cls-297{fill:#9992e4;}.cls-298{fill:#9891e4;}.cls-299{fill:#9890e3;}</style></defs><title>num3_2</title><g id="圖層_2" data-name="圖層 2"><g id="圖層_1-2" data-name="圖層 1"><ellipse class="cls-1" cx="20.05" cy="2.69" rx="2.78" ry="2.69"/><ellipse class="cls-2" cx="20.3" cy="2.69" rx="2.78" ry="2.69"/><ellipse class="cls-3" cx="20.56" cy="2.7" rx="2.78" ry="2.69"/><ellipse class="cls-4" cx="20.81" cy="2.71" rx="2.78" ry="2.69"/><ellipse class="cls-5" cx="21.06" cy="2.72" rx="2.78" ry="2.69"/><ellipse class="cls-6" cx="21.32" cy="2.74" rx="2.78" ry="2.69"/><ellipse class="cls-7" cx="21.57" cy="2.76" rx="2.78" ry="2.69"/><ellipse class="cls-8" cx="21.82" cy="2.78" rx="2.78" ry="2.69"/><ellipse class="cls-9" cx="22.07" cy="2.81" rx="2.78" ry="2.69"/><ellipse class="cls-10" cx="22.32" cy="2.83" rx="2.78" ry="2.69"/><ellipse class="cls-11" cx="22.56" cy="2.87" rx="2.78" ry="2.69"/><ellipse class="cls-12" cx="22.81" cy="2.9" rx="2.78" ry="2.69"/><ellipse class="cls-13" cx="23.05" cy="2.94" rx="2.78" ry="2.69"/><ellipse class="cls-14" cx="23.3" cy="2.99" rx="2.78" ry="2.69"/><ellipse class="cls-15" cx="23.54" cy="3.03" rx="2.78" ry="2.69"/><ellipse class="cls-16" cx="23.78" cy="3.08" rx="2.78" ry="2.69"/><ellipse class="cls-17" cx="24.02" cy="3.14" rx="2.78" ry="2.69"/><ellipse class="cls-18" cx="24.26" cy="3.19" rx="2.78" ry="2.69"/><ellipse class="cls-19" cx="24.5" cy="3.25" rx="2.78" ry="2.69"/><ellipse class="cls-20" cx="24.73" cy="3.31" rx="2.78" ry="2.69"/><ellipse class="cls-21" cx="24.97" cy="3.38" rx="2.78" ry="2.69"/><ellipse class="cls-22" cx="25.2" cy="3.45" rx="2.78" ry="2.69"/><ellipse class="cls-23" cx="25.43" cy="3.52" rx="2.78" ry="2.69"/><ellipse class="cls-24" cx="25.66" cy="3.59" rx="2.78" ry="2.69"/><ellipse class="cls-25" cx="25.89" cy="3.67" rx="2.78" ry="2.69"/><ellipse class="cls-26" cx="26.12" cy="3.75" rx="2.78" ry="2.69"/><ellipse class="cls-27" cx="26.34" cy="3.84" rx="2.78" ry="2.69"/><ellipse class="cls-28" cx="26.57" cy="3.92" rx="2.78" ry="2.69"/><ellipse class="cls-29" cx="26.79" cy="4.01" rx="2.78" ry="2.69"/><ellipse class="cls-30" cx="27.01" cy="4.11" rx="2.78" ry="2.69"/><ellipse class="cls-31" cx="27.23" cy="4.2" rx="2.78" ry="2.69"/><ellipse class="cls-32" cx="27.45" cy="4.3" rx="2.78" ry="2.69"/><ellipse class="cls-33" cx="27.67" cy="4.4" rx="2.78" ry="2.69"/><ellipse class="cls-34" cx="27.88" cy="4.51" rx="2.78" ry="2.69"/><ellipse class="cls-35" cx="28.09" cy="4.61" rx="2.78" ry="2.69"/><ellipse class="cls-36" cx="28.3" cy="4.72" rx="2.78" ry="2.69"/><ellipse class="cls-37" cx="28.51" cy="4.83" rx="2.78" ry="2.69"/><ellipse class="cls-38" cx="28.72" cy="4.95" rx="2.78" ry="2.69"/><ellipse class="cls-39" cx="28.93" cy="5.07" rx="2.78" ry="2.69"/><ellipse class="cls-40" cx="29.13" cy="5.19" rx="2.78" ry="2.69"/><ellipse class="cls-41" cx="29.33" cy="5.31" rx="2.78" ry="2.69"/><ellipse class="cls-42" cx="29.53" cy="5.44" rx="2.78" ry="2.69"/><ellipse class="cls-43" cx="29.73" cy="5.57" rx="2.78" ry="2.69"/><ellipse class="cls-44" cx="29.93" cy="5.7" rx="2.78" ry="2.69"/><ellipse class="cls-45" cx="30.12" cy="5.83" rx="2.78" ry="2.69"/><ellipse class="cls-46" cx="30.31" cy="5.97" rx="2.78" ry="2.69"/><ellipse class="cls-47" cx="30.5" cy="6.1" rx="2.78" ry="2.69"/><ellipse class="cls-48" cx="30.69" cy="6.24" rx="2.78" ry="2.69"/><ellipse class="cls-49" cx="30.88" cy="6.39" rx="2.78" ry="2.69"/><ellipse class="cls-50" cx="31.06" cy="6.53" rx="2.78" ry="2.69"/><ellipse class="cls-51" cx="31.24" cy="6.68" rx="2.78" ry="2.69"/><ellipse class="cls-52" cx="31.42" cy="6.83" rx="2.78" ry="2.69"/><ellipse class="cls-53" cx="31.6" cy="6.98" rx="2.78" ry="2.69"/><ellipse class="cls-54" cx="31.78" cy="7.14" rx="2.78" ry="2.69"/><ellipse class="cls-55" cx="31.95" cy="7.3" rx="2.78" ry="2.69"/><ellipse class="cls-56" cx="32.12" cy="7.46" rx="2.78" ry="2.69"/><ellipse class="cls-57" cx="32.29" cy="7.62" rx="2.78" ry="2.69"/><ellipse class="cls-58" cx="32.46" cy="7.78" rx="2.78" ry="2.69"/><ellipse class="cls-59" cx="32.62" cy="7.95" rx="2.78" ry="2.69"/><ellipse class="cls-60" cx="32.78" cy="8.12" rx="2.78" ry="2.69"/><ellipse class="cls-61" cx="32.94" cy="8.29" rx="2.78" ry="2.69"/><ellipse class="cls-62" cx="33.1" cy="8.46" rx="2.78" ry="2.69"/><ellipse class="cls-63" cx="33.25" cy="8.64" rx="2.78" ry="2.69"/><ellipse class="cls-64" cx="33.4" cy="8.81" rx="2.78" ry="2.69"/><ellipse class="cls-64" cx="33.55" cy="8.99" rx="2.78" ry="2.69"/><ellipse class="cls-65" cx="33.7" cy="9.17" rx="2.78" ry="2.69"/><ellipse class="cls-66" cx="33.85" cy="9.36" rx="2.78" ry="2.69"/><ellipse class="cls-67" cx="33.99" cy="9.54" rx="2.78" ry="2.69"/><ellipse class="cls-68" cx="34.13" cy="9.73" rx="2.78" ry="2.69"/><ellipse class="cls-69" cx="34.26" cy="9.92" rx="2.78" ry="2.69"/><ellipse class="cls-70" cx="34.4" cy="10.11" rx="2.78" ry="2.69"/><ellipse class="cls-71" cx="34.53" cy="10.3" rx="2.78" ry="2.69"/><ellipse class="cls-72" cx="34.66" cy="10.49" rx="2.78" ry="2.69"/><ellipse class="cls-73" cx="34.78" cy="10.69" rx="2.78" ry="2.69"/><ellipse class="cls-74" cx="34.91" cy="10.89" rx="2.78" ry="2.69"/><ellipse class="cls-75" cx="35.03" cy="11.09" rx="2.78" ry="2.69"/><ellipse class="cls-76" cx="35.15" cy="11.29" rx="2.78" ry="2.69"/><ellipse class="cls-77" cx="35.26" cy="11.49" rx="2.78" ry="2.69"/><ellipse class="cls-78" cx="35.37" cy="11.7" rx="2.78" ry="2.69"/><ellipse class="cls-79" cx="35.48" cy="11.9" rx="2.78" ry="2.69"/><ellipse class="cls-80" cx="35.59" cy="12.11" rx="2.78" ry="2.69"/><ellipse class="cls-81" cx="35.69" cy="12.32" rx="2.78" ry="2.69"/><ellipse class="cls-82" cx="35.79" cy="12.53" rx="2.78" ry="2.69"/><ellipse class="cls-83" cx="35.89" cy="12.75" rx="2.78" ry="2.69"/><ellipse class="cls-84" cx="35.98" cy="12.96" rx="2.78" ry="2.69"/><ellipse class="cls-85" cx="36.08" cy="13.18" rx="2.78" ry="2.69"/><ellipse class="cls-86" cx="36.16" cy="13.4" rx="2.78" ry="2.69"/><ellipse class="cls-87" cx="36.25" cy="13.61" rx="2.78" ry="2.69"/><ellipse class="cls-88" cx="36.33" cy="13.84" rx="2.78" ry="2.69"/><ellipse class="cls-89" cx="36.41" cy="14.06" rx="2.78" ry="2.69"/><ellipse class="cls-90" cx="36.49" cy="14.28" rx="2.78" ry="2.69"/><ellipse class="cls-91" cx="36.56" cy="14.51" rx="2.78" ry="2.69"/><ellipse class="cls-92" cx="36.63" cy="14.73" rx="2.78" ry="2.69"/><ellipse class="cls-93" cx="36.7" cy="14.96" rx="2.78" ry="2.69"/><ellipse class="cls-94" cx="36.76" cy="15.19" rx="2.78" ry="2.69"/><ellipse class="cls-95" cx="36.82" cy="15.42" rx="2.78" ry="2.69"/><ellipse class="cls-96" cx="36.87" cy="15.65" rx="2.78" ry="2.69"/><ellipse class="cls-97" cx="36.93" cy="15.88" rx="2.78" ry="2.69"/><ellipse class="cls-98" cx="36.98" cy="16.12" rx="2.78" ry="2.69"/><ellipse class="cls-99" cx="37.02" cy="16.35" rx="2.78" ry="2.69"/><ellipse class="cls-100" cx="37.07" cy="16.59" rx="2.78" ry="2.69"/><ellipse class="cls-101" cx="37.11" cy="16.82" rx="2.78" ry="2.69"/><ellipse class="cls-102" cx="37.14" cy="17.06" rx="2.78" ry="2.69"/><ellipse class="cls-103" cx="37.18" cy="17.3" rx="2.78" ry="2.69"/><ellipse class="cls-104" cx="37.21" cy="17.54" rx="2.78" ry="2.69"/><ellipse class="cls-105" cx="37.23" cy="17.78" rx="2.78" ry="2.69"/><ellipse class="cls-106" cx="37.25" cy="18.03" rx="2.78" ry="2.69"/><ellipse class="cls-107" cx="37.27" cy="18.27" rx="2.78" ry="2.69"/><ellipse class="cls-108" cx="37.29" cy="18.51" rx="2.78" ry="2.69"/><ellipse class="cls-109" cx="37.3" cy="18.76" rx="2.78" ry="2.69"/><ellipse class="cls-110" cx="37.31" cy="19.01" rx="2.78" ry="2.69"/><ellipse class="cls-111" cx="37.31" cy="19.25" rx="2.78" ry="2.69"/><ellipse class="cls-112" cx="37.31" cy="19.5" rx="2.78" ry="2.69"/><ellipse class="cls-113" cx="37.31" cy="19.75" rx="2.78" ry="2.69"/><ellipse class="cls-114" cx="37.3" cy="19.99" rx="2.78" ry="2.69"/><ellipse class="cls-115" cx="37.29" cy="20.24" rx="2.78" ry="2.69"/><ellipse class="cls-116" cx="37.27" cy="20.48" rx="2.78" ry="2.69"/><ellipse class="cls-117" cx="37.26" cy="20.73" rx="2.78" ry="2.69"/><ellipse class="cls-118" cx="37.23" cy="20.97" rx="2.78" ry="2.69"/><ellipse class="cls-119" cx="37.21" cy="21.21" rx="2.78" ry="2.69"/><ellipse class="cls-120" cx="37.18" cy="21.45" rx="2.78" ry="2.69"/><ellipse class="cls-121" cx="37.15" cy="21.69" rx="2.78" ry="2.69"/><ellipse class="cls-122" cx="37.11" cy="21.93" rx="2.78" ry="2.69"/><ellipse class="cls-123" cx="37.07" cy="22.17" rx="2.78" ry="2.69"/><ellipse class="cls-124" cx="37.03" cy="22.4" rx="2.78" ry="2.69"/><ellipse class="cls-125" cx="36.98" cy="22.64" rx="2.78" ry="2.69"/><ellipse class="cls-126" cx="36.94" cy="22.87" rx="2.78" ry="2.69"/><ellipse class="cls-127" cx="36.88" cy="23.11" rx="2.78" ry="2.69"/><ellipse class="cls-128" cx="36.84" cy="23.28" rx="2.78" ry="2.69"/><ellipse class="cls-129" cx="36.77" cy="23.57" rx="2.78" ry="2.69"/><ellipse class="cls-130" cx="36.7" cy="23.8" rx="2.78" ry="2.69"/><ellipse class="cls-131" cx="36.64" cy="24.03" rx="2.78" ry="2.69"/><ellipse class="cls-132" cx="36.57" cy="24.26" rx="2.78" ry="2.69"/><ellipse class="cls-133" cx="36.49" cy="24.49" rx="2.78" ry="2.69"/><ellipse class="cls-134" cx="36.42" cy="24.72" rx="2.78" ry="2.69"/><ellipse class="cls-135" cx="36.34" cy="24.94" rx="2.78" ry="2.69"/><ellipse class="cls-136" cx="36.25" cy="25.16" rx="2.78" ry="2.69"/><ellipse class="cls-137" cx="36.17" cy="25.39" rx="2.78" ry="2.69"/><ellipse class="cls-138" cx="36.08" cy="25.61" rx="2.78" ry="2.69"/><ellipse class="cls-139" cx="35.98" cy="25.83" rx="2.78" ry="2.69"/><ellipse class="cls-140" cx="35.89" cy="26.04" rx="2.78" ry="2.69"/><ellipse class="cls-141" cx="35.79" cy="26.26" rx="2.78" ry="2.69"/><ellipse class="cls-142" cx="35.69" cy="26.47" rx="2.78" ry="2.69"/><ellipse class="cls-143" cx="35.58" cy="26.69" rx="2.78" ry="2.69"/><ellipse class="cls-144" cx="35.47" cy="26.9" rx="2.78" ry="2.69"/><ellipse class="cls-145" cx="35.36" cy="27.11" rx="2.78" ry="2.69"/><ellipse class="cls-146" cx="35.25" cy="27.31" rx="2.78" ry="2.69"/><ellipse class="cls-147" cx="35.13" cy="27.52" rx="2.78" ry="2.69"/><ellipse class="cls-148" cx="35.01" cy="27.72" rx="2.78" ry="2.69"/><ellipse class="cls-149" cx="34.89" cy="27.92" rx="2.78" ry="2.69"/><ellipse class="cls-150" cx="34.77" cy="28.12" rx="2.78" ry="2.69"/><ellipse class="cls-151" cx="34.64" cy="28.32" rx="2.78" ry="2.69"/><ellipse class="cls-152" cx="34.51" cy="28.52" rx="2.78" ry="2.69"/><ellipse class="cls-153" cx="34.37" cy="28.71" rx="2.78" ry="2.69"/><ellipse class="cls-154" cx="34.24" cy="28.91" rx="2.78" ry="2.69"/><ellipse class="cls-155" cx="34.1" cy="29.1" rx="2.78" ry="2.69"/><ellipse class="cls-156" cx="33.96" cy="29.29" rx="2.78" ry="2.69"/><ellipse class="cls-157" cx="33.81" cy="29.47" rx="2.78" ry="2.69"/><ellipse class="cls-158" cx="33.67" cy="29.66" rx="2.78" ry="2.69"/><ellipse class="cls-159" cx="33.52" cy="29.84" rx="2.78" ry="2.69"/><ellipse class="cls-160" cx="33.36" cy="30.02" rx="2.78" ry="2.69"/><ellipse class="cls-161" cx="33.21" cy="30.2" rx="2.78" ry="2.69"/><ellipse class="cls-162" cx="33.05" cy="30.38" rx="2.78" ry="2.69"/><ellipse class="cls-163" cx="32.89" cy="30.55" rx="2.78" ry="2.69"/><ellipse class="cls-164" cx="32.73" cy="30.72" rx="2.78" ry="2.69"/><ellipse class="cls-165" cx="32.57" cy="30.89" rx="2.78" ry="2.69"/><ellipse class="cls-166" cx="32.4" cy="31.06" rx="2.78" ry="2.69"/><ellipse class="cls-167" cx="32.23" cy="31.23" rx="2.78" ry="2.69"/><ellipse class="cls-168" cx="32.06" cy="31.39" rx="2.78" ry="2.69"/><ellipse class="cls-169" cx="31.88" cy="31.55" rx="2.78" ry="2.69"/><ellipse class="cls-170" cx="31.71" cy="31.71" rx="2.78" ry="2.69"/><ellipse class="cls-171" cx="31.53" cy="31.87" rx="2.78" ry="2.69"/><ellipse class="cls-172" cx="31.35" cy="32.02" rx="2.78" ry="2.69"/><ellipse class="cls-173" cx="31.17" cy="32.17" rx="2.78" ry="2.69"/><ellipse class="cls-174" cx="30.98" cy="32.32" rx="2.78" ry="2.69"/><ellipse class="cls-175" cx="30.79" cy="32.47" rx="2.78" ry="2.69"/><ellipse class="cls-176" cx="30.6" cy="32.61" rx="2.78" ry="2.69"/><ellipse class="cls-177" cx="30.41" cy="32.75" rx="2.78" ry="2.69"/><ellipse class="cls-178" cx="30.22" cy="32.89" rx="2.78" ry="2.69"/><ellipse class="cls-179" cx="30.02" cy="33.03" rx="2.78" ry="2.69"/><ellipse class="cls-180" cx="29.82" cy="33.16" rx="2.78" ry="2.69"/><ellipse class="cls-181" cx="29.62" cy="33.29" rx="2.78" ry="2.69"/><ellipse class="cls-182" cx="29.42" cy="33.42" rx="2.78" ry="2.69"/><ellipse class="cls-183" cx="29.22" cy="33.55" rx="2.78" ry="2.69"/><ellipse class="cls-184" cx="29.01" cy="33.67" rx="2.78" ry="2.69"/><ellipse class="cls-185" cx="28.81" cy="33.79" rx="2.78" ry="2.69"/><ellipse class="cls-186" cx="28.6" cy="33.91" rx="2.78" ry="2.69"/><ellipse class="cls-187" cx="28.38" cy="34.02" rx="2.78" ry="2.69"/><ellipse class="cls-188" cx="28.17" cy="34.13" rx="2.78" ry="2.69"/><ellipse class="cls-189" cx="27.96" cy="34.24" rx="2.78" ry="2.69"/><ellipse class="cls-189" cx="27.74" cy="34.35" rx="2.78" ry="2.69"/><ellipse class="cls-190" cx="27.52" cy="34.45" rx="2.78" ry="2.69"/><ellipse class="cls-191" cx="27.3" cy="34.55" rx="2.78" ry="2.69"/><ellipse class="cls-192" cx="27.08" cy="34.65" rx="2.78" ry="2.69"/><ellipse class="cls-193" cx="26.86" cy="34.75" rx="2.78" ry="2.69"/><ellipse class="cls-194" cx="26.63" cy="34.84" rx="2.78" ry="2.69"/><ellipse class="cls-195" cx="26.4" cy="34.93" rx="2.78" ry="2.69"/><ellipse class="cls-196" cx="26.18" cy="35.01" rx="2.78" ry="2.69"/><ellipse class="cls-197" cx="25.95" cy="35.09" rx="2.78" ry="2.69"/><ellipse class="cls-198" cx="25.71" cy="35.17" rx="2.78" ry="2.69"/><ellipse class="cls-199" cx="25.48" cy="35.25" rx="2.78" ry="2.69"/><ellipse class="cls-200" cx="25.25" cy="35.32" rx="2.78" ry="2.69"/><ellipse class="cls-201" cx="25.01" cy="35.39" rx="2.78" ry="2.69"/><ellipse class="cls-202" cx="24.77" cy="35.46" rx="2.78" ry="2.69"/><ellipse class="cls-203" cx="24.53" cy="35.52" rx="2.78" ry="2.69"/><ellipse class="cls-204" cx="24.29" cy="35.59" rx="2.78" ry="2.69"/><ellipse class="cls-205" cx="24.05" cy="35.64" rx="2.78" ry="2.69"/><ellipse class="cls-206" cx="23.81" cy="35.7" rx="2.78" ry="2.69"/><ellipse class="cls-207" cx="23.57" cy="35.75" rx="2.78" ry="2.69"/><ellipse class="cls-208" cx="23.32" cy="35.79" rx="2.78" ry="2.69"/><ellipse class="cls-209" cx="23.07" cy="35.84" rx="2.78" ry="2.69"/><ellipse class="cls-210" cx="22.83" cy="35.88" rx="2.78" ry="2.69"/><ellipse class="cls-211" cx="22.58" cy="35.92" rx="2.78" ry="2.69"/><ellipse class="cls-212" cx="22.33" cy="35.95" rx="2.78" ry="2.69"/><ellipse class="cls-213" cx="22.08" cy="35.98" rx="2.78" ry="2.69"/><ellipse class="cls-214" cx="21.82" cy="36.01" rx="2.78" ry="2.69"/><ellipse class="cls-215" cx="21.57" cy="36.03" rx="2.78" ry="2.69"/><ellipse class="cls-216" cx="21.32" cy="36.05" rx="2.78" ry="2.69"/><ellipse class="cls-217" cx="21.06" cy="36.07" rx="2.78" ry="2.69"/><ellipse class="cls-218" cx="20.81" cy="36.08" rx="2.78" ry="2.69"/><ellipse class="cls-219" cx="20.55" cy="36.09" rx="2.78" ry="2.69"/><ellipse class="cls-220" cx="20.29" cy="36.09" rx="2.78" ry="2.69"/><ellipse class="cls-221" cx="20.03" cy="36.09" rx="2.78" ry="2.69"/><ellipse class="cls-222" cx="19.77" cy="36.09" rx="2.78" ry="2.69"/><ellipse class="cls-223" cx="19.51" cy="36.09" rx="2.78" ry="2.69"/><ellipse class="cls-224" cx="19.26" cy="36.08" rx="2.78" ry="2.69"/><ellipse class="cls-225" cx="19" cy="36.06" rx="2.78" ry="2.69"/><ellipse class="cls-226" cx="18.74" cy="36.05" rx="2.78" ry="2.69"/><ellipse class="cls-227" cx="18.49" cy="36.03" rx="2.78" ry="2.69"/><ellipse class="cls-228" cx="18.24" cy="36" rx="2.78" ry="2.69"/><ellipse class="cls-229" cx="17.98" cy="35.98" rx="2.78" ry="2.69"/><ellipse class="cls-230" cx="17.73" cy="35.95" rx="2.78" ry="2.69"/><ellipse class="cls-231" cx="17.48" cy="35.91" rx="2.78" ry="2.69"/><ellipse class="cls-232" cx="17.23" cy="35.87" rx="2.78" ry="2.69"/><ellipse class="cls-233" cx="16.99" cy="35.83" rx="2.78" ry="2.69"/><ellipse class="cls-234" cx="16.74" cy="35.79" rx="2.78" ry="2.69"/><ellipse class="cls-235" cx="16.5" cy="35.74" rx="2.78" ry="2.69"/><ellipse class="cls-236" cx="16.25" cy="35.69" rx="2.78" ry="2.69"/><ellipse class="cls-237" cx="16.01" cy="35.64" rx="2.78" ry="2.69"/><ellipse class="cls-238" cx="15.77" cy="35.58" rx="2.78" ry="2.69"/><ellipse class="cls-239" cx="15.53" cy="35.52" rx="2.78" ry="2.69"/><ellipse class="cls-240" cx="15.29" cy="35.45" rx="2.78" ry="2.69"/><ellipse class="cls-241" cx="15.05" cy="35.39" rx="2.78" ry="2.69"/><ellipse class="cls-242" cx="14.82" cy="35.31" rx="2.78" ry="2.69"/><ellipse class="cls-243" cx="14.58" cy="35.24" rx="2.78" ry="2.69"/><ellipse class="cls-244" cx="14.35" cy="35.16" rx="2.78" ry="2.69"/><ellipse class="cls-245" cx="14.12" cy="35.08" rx="2.78" ry="2.69"/><ellipse class="cls-246" cx="13.89" cy="35" rx="2.78" ry="2.69"/><ellipse class="cls-247" cx="13.66" cy="34.92" rx="2.78" ry="2.69"/><ellipse class="cls-248" cx="13.43" cy="34.83" rx="2.78" ry="2.69"/><ellipse class="cls-249" cx="13.21" cy="34.73" rx="2.78" ry="2.69"/><ellipse class="cls-250" cx="13.19" cy="34.73" rx="2.78" ry="2.69"/><ellipse class="cls-251" cx="12.44" cy="34.39" rx="2.78" ry="2.69"/><ellipse class="cls-252" cx="11.91" cy="34.13" rx="2.78" ry="2.69"/><ellipse class="cls-253" cx="11.39" cy="33.85" rx="2.78" ry="2.69"/><ellipse class="cls-254" cx="10.88" cy="33.55" rx="2.78" ry="2.69"/><ellipse class="cls-255" cx="10.38" cy="33.23" rx="2.78" ry="2.69"/><ellipse class="cls-256" cx="9.89" cy="32.9" rx="2.78" ry="2.69"/><ellipse class="cls-257" cx="9.42" cy="32.55" rx="2.78" ry="2.69"/><ellipse class="cls-258" cx="8.95" cy="32.19" rx="2.78" ry="2.69"/><ellipse class="cls-259" cx="8.51" cy="31.81" rx="2.78" ry="2.69"/><ellipse class="cls-260" cx="8.07" cy="31.42" rx="2.78" ry="2.69"/><ellipse class="cls-261" cx="7.65" cy="31.02" rx="2.78" ry="2.69"/><ellipse class="cls-262" cx="7.24" cy="30.6" rx="2.78" ry="2.69"/><ellipse class="cls-263" cx="6.85" cy="30.17" rx="2.78" ry="2.69"/><ellipse class="cls-264" cx="6.48" cy="29.72" rx="2.78" ry="2.69"/><ellipse class="cls-265" cx="6.12" cy="29.26" rx="2.78" ry="2.69"/><ellipse class="cls-266" cx="5.77" cy="28.79" rx="2.78" ry="2.69"/><ellipse class="cls-267" cx="5.45" cy="28.31" rx="2.78" ry="2.69"/><ellipse class="cls-268" cx="5.14" cy="27.82" rx="2.78" ry="2.69"/><ellipse class="cls-269" cx="4.84" cy="27.31" rx="2.78" ry="2.69"/><ellipse class="cls-270" cx="4.57" cy="26.8" rx="2.78" ry="2.69"/><ellipse class="cls-271" cx="4.31" cy="26.27" rx="2.78" ry="2.69"/><ellipse class="cls-272" cx="4.07" cy="25.74" rx="2.78" ry="2.69"/><ellipse class="cls-273" cx="3.85" cy="25.19" rx="2.78" ry="2.69"/><ellipse class="cls-274" cx="3.65" cy="24.64" rx="2.78" ry="2.69"/><ellipse class="cls-275" cx="3.47" cy="24.08" rx="2.78" ry="2.69"/><ellipse class="cls-276" cx="3.31" cy="23.51" rx="2.78" ry="2.69"/><ellipse class="cls-277" cx="3.17" cy="22.93" rx="2.78" ry="2.69"/><ellipse class="cls-278" cx="3.05" cy="22.34" rx="2.78" ry="2.69"/><ellipse class="cls-279" cx="2.95" cy="21.75" rx="2.78" ry="2.69"/><ellipse class="cls-280" cx="2.88" cy="21.15" rx="2.78" ry="2.69"/><ellipse class="cls-281" cx="2.82" cy="20.55" rx="2.78" ry="2.69"/><ellipse class="cls-282" cx="2.79" cy="19.93" rx="2.78" ry="2.69"/><ellipse class="cls-283" cx="2.78" cy="19.32" rx="2.78" ry="2.69"/><ellipse class="cls-284" cx="2.8" cy="18.7" rx="2.78" ry="2.69"/><ellipse class="cls-285" cx="2.83" cy="18.08" rx="2.78" ry="2.69"/><ellipse class="cls-286" cx="2.89" cy="17.48" rx="2.78" ry="2.69"/><ellipse class="cls-287" cx="2.98" cy="16.87" rx="2.78" ry="2.69"/><ellipse class="cls-288" cx="3.08" cy="16.28" rx="2.78" ry="2.69"/><ellipse class="cls-289" cx="3.21" cy="15.69" rx="2.78" ry="2.69"/><ellipse class="cls-290" cx="3.35" cy="15.11" rx="2.78" ry="2.69"/><ellipse class="cls-291" cx="3.52" cy="14.54" rx="2.78" ry="2.69"/><ellipse class="cls-292" cx="3.71" cy="13.98" rx="2.78" ry="2.69"/><ellipse class="cls-293" cx="3.92" cy="13.43" rx="2.78" ry="2.69"/><ellipse class="cls-294" cx="4.14" cy="12.88" rx="2.78" ry="2.69"/><ellipse class="cls-295" cx="4.39" cy="12.35" rx="2.78" ry="2.69"/><ellipse class="cls-296" cx="4.65" cy="11.82" rx="2.78" ry="2.69"/><ellipse class="cls-297" cx="4.94" cy="11.31" rx="2.78" ry="2.69"/><ellipse class="cls-298" cx="5.24" cy="10.81" rx="2.78" ry="2.69"/><ellipse class="cls-299" cx="5.55" cy="10.31" rx="2.78" ry="2.69"/></g></g></svg>