<svg xmlns="http://www.w3.org/2000/svg" viewBox="0 0 36.85 37.64"><defs><style>.cls-1{fill:#fff;}.cls-2{fill:#fefffe;}.cls-3{fill:#fdfffe;}.cls-4{fill:#fcfffd;}.cls-5{fill:#fbfffc;}.cls-6{fill:#fafffc;}.cls-7{fill:#f9fffb;}.cls-8{fill:#f8fffb;}.cls-9{fill:#f7fffa;}.cls-10{fill:#f6fff9;}.cls-11{fill:#f5fff9;}.cls-12{fill:#f4fff8;}.cls-13{fill:#f3fff7;}.cls-14{fill:#f2fef7;}.cls-15{fill:#f1fef6;}.cls-16{fill:#f0fef5;}.cls-17{fill:#effef5;}.cls-18{fill:#eefef4;}.cls-19{fill:#edfef4;}.cls-20{fill:#ecfef3;}.cls-21{fill:#ebfef2;}.cls-22{fill:#eafef2;}.cls-23{fill:#e9fef1;}.cls-24{fill:#e8fef0;}.cls-25{fill:#e7fef0;}.cls-26{fill:#e6feef;}.cls-27{fill:#e5feee;}.cls-28{fill:#e4feee;}.cls-29{fill:#e3feed;}.cls-30{fill:#e2feed;}.cls-31{fill:#e1feec;}.cls-32{fill:#e0feeb;}.cls-33{fill:#dffeeb;}.cls-34{fill:#defeea;}.cls-35{fill:#ddfee9;}.cls-36{fill:#dcfee9;}.cls-37{fill:#dbfee8;}.cls-38{fill:#dafee7;}.cls-39{fill:#d9fde7;}.cls-40{fill:#d8fde6;}.cls-41{fill:#d7fde6;}.cls-42{fill:#d6fde5;}.cls-43{fill:#d5fde4;}.cls-44{fill:#d4fde4;}.cls-45{fill:#d3fde3;}.cls-46{fill:#d2fde2;}.cls-47{fill:#d1fde2;}.cls-48{fill:#d0fde1;}.cls-49{fill:#cffde0;}.cls-50{fill:#cefde0;}.cls-51{fill:#cdfddf;}.cls-52{fill:#ccfddf;}.cls-53{fill:#cbfdde;}.cls-54{fill:#cafddd;}.cls-55{fill:#c9fddd;}.cls-56{fill:#c8fddc;}.cls-57{fill:#c7fddb;}.cls-58{fill:#c6fddb;}.cls-59{fill:#c5fdda;}.cls-60{fill:#c4fdd9;}.cls-61{fill:#c3fdd9;}.cls-62{fill:#c2fdd8;}.cls-63{fill:#c1fcd7;}.cls-64{fill:#c0fcd6;}.cls-65{fill:#bffcd6;}.cls-66{fill:#befcd5;}.cls-67{fill:#bdfcd4;}.cls-68{fill:#bcfcd4;}.cls-69{fill:#bbfcd3;}.cls-70{fill:#bafcd2;}.cls-71{fill:#b9fcd2;}.cls-72{fill:#b8fcd1;}.cls-73{fill:#b7fcd0;}.cls-74{fill:#b6fcd0;}.cls-75{fill:#b5fccf;}.cls-76{fill:#b4fccf;}.cls-77{fill:#b3fcce;}.cls-78{fill:#b2fccd;}.cls-79{fill:#b1fccd;}.cls-80{fill:#b0fccc;}.cls-81{fill:#affccb;}.cls-82{fill:#aefccb;}.cls-83{fill:#adfcca;}.cls-84{fill:#acfcc9;}.cls-85{fill:#abfcc9;}.cls-86{fill:#aafcc8;}.cls-87{fill:#a9fbc8;}.cls-88{fill:#a8fbc7;}.cls-89{fill:#a7fbc6;}.cls-90{fill:#a6fbc6;}.cls-91{fill:#a5fbc5;}.cls-92{fill:#a4fbc4;}.cls-93{fill:#a3fbc4;}.cls-94{fill:#a2fbc3;}.cls-95{fill:#a1fbc2;}.cls-96{fill:#a0fbc2;}.cls-97{fill:#9ffbc1;}.cls-98{fill:#9efbc1;}.cls-99{fill:#9dfbc0;}.cls-100{fill:#9cfbbf;}.cls-101{fill:#9bfbbf;}.cls-102{fill:#9afbbe;}.cls-103{fill:#99fbbd;}.cls-104{fill:#98fbbd;}.cls-105{fill:#97fbbc;}.cls-106{fill:#96fbbb;}.cls-107{fill:#95fbbb;}.cls-108{fill:#94fbba;}.cls-109{fill:#93fbba;}.cls-110{fill:#92fbb9;}.cls-111{fill:#91fbb8;}.cls-112{fill:#90fab8;}.cls-113{fill:#8ffab7;}.cls-114{fill:#8efab6;}.cls-115{fill:#8dfab6;}.cls-116{fill:#8cfab5;}.cls-117{fill:#8bfab4;}.cls-118{fill:#8afab4;}.cls-119{fill:#89fab3;}.cls-120{fill:#88fab3;}.cls-121{fill:#87fab2;}.cls-122{fill:#86fab1;}.cls-123{fill:#85fab1;}.cls-124{fill:#84fab0;}.cls-125{fill:#84f9b1;}.cls-126{fill:#84f9b2;}.cls-127{fill:#84f8b3;}.cls-128{fill:#85f8b4;}.cls-129{fill:#85f7b5;}.cls-130{fill:#85f7b6;}.cls-131{fill:#85f6b7;}.cls-132{fill:#85f5b8;}.cls-133{fill:#85f5b9;}.cls-134{fill:#86f4ba;}.cls-135{fill:#86f4bb;}.cls-136{fill:#86f3bc;}.cls-137{fill:#86f3bd;}.cls-138{fill:#86f2be;}.cls-139{fill:#86f2bf;}.cls-140{fill:#87f1c0;}.cls-141{fill:#87f0c1;}.cls-142{fill:#87f0c2;}.cls-143{fill:#87efc3;}.cls-144{fill:#87efc4;}.cls-145{fill:#87eec5;}.cls-146{fill:#88eec6;}.cls-147{fill:#88edc7;}.cls-148{fill:#88ecc8;}.cls-149{fill:#88ecc9;}.cls-150{fill:#88ebca;}.cls-151{fill:#88ebcb;}.cls-152{fill:#88eacc;}.cls-153{fill:#89eacd;}.cls-154{fill:#89e9ce;}.cls-155{fill:#89e8cf;}.cls-156{fill:#89e8d0;}.cls-157{fill:#89e7d1;}.cls-158{fill:#89e7d2;}.cls-159{fill:#8ae6d2;}.cls-160{fill:#8ae6d3;}.cls-161{fill:#8ae5d4;}.cls-162{fill:#8ae5d5;}.cls-163{fill:#8ae4d6;}.cls-164{fill:#8ae3d7;}.cls-165{fill:#8be3d8;}.cls-166{fill:#8be2d9;}.cls-167{fill:#8be2da;}.cls-168{fill:#8be1db;}.cls-169{fill:#8be1dc;}.cls-170{fill:#8be0dd;}.cls-171{fill:#8bdfde;}.cls-172{fill:#8cdfdf;}.cls-173{fill:#8cdee0;}.cls-174{fill:#8cdee1;}.cls-175{fill:#8cdde2;}.cls-176{fill:#8cdde3;}.cls-177{fill:#8cdce4;}.cls-178{fill:#8ddbe5;}.cls-179{fill:#8ddbe6;}.cls-180{fill:#8ddae7;}.cls-181{fill:#8ddae8;}.cls-182{fill:#8dd9e9;}.cls-183{fill:#8dd9ea;}.cls-184{fill:#8ed8eb;}.cls-185{fill:#8ed8ec;}.cls-186{fill:#8ed7ed;}.cls-187{fill:#8ed6ee;}.cls-188{fill:#8ed6ef;}.cls-189{fill:#8ed5f0;}.cls-190{fill:#8fd5f1;}.cls-191{fill:#8fd4f2;}.cls-192{fill:#8fd4f3;}.cls-193{fill:#8fd3f4;}.cls-194{fill:#8ed3f4;}.cls-195{fill:#8dd3f3;}.cls-196{fill:#8cd3f3;}.cls-197{fill:#8bd3f2;}.cls-198{fill:#8ad3f2;}.cls-199{fill:#89d3f2;}.cls-200{fill:#88d3f1;}.cls-201{fill:#87d3f1;}.cls-202{fill:#86d3f1;}.cls-203{fill:#85d3f0;}.cls-204{fill:#84d3f0;}.cls-205{fill:#83d2ef;}.cls-206{fill:#82d2ef;}.cls-207{fill:#81d2ef;}.cls-208{fill:#80d2ee;}.cls-209{fill:#7fd2ee;}.cls-210{fill:#7ed2ee;}.cls-211{fill:#7dd2ed;}.cls-212{fill:#7cd2ed;}.cls-213{fill:#7bd2ec;}.cls-214{fill:#7ad2ec;}.cls-215{fill:#79d2ec;}.cls-216{fill:#78d2eb;}.cls-217{fill:#77d2eb;}.cls-218{fill:#76d2eb;}.cls-219{fill:#75d2ea;}.cls-220{fill:#74d2ea;}.cls-221{fill:#73d2e9;}.cls-222{fill:#72d2e9;}.cls-223{fill:#71d2e9;}.cls-224{fill:#70d2e8;}.cls-225{fill:#6fd2e8;}.cls-226{fill:#6ed2e8;}.cls-227{fill:#6dd2e7;}.cls-228{fill:#6cd2e7;}.cls-229{fill:#6bd1e6;}.cls-230{fill:#6ad1e6;}.cls-231{fill:#69d1e6;}.cls-232{fill:#68d1e5;}.cls-233{fill:#67d1e5;}.cls-234{fill:#66d1e5;}.cls-235{fill:#65d1e4;}.cls-236{fill:#64d1e4;}.cls-237{fill:#63d1e3;}.cls-238{fill:#62d1e3;}.cls-239{fill:#61d1e3;}.cls-240{fill:#60d1e2;}.cls-241{fill:#5fd1e2;}.cls-242{fill:#5ed1e1;}.cls-243{fill:#5dd1e1;}.cls-244{fill:#5cd1e1;}.cls-245{fill:#5bd1e0;}.cls-246{fill:#5ad1e0;}.cls-247{fill:#59d1df;}.cls-248{fill:#58d1df;}.cls-249{fill:#57d1df;}.cls-250{fill:#56d1de;}.cls-251{fill:#55d1de;}.cls-252{fill:#54d1de;}.cls-253{fill:#53d0dd;}.cls-254{fill:#52d0dd;}.cls-255{fill:#51d0dc;}.cls-256{fill:#50d0dc;}.cls-257{fill:#4fd0dc;}.cls-258{fill:#4ed0db;}.cls-259{fill:#4dd0db;}.cls-260{fill:#4cd0db;}.cls-261{fill:#4bd0da;}.cls-262{fill:#4ad0da;}.cls-263{fill:#49d0d9;}.cls-264{fill:#48d0d9;}.cls-265{fill:#47d0d9;}.cls-266{fill:#46d0d8;}.cls-267{fill:#45d0d8;}.cls-268{fill:#44d0d8;}.cls-269{fill:#43d0d7;}.cls-270{fill:#42d0d7;}.cls-271{fill:#41d0d6;}.cls-272{fill:#40d0d6;}.cls-273{fill:#3fd0d6;}.cls-274{fill:#3ed0d5;}.cls-275{fill:#3dd0d5;}.cls-276{fill:#3cd0d5;}.cls-277{fill:#3bcfd4;}.cls-278{fill:#3acfd4;}.cls-279{fill:#39cfd3;}.cls-280{fill:#38cfd3;}.cls-281{fill:#37cfd3;}.cls-282{fill:#36cfd2;}.cls-283{fill:#35cfd2;}.cls-284{fill:#34cfd2;}.cls-285{fill:#33cfd1;}.cls-286{fill:#32cfd1;}.cls-287{fill:#31cfd0;}.cls-288{fill:#30cfd0;}</style></defs><title>time3_1</title><g id="圖層_2" data-name="圖層 2"><g id="圖層_1-2" data-name="圖層 1"><ellipse class="cls-1" cx="17.13" cy="2.61" rx="2.74" ry="2.61"/><ellipse class="cls-2" cx="17.36" cy="2.61" rx="2.74" ry="2.61"/><ellipse class="cls-3" cx="17.59" cy="2.62" rx="2.74" ry="2.61"/><ellipse class="cls-4" cx="17.81" cy="2.62" rx="2.74" ry="2.61"/><ellipse class="cls-5" cx="18.04" cy="2.63" rx="2.74" ry="2.61"/><ellipse class="cls-6" cx="18.26" cy="2.65" rx="2.74" ry="2.61"/><ellipse class="cls-7" cx="18.48" cy="2.66" rx="2.74" ry="2.61"/><ellipse class="cls-8" cx="18.7" cy="2.68" rx="2.74" ry="2.61"/><ellipse class="cls-9" cx="18.92" cy="2.7" rx="2.74" ry="2.61"/><ellipse class="cls-10" cx="19.14" cy="2.72" rx="2.74" ry="2.61"/><ellipse class="cls-11" cx="19.36" cy="2.75" rx="2.74" ry="2.61"/><ellipse class="cls-12" cx="19.58" cy="2.78" rx="2.74" ry="2.61"/><ellipse class="cls-13" cx="19.8" cy="2.81" rx="2.74" ry="2.61"/><ellipse class="cls-14" cx="20.02" cy="2.84" rx="2.74" ry="2.61"/><ellipse class="cls-15" cx="20.23" cy="2.88" rx="2.74" ry="2.61"/><ellipse class="cls-16" cx="20.45" cy="2.92" rx="2.74" ry="2.61"/><ellipse class="cls-17" cx="20.66" cy="2.96" rx="2.74" ry="2.61"/><ellipse class="cls-18" cx="20.88" cy="3.01" rx="2.74" ry="2.61"/><ellipse class="cls-19" cx="21.09" cy="3.05" rx="2.74" ry="2.61"/><ellipse class="cls-20" cx="21.3" cy="3.1" rx="2.74" ry="2.61"/><ellipse class="cls-21" cx="21.51" cy="3.15" rx="2.74" ry="2.61"/><ellipse class="cls-22" cx="21.72" cy="3.21" rx="2.74" ry="2.61"/><ellipse class="cls-23" cx="21.92" cy="3.27" rx="2.74" ry="2.61"/><ellipse class="cls-24" cx="22.13" cy="3.33" rx="2.74" ry="2.61"/><ellipse class="cls-25" cx="22.34" cy="3.39" rx="2.74" ry="2.61"/><ellipse class="cls-26" cx="22.54" cy="3.45" rx="2.74" ry="2.61"/><ellipse class="cls-27" cx="22.74" cy="3.52" rx="2.74" ry="2.61"/><ellipse class="cls-28" cx="22.95" cy="3.59" rx="2.74" ry="2.61"/><ellipse class="cls-29" cx="23.15" cy="3.66" rx="2.74" ry="2.61"/><ellipse class="cls-30" cx="23.35" cy="3.73" rx="2.74" ry="2.61"/><ellipse class="cls-31" cx="23.55" cy="3.81" rx="2.74" ry="2.61"/><ellipse class="cls-32" cx="23.74" cy="3.89" rx="2.74" ry="2.61"/><ellipse class="cls-33" cx="23.94" cy="3.97" rx="2.74" ry="2.61"/><ellipse class="cls-34" cx="24.13" cy="4.05" rx="2.74" ry="2.61"/><ellipse class="cls-35" cx="24.33" cy="4.13" rx="2.74" ry="2.61"/><ellipse class="cls-36" cx="24.52" cy="4.22" rx="2.74" ry="2.61"/><ellipse class="cls-37" cx="24.71" cy="4.31" rx="2.74" ry="2.61"/><ellipse class="cls-38" cx="24.9" cy="4.4" rx="2.74" ry="2.61"/><ellipse class="cls-39" cx="25.09" cy="4.5" rx="2.74" ry="2.61"/><ellipse class="cls-40" cx="25.27" cy="4.59" rx="2.74" ry="2.61"/><ellipse class="cls-41" cx="25.46" cy="4.69" rx="2.74" ry="2.61"/><ellipse class="cls-42" cx="25.64" cy="4.79" rx="2.74" ry="2.61"/><ellipse class="cls-43" cx="25.82" cy="4.89" rx="2.74" ry="2.61"/><ellipse class="cls-44" cx="26.01" cy="5" rx="2.74" ry="2.61"/><ellipse class="cls-45" cx="26.19" cy="5.1" rx="2.74" ry="2.61"/><ellipse class="cls-46" cx="26.36" cy="5.21" rx="2.74" ry="2.61"/><ellipse class="cls-47" cx="26.54" cy="5.32" rx="2.74" ry="2.61"/><ellipse class="cls-48" cx="26.71" cy="5.44" rx="2.74" ry="2.61"/><ellipse class="cls-49" cx="26.89" cy="5.55" rx="2.74" ry="2.61"/><ellipse class="cls-50" cx="27.06" cy="5.67" rx="2.74" ry="2.61"/><ellipse class="cls-51" cx="27.23" cy="5.79" rx="2.74" ry="2.61"/><ellipse class="cls-52" cx="27.4" cy="5.91" rx="2.74" ry="2.61"/><ellipse class="cls-53" cx="27.56" cy="6.03" rx="2.74" ry="2.61"/><ellipse class="cls-54" cx="27.73" cy="6.15" rx="2.74" ry="2.61"/><ellipse class="cls-55" cx="27.89" cy="6.28" rx="2.74" ry="2.61"/><ellipse class="cls-56" cx="28.06" cy="6.41" rx="2.74" ry="2.61"/><ellipse class="cls-57" cx="28.22" cy="6.54" rx="2.74" ry="2.61"/><ellipse class="cls-58" cx="28.37" cy="6.67" rx="2.74" ry="2.61"/><ellipse class="cls-59" cx="28.53" cy="6.81" rx="2.74" ry="2.61"/><ellipse class="cls-60" cx="28.69" cy="6.94" rx="2.74" ry="2.61"/><ellipse class="cls-61" cx="28.84" cy="7.08" rx="2.74" ry="2.61"/><ellipse class="cls-62" cx="28.99" cy="7.22" rx="2.74" ry="2.61"/><ellipse class="cls-62" cx="29.14" cy="7.36" rx="2.74" ry="2.61"/><ellipse class="cls-63" cx="29.29" cy="7.5" rx="2.74" ry="2.61"/><ellipse class="cls-64" cx="29.43" cy="7.65" rx="2.74" ry="2.61"/><ellipse class="cls-65" cx="29.58" cy="7.79" rx="2.74" ry="2.61"/><ellipse class="cls-66" cx="29.72" cy="7.94" rx="2.74" ry="2.61"/><ellipse class="cls-67" cx="29.86" cy="8.09" rx="2.74" ry="2.61"/><ellipse class="cls-68" cx="30" cy="8.24" rx="2.74" ry="2.61"/><ellipse class="cls-69" cx="30.14" cy="8.39" rx="2.74" ry="2.61"/><ellipse class="cls-70" cx="30.27" cy="8.55" rx="2.74" ry="2.61"/><ellipse class="cls-71" cx="30.4" cy="8.7" rx="2.74" ry="2.61"/><ellipse class="cls-72" cx="30.53" cy="8.86" rx="2.74" ry="2.61"/><ellipse class="cls-73" cx="30.66" cy="9.02" rx="2.74" ry="2.61"/><ellipse class="cls-74" cx="30.79" cy="9.18" rx="2.74" ry="2.61"/><ellipse class="cls-75" cx="30.91" cy="9.34" rx="2.74" ry="2.61"/><ellipse class="cls-76" cx="31.03" cy="9.51" rx="2.74" ry="2.61"/><ellipse class="cls-77" cx="31.15" cy="9.67" rx="2.74" ry="2.61"/><ellipse class="cls-78" cx="31.27" cy="9.84" rx="2.74" ry="2.61"/><ellipse class="cls-79" cx="31.39" cy="10.01" rx="2.74" ry="2.61"/><ellipse class="cls-80" cx="31.5" cy="10.18" rx="2.74" ry="2.61"/><ellipse class="cls-81" cx="31.61" cy="10.35" rx="2.74" ry="2.61"/><ellipse class="cls-82" cx="31.72" cy="10.52" rx="2.74" ry="2.61"/><ellipse class="cls-83" cx="31.83" cy="10.7" rx="2.74" ry="2.61"/><ellipse class="cls-84" cx="31.94" cy="10.87" rx="2.74" ry="2.61"/><ellipse class="cls-85" cx="32.04" cy="11.05" rx="2.74" ry="2.61"/><ellipse class="cls-86" cx="32.14" cy="11.23" rx="2.74" ry="2.61"/><ellipse class="cls-87" cx="32.24" cy="11.41" rx="2.74" ry="2.61"/><ellipse class="cls-88" cx="32.33" cy="11.59" rx="2.74" ry="2.61"/><ellipse class="cls-89" cx="32.43" cy="11.77" rx="2.74" ry="2.61"/><ellipse class="cls-90" cx="32.52" cy="11.95" rx="2.74" ry="2.61"/><ellipse class="cls-91" cx="32.61" cy="12.14" rx="2.74" ry="2.61"/><ellipse class="cls-92" cx="32.69" cy="12.32" rx="2.74" ry="2.61"/><ellipse class="cls-93" cx="32.78" cy="12.51" rx="2.74" ry="2.61"/><ellipse class="cls-94" cx="32.86" cy="12.7" rx="2.74" ry="2.61"/><ellipse class="cls-95" cx="32.94" cy="12.89" rx="2.74" ry="2.61"/><ellipse class="cls-96" cx="33.02" cy="13.08" rx="2.74" ry="2.61"/><ellipse class="cls-97" cx="33.09" cy="13.27" rx="2.74" ry="2.61"/><ellipse class="cls-98" cx="33.16" cy="13.46" rx="2.74" ry="2.61"/><ellipse class="cls-99" cx="33.23" cy="13.66" rx="2.74" ry="2.61"/><ellipse class="cls-100" cx="33.3" cy="13.85" rx="2.74" ry="2.61"/><ellipse class="cls-101" cx="33.37" cy="14.05" rx="2.74" ry="2.61"/><ellipse class="cls-102" cx="33.43" cy="14.25" rx="2.74" ry="2.61"/><ellipse class="cls-103" cx="33.49" cy="14.44" rx="2.74" ry="2.61"/><ellipse class="cls-104" cx="33.54" cy="14.64" rx="2.74" ry="2.61"/><ellipse class="cls-105" cx="33.6" cy="14.84" rx="2.74" ry="2.61"/><ellipse class="cls-106" cx="33.65" cy="15.04" rx="2.74" ry="2.61"/><ellipse class="cls-107" cx="33.7" cy="15.25" rx="2.74" ry="2.61"/><ellipse class="cls-108" cx="33.75" cy="15.45" rx="2.74" ry="2.61"/><ellipse class="cls-109" cx="33.79" cy="15.65" rx="2.74" ry="2.61"/><ellipse class="cls-110" cx="33.83" cy="15.86" rx="2.74" ry="2.61"/><ellipse class="cls-111" cx="33.87" cy="16.07" rx="2.74" ry="2.61"/><ellipse class="cls-112" cx="33.91" cy="16.27" rx="2.74" ry="2.61"/><ellipse class="cls-113" cx="33.94" cy="16.48" rx="2.74" ry="2.61"/><ellipse class="cls-114" cx="33.97" cy="16.69" rx="2.74" ry="2.61"/><ellipse class="cls-115" cx="34" cy="16.9" rx="2.74" ry="2.61"/><ellipse class="cls-116" cx="34.02" cy="17.11" rx="2.74" ry="2.61"/><ellipse class="cls-117" cx="34.04" cy="17.32" rx="2.74" ry="2.61"/><ellipse class="cls-118" cx="34.06" cy="17.53" rx="2.74" ry="2.61"/><ellipse class="cls-119" cx="34.08" cy="17.74" rx="2.74" ry="2.61"/><ellipse class="cls-120" cx="34.09" cy="17.96" rx="2.74" ry="2.61"/><ellipse class="cls-121" cx="34.1" cy="18.17" rx="2.74" ry="2.61"/><ellipse class="cls-122" cx="34.11" cy="18.39" rx="2.74" ry="2.61"/><ellipse class="cls-123" cx="34.11" cy="18.6" rx="2.74" ry="2.61"/><ellipse class="cls-124" cx="34.11" cy="18.82" rx="2.74" ry="2.61"/><ellipse class="cls-125" cx="34.11" cy="19.21" rx="2.74" ry="2.61"/><ellipse class="cls-126" cx="34.09" cy="19.59" rx="2.74" ry="2.61"/><ellipse class="cls-127" cx="34.07" cy="19.98" rx="2.74" ry="2.61"/><ellipse class="cls-128" cx="34.04" cy="20.36" rx="2.74" ry="2.61"/><ellipse class="cls-129" cx="34" cy="20.74" rx="2.74" ry="2.61"/><ellipse class="cls-130" cx="33.94" cy="21.11" rx="2.74" ry="2.61"/><ellipse class="cls-131" cx="33.88" cy="21.48" rx="2.74" ry="2.61"/><ellipse class="cls-132" cx="33.82" cy="21.85" rx="2.74" ry="2.61"/><ellipse class="cls-133" cx="33.74" cy="22.22" rx="2.74" ry="2.61"/><ellipse class="cls-134" cx="33.65" cy="22.59" rx="2.74" ry="2.61"/><ellipse class="cls-135" cx="33.56" cy="22.95" rx="2.74" ry="2.61"/><ellipse class="cls-136" cx="33.45" cy="23.3" rx="2.74" ry="2.61"/><ellipse class="cls-137" cx="33.34" cy="23.66" rx="2.74" ry="2.61"/><ellipse class="cls-138" cx="33.22" cy="24.01" rx="2.74" ry="2.61"/><ellipse class="cls-139" cx="33.1" cy="24.36" rx="2.74" ry="2.61"/><ellipse class="cls-140" cx="32.96" cy="24.7" rx="2.74" ry="2.61"/><ellipse class="cls-141" cx="32.82" cy="25.04" rx="2.74" ry="2.61"/><ellipse class="cls-142" cx="32.66" cy="25.38" rx="2.74" ry="2.61"/><ellipse class="cls-143" cx="32.51" cy="25.71" rx="2.74" ry="2.61"/><ellipse class="cls-144" cx="32.34" cy="26.04" rx="2.74" ry="2.61"/><ellipse class="cls-145" cx="32.17" cy="26.36" rx="2.74" ry="2.61"/><ellipse class="cls-146" cx="31.98" cy="26.68" rx="2.74" ry="2.61"/><ellipse class="cls-147" cx="31.8" cy="27" rx="2.74" ry="2.61"/><ellipse class="cls-148" cx="31.6" cy="27.31" rx="2.74" ry="2.61"/><ellipse class="cls-149" cx="31.4" cy="27.61" rx="2.74" ry="2.61"/><ellipse class="cls-150" cx="31.19" cy="27.92" rx="2.74" ry="2.61"/><ellipse class="cls-151" cx="30.97" cy="28.21" rx="2.74" ry="2.61"/><ellipse class="cls-152" cx="30.75" cy="28.51" rx="2.74" ry="2.61"/><ellipse class="cls-153" cx="30.52" cy="28.79" rx="2.74" ry="2.61"/><ellipse class="cls-154" cx="30.28" cy="29.07" rx="2.74" ry="2.61"/><ellipse class="cls-155" cx="30.04" cy="29.35" rx="2.74" ry="2.61"/><ellipse class="cls-156" cx="29.79" cy="29.62" rx="2.74" ry="2.61"/><ellipse class="cls-157" cx="29.53" cy="29.89" rx="2.74" ry="2.61"/><ellipse class="cls-158" cx="29.27" cy="30.15" rx="2.74" ry="2.61"/><ellipse class="cls-159" cx="29.01" cy="30.4" rx="2.74" ry="2.61"/><ellipse class="cls-160" cx="28.73" cy="30.65" rx="2.74" ry="2.61"/><ellipse class="cls-161" cx="28.45" cy="30.9" rx="2.74" ry="2.61"/><ellipse class="cls-162" cx="28.17" cy="31.13" rx="2.74" ry="2.61"/><ellipse class="cls-163" cx="27.88" cy="31.37" rx="2.74" ry="2.61"/><ellipse class="cls-164" cx="27.58" cy="31.59" rx="2.74" ry="2.61"/><ellipse class="cls-165" cx="27.28" cy="31.81" rx="2.74" ry="2.61"/><ellipse class="cls-166" cx="26.98" cy="32.02" rx="2.74" ry="2.61"/><ellipse class="cls-167" cx="26.67" cy="32.23" rx="2.74" ry="2.61"/><ellipse class="cls-168" cx="26.35" cy="32.43" rx="2.74" ry="2.61"/><ellipse class="cls-169" cx="26.03" cy="32.62" rx="2.74" ry="2.61"/><ellipse class="cls-170" cx="25.7" cy="32.81" rx="2.74" ry="2.61"/><ellipse class="cls-171" cx="25.37" cy="32.99" rx="2.74" ry="2.61"/><ellipse class="cls-172" cx="25.04" cy="33.16" rx="2.74" ry="2.61"/><ellipse class="cls-173" cx="24.7" cy="33.33" rx="2.74" ry="2.61"/><ellipse class="cls-174" cx="24.35" cy="33.49" rx="2.74" ry="2.61"/><ellipse class="cls-175" cx="24.01" cy="33.64" rx="2.74" ry="2.61"/><ellipse class="cls-176" cx="23.65" cy="33.79" rx="2.74" ry="2.61"/><ellipse class="cls-177" cx="23.3" cy="33.92" rx="2.74" ry="2.61"/><ellipse class="cls-178" cx="22.94" cy="34.05" rx="2.74" ry="2.61"/><ellipse class="cls-179" cx="22.57" cy="34.17" rx="2.74" ry="2.61"/><ellipse class="cls-180" cx="22.21" cy="34.29" rx="2.74" ry="2.61"/><ellipse class="cls-181" cx="21.83" cy="34.4" rx="2.74" ry="2.61"/><ellipse class="cls-182" cx="21.46" cy="34.49" rx="2.74" ry="2.61"/><ellipse class="cls-183" cx="21.08" cy="34.58" rx="2.74" ry="2.61"/><ellipse class="cls-184" cx="20.7" cy="34.67" rx="2.74" ry="2.61"/><ellipse class="cls-185" cx="20.31" cy="34.74" rx="2.74" ry="2.61"/><ellipse class="cls-186" cx="19.93" cy="34.81" rx="2.74" ry="2.61"/><ellipse class="cls-187" cx="19.54" cy="34.86" rx="2.74" ry="2.61"/><ellipse class="cls-188" cx="19.14" cy="34.91" rx="2.74" ry="2.61"/><ellipse class="cls-189" cx="18.75" cy="34.95" rx="2.74" ry="2.61"/><ellipse class="cls-190" cx="18.35" cy="34.98" rx="2.74" ry="2.61"/><ellipse class="cls-191" cx="17.94" cy="35.01" rx="2.74" ry="2.61"/><ellipse class="cls-192" cx="17.54" cy="35.02" rx="2.74" ry="2.61"/><ellipse class="cls-193" cx="17.13" cy="35.02" rx="2.74" ry="2.61"/><ellipse class="cls-194" cx="16.94" cy="35.02" rx="2.74" ry="2.61"/><ellipse class="cls-195" cx="16.75" cy="35.02" rx="2.74" ry="2.61"/><ellipse class="cls-196" cx="16.57" cy="35.02" rx="2.74" ry="2.61"/><ellipse class="cls-197" cx="16.38" cy="35.01" rx="2.74" ry="2.61"/><ellipse class="cls-198" cx="16.19" cy="35" rx="2.74" ry="2.61"/><ellipse class="cls-199" cx="16" cy="34.99" rx="2.74" ry="2.61"/><ellipse class="cls-200" cx="15.82" cy="34.98" rx="2.74" ry="2.61"/><ellipse class="cls-201" cx="15.63" cy="34.96" rx="2.74" ry="2.61"/><ellipse class="cls-202" cx="15.45" cy="34.95" rx="2.74" ry="2.61"/><ellipse class="cls-203" cx="15.26" cy="34.93" rx="2.74" ry="2.61"/><ellipse class="cls-204" cx="15.08" cy="34.91" rx="2.74" ry="2.61"/><ellipse class="cls-205" cx="14.9" cy="34.88" rx="2.74" ry="2.61"/><ellipse class="cls-206" cx="14.71" cy="34.86" rx="2.74" ry="2.61"/><ellipse class="cls-207" cx="14.53" cy="34.83" rx="2.74" ry="2.61"/><ellipse class="cls-208" cx="14.35" cy="34.81" rx="2.74" ry="2.61"/><ellipse class="cls-209" cx="14.17" cy="34.78" rx="2.74" ry="2.61"/><ellipse class="cls-210" cx="13.99" cy="34.75" rx="2.74" ry="2.61"/><ellipse class="cls-211" cx="13.81" cy="34.71" rx="2.74" ry="2.61"/><ellipse class="cls-212" cx="13.63" cy="34.68" rx="2.74" ry="2.61"/><ellipse class="cls-213" cx="13.45" cy="34.64" rx="2.74" ry="2.61"/><ellipse class="cls-214" cx="13.27" cy="34.6" rx="2.74" ry="2.61"/><ellipse class="cls-215" cx="13.1" cy="34.56" rx="2.74" ry="2.61"/><ellipse class="cls-216" cx="12.92" cy="34.52" rx="2.74" ry="2.61"/><ellipse class="cls-217" cx="12.75" cy="34.48" rx="2.74" ry="2.61"/><ellipse class="cls-218" cx="12.57" cy="34.43" rx="2.74" ry="2.61"/><ellipse class="cls-219" cx="12.4" cy="34.39" rx="2.74" ry="2.61"/><ellipse class="cls-220" cx="12.22" cy="34.34" rx="2.74" ry="2.61"/><ellipse class="cls-221" cx="12.05" cy="34.29" rx="2.74" ry="2.61"/><ellipse class="cls-222" cx="11.88" cy="34.23" rx="2.74" ry="2.61"/><ellipse class="cls-223" cx="11.71" cy="34.18" rx="2.74" ry="2.61"/><ellipse class="cls-224" cx="11.54" cy="34.12" rx="2.74" ry="2.61"/><ellipse class="cls-225" cx="11.37" cy="34.07" rx="2.74" ry="2.61"/><ellipse class="cls-226" cx="11.2" cy="34.01" rx="2.74" ry="2.61"/><ellipse class="cls-227" cx="11.04" cy="33.95" rx="2.74" ry="2.61"/><ellipse class="cls-228" cx="10.87" cy="33.89" rx="2.74" ry="2.61"/><ellipse class="cls-229" cx="10.7" cy="33.82" rx="2.74" ry="2.61"/><ellipse class="cls-230" cx="10.54" cy="33.76" rx="2.74" ry="2.61"/><ellipse class="cls-231" cx="10.37" cy="33.69" rx="2.74" ry="2.61"/><ellipse class="cls-232" cx="10.21" cy="33.62" rx="2.74" ry="2.61"/><ellipse class="cls-233" cx="10.05" cy="33.55" rx="2.74" ry="2.61"/><ellipse class="cls-234" cx="9.89" cy="33.48" rx="2.74" ry="2.61"/><ellipse class="cls-235" cx="9.73" cy="33.41" rx="2.74" ry="2.61"/><ellipse class="cls-236" cx="9.57" cy="33.33" rx="2.74" ry="2.61"/><ellipse class="cls-237" cx="9.41" cy="33.25" rx="2.74" ry="2.61"/><ellipse class="cls-238" cx="9.25" cy="33.18" rx="2.74" ry="2.61"/><ellipse class="cls-239" cx="9.1" cy="33.1" rx="2.74" ry="2.61"/><ellipse class="cls-240" cx="8.94" cy="33.02" rx="2.74" ry="2.61"/><ellipse class="cls-240" cx="8.79" cy="32.93" rx="2.74" ry="2.61"/><ellipse class="cls-241" cx="8.63" cy="32.85" rx="2.74" ry="2.61"/><ellipse class="cls-242" cx="8.48" cy="32.76" rx="2.74" ry="2.61"/><ellipse class="cls-243" cx="8.33" cy="32.68" rx="2.74" ry="2.61"/><ellipse class="cls-244" cx="8.18" cy="32.59" rx="2.74" ry="2.61"/><ellipse class="cls-245" cx="8.03" cy="32.5" rx="2.74" ry="2.61"/><ellipse class="cls-246" cx="7.88" cy="32.41" rx="2.74" ry="2.61"/><ellipse class="cls-247" cx="7.73" cy="32.32" rx="2.74" ry="2.61"/><ellipse class="cls-248" cx="7.59" cy="32.22" rx="2.74" ry="2.61"/><ellipse class="cls-249" cx="7.44" cy="32.13" rx="2.74" ry="2.61"/><ellipse class="cls-250" cx="7.3" cy="32.03" rx="2.74" ry="2.61"/><ellipse class="cls-251" cx="7.15" cy="31.93" rx="2.74" ry="2.61"/><ellipse class="cls-252" cx="7.01" cy="31.83" rx="2.74" ry="2.61"/><ellipse class="cls-253" cx="6.87" cy="31.73" rx="2.74" ry="2.61"/><ellipse class="cls-254" cx="6.73" cy="31.63" rx="2.74" ry="2.61"/><ellipse class="cls-255" cx="6.59" cy="31.52" rx="2.74" ry="2.61"/><ellipse class="cls-256" cx="6.46" cy="31.42" rx="2.74" ry="2.61"/><ellipse class="cls-257" cx="6.32" cy="31.31" rx="2.74" ry="2.61"/><ellipse class="cls-258" cx="6.18" cy="31.21" rx="2.74" ry="2.61"/><ellipse class="cls-259" cx="6.05" cy="31.1" rx="2.74" ry="2.61"/><ellipse class="cls-260" cx="5.92" cy="30.99" rx="2.74" ry="2.61"/><ellipse class="cls-261" cx="5.79" cy="30.87" rx="2.74" ry="2.61"/><ellipse class="cls-262" cx="5.66" cy="30.76" rx="2.74" ry="2.61"/><ellipse class="cls-263" cx="5.53" cy="30.65" rx="2.74" ry="2.61"/><ellipse class="cls-264" cx="5.4" cy="30.53" rx="2.74" ry="2.61"/><ellipse class="cls-265" cx="5.27" cy="30.42" rx="2.74" ry="2.61"/><ellipse class="cls-266" cx="5.15" cy="30.3" rx="2.74" ry="2.61"/><ellipse class="cls-267" cx="5.02" cy="30.18" rx="2.74" ry="2.61"/><ellipse class="cls-268" cx="4.9" cy="30.06" rx="2.74" ry="2.61"/><ellipse class="cls-269" cx="4.78" cy="29.94" rx="2.74" ry="2.61"/><ellipse class="cls-270" cx="4.66" cy="29.81" rx="2.74" ry="2.61"/><ellipse class="cls-271" cx="4.54" cy="29.69" rx="2.74" ry="2.61"/><ellipse class="cls-272" cx="4.42" cy="29.57" rx="2.74" ry="2.61"/><ellipse class="cls-273" cx="4.31" cy="29.44" rx="2.74" ry="2.61"/><ellipse class="cls-274" cx="4.19" cy="29.31" rx="2.74" ry="2.61"/><ellipse class="cls-275" cx="4.08" cy="29.18" rx="2.74" ry="2.61"/><ellipse class="cls-276" cx="3.97" cy="29.05" rx="2.74" ry="2.61"/><ellipse class="cls-277" cx="3.86" cy="28.92" rx="2.74" ry="2.61"/><ellipse class="cls-278" cx="3.75" cy="28.79" rx="2.74" ry="2.61"/><ellipse class="cls-279" cx="3.64" cy="28.66" rx="2.74" ry="2.61"/><ellipse class="cls-280" cx="3.53" cy="28.53" rx="2.74" ry="2.61"/><ellipse class="cls-281" cx="3.43" cy="28.39" rx="2.74" ry="2.61"/><ellipse class="cls-282" cx="3.33" cy="28.25" rx="2.74" ry="2.61"/><ellipse class="cls-283" cx="3.22" cy="28.12" rx="2.74" ry="2.61"/><ellipse class="cls-284" cx="3.12" cy="27.98" rx="2.74" ry="2.61"/><ellipse class="cls-285" cx="3.03" cy="27.84" rx="2.74" ry="2.61"/><ellipse class="cls-286" cx="2.93" cy="27.7" rx="2.74" ry="2.61"/><ellipse class="cls-287" cx="2.83" cy="27.56" rx="2.74" ry="2.61"/><ellipse class="cls-288" cx="2.74" cy="27.42" rx="2.74" ry="2.61"/></g></g></svg>