<svg xmlns="http://www.w3.org/2000/svg" viewBox="0 0 39.6 38.98"><defs><style>.cls-1{fill:#fff;}.cls-2{fill:#fefffe;}.cls-3{fill:#fdfffe;}.cls-4{fill:#fcfffd;}.cls-5{fill:#fbfffc;}.cls-6{fill:#fafffc;}.cls-7{fill:#f9fffb;}.cls-8{fill:#f8fffb;}.cls-9{fill:#f7fffa;}.cls-10{fill:#f6fff9;}.cls-11{fill:#f5fff9;}.cls-12{fill:#f4fff8;}.cls-13{fill:#f3fff7;}.cls-14{fill:#f2fef7;}.cls-15{fill:#f1fef6;}.cls-16{fill:#f0fef5;}.cls-17{fill:#effef5;}.cls-18{fill:#eefef4;}.cls-19{fill:#edfef4;}.cls-20{fill:#ecfef3;}.cls-21{fill:#ebfef2;}.cls-22{fill:#eafef2;}.cls-23{fill:#e9fef1;}.cls-24{fill:#e8fef0;}.cls-25{fill:#e7fef0;}.cls-26{fill:#e6feef;}.cls-27{fill:#e5feee;}.cls-28{fill:#e4feee;}.cls-29{fill:#e3feed;}.cls-30{fill:#e2feed;}.cls-31{fill:#e1feec;}.cls-32{fill:#e0feeb;}.cls-33{fill:#dffeeb;}.cls-34{fill:#defeea;}.cls-35{fill:#ddfee9;}.cls-36{fill:#dcfee9;}.cls-37{fill:#dbfee8;}.cls-38{fill:#dafee7;}.cls-39{fill:#d9fde7;}.cls-40{fill:#d8fde6;}.cls-41{fill:#d7fde6;}.cls-42{fill:#d6fde5;}.cls-43{fill:#d5fde4;}.cls-44{fill:#d4fde4;}.cls-45{fill:#d3fde3;}.cls-46{fill:#d2fde2;}.cls-47{fill:#d1fde2;}.cls-48{fill:#d0fde1;}.cls-49{fill:#cffde0;}.cls-50{fill:#cefde0;}.cls-51{fill:#cdfddf;}.cls-52{fill:#ccfddf;}.cls-53{fill:#cbfdde;}.cls-54{fill:#cafddd;}.cls-55{fill:#c9fddd;}.cls-56{fill:#c8fddc;}.cls-57{fill:#c7fddb;}.cls-58{fill:#c6fddb;}.cls-59{fill:#c5fdda;}.cls-60{fill:#c4fdd9;}.cls-61{fill:#c3fdd9;}.cls-62{fill:#c2fdd8;}.cls-63{fill:#c1fcd7;}.cls-64{fill:#c0fcd6;}.cls-65{fill:#bffcd6;}.cls-66{fill:#befcd5;}.cls-67{fill:#bdfcd4;}.cls-68{fill:#bcfcd4;}.cls-69{fill:#bbfcd3;}.cls-70{fill:#bafcd2;}.cls-71{fill:#b9fcd2;}.cls-72{fill:#b8fcd1;}.cls-73{fill:#b7fcd0;}.cls-74{fill:#b6fcd0;}.cls-75{fill:#b5fccf;}.cls-76{fill:#b4fccf;}.cls-77{fill:#b3fcce;}.cls-78{fill:#b2fccd;}.cls-79{fill:#b1fccd;}.cls-80{fill:#b0fccc;}.cls-81{fill:#affccb;}.cls-82{fill:#aefccb;}.cls-83{fill:#adfcca;}.cls-84{fill:#acfcc9;}.cls-85{fill:#abfcc9;}.cls-86{fill:#aafcc8;}.cls-87{fill:#a9fbc8;}.cls-88{fill:#a8fbc7;}.cls-89{fill:#a7fbc6;}.cls-90{fill:#a6fbc6;}.cls-91{fill:#a5fbc5;}.cls-92{fill:#a4fbc4;}.cls-93{fill:#a3fbc4;}.cls-94{fill:#a2fbc3;}.cls-95{fill:#a1fbc2;}.cls-96{fill:#a0fbc2;}.cls-97{fill:#9ffbc1;}.cls-98{fill:#9efbc1;}.cls-99{fill:#9dfbc0;}.cls-100{fill:#9cfbbf;}.cls-101{fill:#9bfbbf;}.cls-102{fill:#9afbbe;}.cls-103{fill:#99fbbd;}.cls-104{fill:#98fbbd;}.cls-105{fill:#97fbbc;}.cls-106{fill:#96fbbb;}.cls-107{fill:#95fbbb;}.cls-108{fill:#94fbba;}.cls-109{fill:#93fbba;}.cls-110{fill:#92fbb9;}.cls-111{fill:#91fbb8;}.cls-112{fill:#90fab8;}.cls-113{fill:#8ffab7;}.cls-114{fill:#8efab6;}.cls-115{fill:#8dfab6;}.cls-116{fill:#8cfab5;}.cls-117{fill:#8bfab4;}.cls-118{fill:#8afab4;}.cls-119{fill:#89fab3;}.cls-120{fill:#88fab3;}.cls-121{fill:#87fab2;}.cls-122{fill:#86fab1;}.cls-123{fill:#85fab1;}.cls-124{fill:#84fab0;}.cls-125{fill:#84f9b1;}.cls-126{fill:#84f9b2;}.cls-127{fill:#84f8b3;}.cls-128{fill:#85f8b4;}.cls-129{fill:#85f7b5;}.cls-130{fill:#85f7b6;}.cls-131{fill:#85f6b7;}.cls-132{fill:#85f5b8;}.cls-133{fill:#85f5b9;}.cls-134{fill:#86f4ba;}.cls-135{fill:#86f4bb;}.cls-136{fill:#86f3bc;}.cls-137{fill:#86f3bd;}.cls-138{fill:#86f2be;}.cls-139{fill:#86f2bf;}.cls-140{fill:#87f1c0;}.cls-141{fill:#87f0c1;}.cls-142{fill:#87f0c2;}.cls-143{fill:#87efc3;}.cls-144{fill:#87efc4;}.cls-145{fill:#87eec5;}.cls-146{fill:#88eec6;}.cls-147{fill:#88edc7;}.cls-148{fill:#88ecc8;}.cls-149{fill:#88ecc9;}.cls-150{fill:#88ebca;}.cls-151{fill:#88ebcb;}.cls-152{fill:#88eacc;}.cls-153{fill:#89eacd;}.cls-154{fill:#89e9ce;}.cls-155{fill:#89e8cf;}.cls-156{fill:#89e8d0;}.cls-157{fill:#89e7d1;}.cls-158{fill:#89e7d2;}.cls-159{fill:#8ae6d2;}.cls-160{fill:#8ae6d3;}.cls-161{fill:#8ae5d4;}.cls-162{fill:#8ae5d5;}.cls-163{fill:#8ae4d6;}.cls-164{fill:#8ae3d7;}.cls-165{fill:#8be3d8;}.cls-166{fill:#8be2d9;}.cls-167{fill:#8be2da;}.cls-168{fill:#8be1db;}.cls-169{fill:#8be1dc;}.cls-170{fill:#8be0dd;}.cls-171{fill:#8bdfde;}.cls-172{fill:#8cdfdf;}.cls-173{fill:#8cdee0;}.cls-174{fill:#8cdee1;}.cls-175{fill:#8cdde2;}.cls-176{fill:#8cdde3;}.cls-177{fill:#8cdce4;}.cls-178{fill:#8ddbe5;}.cls-179{fill:#8ddbe6;}.cls-180{fill:#8ddae7;}.cls-181{fill:#8ddae8;}.cls-182{fill:#8dd9e9;}.cls-183{fill:#8dd9ea;}.cls-184{fill:#8ed8eb;}.cls-185{fill:#8ed8ec;}.cls-186{fill:#8ed7ed;}.cls-187{fill:#8ed6ee;}.cls-188{fill:#8ed6ef;}.cls-189{fill:#8ed5f0;}.cls-190{fill:#8fd5f1;}.cls-191{fill:#8fd4f2;}.cls-192{fill:#8fd4f3;}.cls-193{fill:#8fd3f4;}.cls-194{fill:#8ed3f4;}.cls-195{fill:#8dd3f3;}.cls-196{fill:#8cd3f3;}.cls-197{fill:#8bd3f2;}.cls-198{fill:#8ad3f2;}.cls-199{fill:#89d3f2;}.cls-200{fill:#88d3f1;}.cls-201{fill:#87d3f1;}.cls-202{fill:#86d3f1;}.cls-203{fill:#85d3f0;}.cls-204{fill:#84d3f0;}.cls-205{fill:#83d2ef;}.cls-206{fill:#82d2ef;}.cls-207{fill:#81d2ef;}.cls-208{fill:#80d2ee;}.cls-209{fill:#7fd2ee;}.cls-210{fill:#7ed2ee;}.cls-211{fill:#7dd2ed;}.cls-212{fill:#7cd2ed;}.cls-213{fill:#7bd2ec;}.cls-214{fill:#7ad2ec;}.cls-215{fill:#79d2ec;}.cls-216{fill:#78d2eb;}.cls-217{fill:#77d2eb;}.cls-218{fill:#76d2eb;}.cls-219{fill:#75d2ea;}.cls-220{fill:#74d2ea;}.cls-221{fill:#73d2e9;}.cls-222{fill:#72d2e9;}.cls-223{fill:#71d2e9;}.cls-224{fill:#70d2e8;}.cls-225{fill:#6fd2e8;}.cls-226{fill:#6ed2e8;}.cls-227{fill:#6dd2e7;}.cls-228{fill:#6cd2e7;}.cls-229{fill:#6bd1e6;}.cls-230{fill:#6ad1e6;}.cls-231{fill:#69d1e6;}.cls-232{fill:#68d1e5;}.cls-233{fill:#67d1e5;}.cls-234{fill:#66d1e5;}.cls-235{fill:#65d1e4;}.cls-236{fill:#64d1e4;}.cls-237{fill:#63d1e3;}.cls-238{fill:#62d1e3;}.cls-239{fill:#61d1e3;}.cls-240{fill:#60d1e2;}.cls-241{fill:#5fd1e2;}.cls-242{fill:#5ed1e1;}.cls-243{fill:#5dd1e1;}.cls-244{fill:#5cd1e1;}.cls-245{fill:#5bd1e0;}.cls-246{fill:#5ad1e0;}.cls-247{fill:#59d1df;}.cls-248{fill:#58d1df;}.cls-249{fill:#57d1df;}.cls-250{fill:#56d1de;}.cls-251{fill:#55d1de;}.cls-252{fill:#54d1de;}.cls-253{fill:#53d0dd;}.cls-254{fill:#52d0dd;}.cls-255{fill:#51d0dc;}.cls-256{fill:#50d0dc;}.cls-257{fill:#4fd0dc;}.cls-258{fill:#4ed0db;}.cls-259{fill:#4dd0db;}.cls-260{fill:#4cd0db;}.cls-261{fill:#4bd0da;}.cls-262{fill:#4ad0da;}.cls-263{fill:#49d0d9;}.cls-264{fill:#48d0d9;}.cls-265{fill:#47d0d9;}.cls-266{fill:#46d0d8;}.cls-267{fill:#45d0d8;}.cls-268{fill:#44d0d8;}.cls-269{fill:#43d0d7;}.cls-270{fill:#42d0d7;}.cls-271{fill:#41d0d6;}.cls-272{fill:#40d0d6;}.cls-273{fill:#3fd0d6;}.cls-274{fill:#3ed0d5;}.cls-275{fill:#3dd0d5;}.cls-276{fill:#3cd0d5;}.cls-277{fill:#3bcfd4;}.cls-278{fill:#3acfd4;}.cls-279{fill:#39cfd3;}.cls-280{fill:#38cfd3;}.cls-281{fill:#37cfd3;}.cls-282{fill:#36cfd2;}.cls-283{fill:#35cfd2;}.cls-284{fill:#34cfd2;}.cls-285{fill:#33cfd1;}.cls-286{fill:#32cfd1;}.cls-287{fill:#31cfd0;}.cls-288{fill:#30cfd0;}</style></defs><title>time2_2</title><g id="圖層_2" data-name="圖層 2"><g id="圖層_1-2" data-name="圖層 1"><ellipse class="cls-1" cx="19.79" cy="2.71" rx="2.75" ry="2.71"/><ellipse class="cls-2" cx="19.89" cy="2.75" rx="2.75" ry="2.71"/><ellipse class="cls-3" cx="20.02" cy="2.71" rx="2.75" ry="2.71"/><ellipse class="cls-4" cx="20.14" cy="2.71" rx="2.75" ry="2.71"/><ellipse class="cls-5" cx="20.26" cy="2.71" rx="2.75" ry="2.71"/><ellipse class="cls-6" cx="20.38" cy="2.71" rx="2.75" ry="2.71"/><ellipse class="cls-7" cx="20.5" cy="2.72" rx="2.75" ry="2.71"/><ellipse class="cls-8" cx="20.62" cy="2.72" rx="2.75" ry="2.71"/><ellipse class="cls-9" cx="20.73" cy="2.73" rx="2.75" ry="2.71"/><ellipse class="cls-10" cx="20.85" cy="2.74" rx="2.75" ry="2.71"/><ellipse class="cls-11" cx="20.97" cy="2.74" rx="2.75" ry="2.71"/><ellipse class="cls-12" cx="21.09" cy="2.75" rx="2.75" ry="2.71"/><ellipse class="cls-13" cx="21.2" cy="2.76" rx="2.75" ry="2.71"/><ellipse class="cls-14" cx="21.32" cy="2.77" rx="2.75" ry="2.71"/><ellipse class="cls-15" cx="21.44" cy="2.78" rx="2.75" ry="2.71"/><ellipse class="cls-16" cx="21.55" cy="2.79" rx="2.75" ry="2.71"/><ellipse class="cls-17" cx="21.67" cy="2.8" rx="2.75" ry="2.71"/><ellipse class="cls-18" cx="21.78" cy="2.82" rx="2.75" ry="2.71"/><ellipse class="cls-19" cx="21.9" cy="2.83" rx="2.75" ry="2.71"/><ellipse class="cls-20" cx="22.01" cy="2.85" rx="2.75" ry="2.71"/><ellipse class="cls-21" cx="22.13" cy="2.86" rx="2.75" ry="2.71"/><ellipse class="cls-22" cx="22.24" cy="2.88" rx="2.75" ry="2.71"/><ellipse class="cls-23" cx="22.36" cy="2.89" rx="2.75" ry="2.71"/><ellipse class="cls-24" cx="22.47" cy="2.91" rx="2.75" ry="2.71"/><ellipse class="cls-25" cx="22.59" cy="2.93" rx="2.75" ry="2.71"/><ellipse class="cls-26" cx="22.7" cy="2.95" rx="2.75" ry="2.71"/><ellipse class="cls-27" cx="22.81" cy="2.97" rx="2.75" ry="2.71"/><ellipse class="cls-28" cx="22.93" cy="2.99" rx="2.75" ry="2.71"/><ellipse class="cls-29" cx="23.04" cy="3.01" rx="2.75" ry="2.71"/><ellipse class="cls-30" cx="23.15" cy="3.03" rx="2.75" ry="2.71"/><ellipse class="cls-31" cx="23.27" cy="3.05" rx="2.75" ry="2.71"/><ellipse class="cls-32" cx="23.38" cy="3.08" rx="2.75" ry="2.71"/><ellipse class="cls-33" cx="23.49" cy="3.1" rx="2.75" ry="2.71"/><ellipse class="cls-34" cx="23.6" cy="3.12" rx="2.75" ry="2.71"/><ellipse class="cls-35" cx="23.71" cy="3.15" rx="2.75" ry="2.71"/><ellipse class="cls-36" cx="23.82" cy="3.18" rx="2.75" ry="2.71"/><ellipse class="cls-37" cx="23.93" cy="3.2" rx="2.75" ry="2.71"/><ellipse class="cls-38" cx="24.05" cy="3.23" rx="2.75" ry="2.71"/><ellipse class="cls-39" cx="24.16" cy="3.26" rx="2.75" ry="2.71"/><ellipse class="cls-40" cx="24.27" cy="3.29" rx="2.75" ry="2.71"/><ellipse class="cls-41" cx="24.38" cy="3.32" rx="2.75" ry="2.71"/><ellipse class="cls-42" cx="24.48" cy="3.35" rx="2.75" ry="2.71"/><ellipse class="cls-43" cx="24.59" cy="3.38" rx="2.75" ry="2.71"/><ellipse class="cls-44" cx="24.7" cy="3.41" rx="2.75" ry="2.71"/><ellipse class="cls-45" cx="24.81" cy="3.44" rx="2.75" ry="2.71"/><ellipse class="cls-46" cx="24.92" cy="3.47" rx="2.75" ry="2.71"/><ellipse class="cls-47" cx="25.03" cy="3.51" rx="2.75" ry="2.71"/><ellipse class="cls-48" cx="25.13" cy="3.54" rx="2.75" ry="2.71"/><ellipse class="cls-49" cx="25.24" cy="3.58" rx="2.75" ry="2.71"/><ellipse class="cls-50" cx="25.35" cy="3.61" rx="2.75" ry="2.71"/><ellipse class="cls-51" cx="25.46" cy="3.65" rx="2.75" ry="2.71"/><ellipse class="cls-52" cx="25.56" cy="3.69" rx="2.75" ry="2.71"/><ellipse class="cls-53" cx="25.67" cy="3.73" rx="2.75" ry="2.71"/><ellipse class="cls-54" cx="25.77" cy="3.76" rx="2.75" ry="2.71"/><ellipse class="cls-55" cx="25.88" cy="3.8" rx="2.75" ry="2.71"/><ellipse class="cls-56" cx="25.98" cy="3.84" rx="2.75" ry="2.71"/><ellipse class="cls-57" cx="26.09" cy="3.88" rx="2.75" ry="2.71"/><ellipse class="cls-58" cx="26.19" cy="3.92" rx="2.75" ry="2.71"/><ellipse class="cls-59" cx="26.3" cy="3.97" rx="2.75" ry="2.71"/><ellipse class="cls-60" cx="26.4" cy="4.01" rx="2.75" ry="2.71"/><ellipse class="cls-61" cx="26.5" cy="4.05" rx="2.75" ry="2.71"/><ellipse class="cls-62" cx="26.61" cy="4.1" rx="2.75" ry="2.71"/><ellipse class="cls-62" cx="26.71" cy="4.14" rx="2.75" ry="2.71"/><ellipse class="cls-63" cx="26.81" cy="4.19" rx="2.75" ry="2.71"/><ellipse class="cls-64" cx="26.91" cy="4.23" rx="2.75" ry="2.71"/><ellipse class="cls-65" cx="27.01" cy="4.28" rx="2.75" ry="2.71"/><ellipse class="cls-66" cx="27.12" cy="4.32" rx="2.75" ry="2.71"/><ellipse class="cls-67" cx="27.22" cy="4.37" rx="2.75" ry="2.71"/><ellipse class="cls-68" cx="27.32" cy="4.42" rx="2.75" ry="2.71"/><ellipse class="cls-69" cx="27.42" cy="4.47" rx="2.75" ry="2.71"/><ellipse class="cls-70" cx="27.52" cy="4.52" rx="2.75" ry="2.71"/><ellipse class="cls-71" cx="27.62" cy="4.57" rx="2.75" ry="2.71"/><ellipse class="cls-72" cx="27.71" cy="4.62" rx="2.75" ry="2.71"/><ellipse class="cls-73" cx="27.81" cy="4.67" rx="2.75" ry="2.71"/><ellipse class="cls-74" cx="27.91" cy="4.72" rx="2.75" ry="2.71"/><ellipse class="cls-75" cx="28.01" cy="4.77" rx="2.75" ry="2.71"/><ellipse class="cls-76" cx="28.11" cy="4.83" rx="2.75" ry="2.71"/><ellipse class="cls-77" cx="28.2" cy="4.88" rx="2.75" ry="2.71"/><ellipse class="cls-78" cx="28.3" cy="4.94" rx="2.75" ry="2.71"/><ellipse class="cls-79" cx="28.4" cy="4.99" rx="2.75" ry="2.71"/><ellipse class="cls-80" cx="28.49" cy="5.05" rx="2.75" ry="2.71"/><ellipse class="cls-81" cx="28.59" cy="5.1" rx="2.75" ry="2.71"/><ellipse class="cls-82" cx="28.68" cy="5.16" rx="2.75" ry="2.71"/><ellipse class="cls-83" cx="28.78" cy="5.22" rx="2.75" ry="2.71"/><ellipse class="cls-84" cx="28.87" cy="5.27" rx="2.75" ry="2.71"/><ellipse class="cls-85" cx="28.96" cy="5.33" rx="2.75" ry="2.71"/><ellipse class="cls-86" cx="29.06" cy="5.39" rx="2.75" ry="2.71"/><ellipse class="cls-87" cx="29.15" cy="5.45" rx="2.75" ry="2.71"/><ellipse class="cls-88" cx="29.24" cy="5.51" rx="2.75" ry="2.71"/><ellipse class="cls-89" cx="29.33" cy="5.57" rx="2.75" ry="2.71"/><ellipse class="cls-90" cx="29.43" cy="5.63" rx="2.75" ry="2.71"/><ellipse class="cls-91" cx="29.52" cy="5.7" rx="2.75" ry="2.71"/><ellipse class="cls-92" cx="29.61" cy="5.76" rx="2.75" ry="2.71"/><ellipse class="cls-93" cx="29.7" cy="5.82" rx="2.75" ry="2.71"/><ellipse class="cls-94" cx="29.79" cy="5.89" rx="2.75" ry="2.71"/><ellipse class="cls-95" cx="29.88" cy="5.95" rx="2.75" ry="2.71"/><ellipse class="cls-96" cx="29.97" cy="6.01" rx="2.75" ry="2.71"/><ellipse class="cls-97" cx="30.06" cy="6.08" rx="2.75" ry="2.71"/><ellipse class="cls-98" cx="30.14" cy="6.15" rx="2.75" ry="2.71"/><ellipse class="cls-99" cx="30.23" cy="6.21" rx="2.75" ry="2.71"/><ellipse class="cls-100" cx="30.32" cy="6.28" rx="2.75" ry="2.71"/><ellipse class="cls-101" cx="30.41" cy="6.35" rx="2.75" ry="2.71"/><ellipse class="cls-102" cx="30.49" cy="6.41" rx="2.75" ry="2.71"/><ellipse class="cls-103" cx="30.58" cy="6.48" rx="2.75" ry="2.71"/><ellipse class="cls-104" cx="30.66" cy="6.55" rx="2.75" ry="2.71"/><ellipse class="cls-105" cx="30.75" cy="6.62" rx="2.75" ry="2.71"/><ellipse class="cls-106" cx="30.83" cy="6.69" rx="2.75" ry="2.71"/><ellipse class="cls-107" cx="30.92" cy="6.76" rx="2.75" ry="2.71"/><ellipse class="cls-108" cx="31" cy="6.83" rx="2.75" ry="2.71"/><ellipse class="cls-109" cx="31.08" cy="6.91" rx="2.75" ry="2.71"/><ellipse class="cls-110" cx="31.17" cy="6.98" rx="2.75" ry="2.71"/><ellipse class="cls-111" cx="31.25" cy="7.05" rx="2.75" ry="2.71"/><ellipse class="cls-112" cx="31.33" cy="7.12" rx="2.75" ry="2.71"/><ellipse class="cls-113" cx="31.41" cy="7.2" rx="2.75" ry="2.71"/><ellipse class="cls-114" cx="31.49" cy="7.27" rx="2.75" ry="2.71"/><ellipse class="cls-115" cx="31.57" cy="7.35" rx="2.75" ry="2.71"/><ellipse class="cls-116" cx="31.65" cy="7.42" rx="2.75" ry="2.71"/><ellipse class="cls-117" cx="31.73" cy="7.5" rx="2.75" ry="2.71"/><ellipse class="cls-118" cx="31.81" cy="7.58" rx="2.75" ry="2.71"/><ellipse class="cls-119" cx="31.89" cy="7.65" rx="2.75" ry="2.71"/><ellipse class="cls-120" cx="31.97" cy="7.73" rx="2.75" ry="2.71"/><ellipse class="cls-121" cx="32.04" cy="7.81" rx="2.75" ry="2.71"/><ellipse class="cls-122" cx="32.12" cy="7.89" rx="2.75" ry="2.71"/><ellipse class="cls-123" cx="32.2" cy="7.96" rx="2.75" ry="2.71"/><ellipse class="cls-124" cx="32.23" cy="8.01" rx="2.75" ry="2.71"/><ellipse class="cls-125" cx="32.56" cy="8.36" rx="2.75" ry="2.71"/><ellipse class="cls-126" cx="32.85" cy="8.69" rx="2.75" ry="2.71"/><ellipse class="cls-127" cx="33.13" cy="9.02" rx="2.75" ry="2.71"/><ellipse class="cls-128" cx="33.4" cy="9.36" rx="2.75" ry="2.71"/><ellipse class="cls-129" cx="33.66" cy="9.71" rx="2.75" ry="2.71"/><ellipse class="cls-130" cx="33.91" cy="10.06" rx="2.75" ry="2.71"/><ellipse class="cls-131" cx="34.15" cy="10.42" rx="2.75" ry="2.71"/><ellipse class="cls-132" cx="34.38" cy="10.79" rx="2.75" ry="2.71"/><ellipse class="cls-133" cx="34.6" cy="11.16" rx="2.75" ry="2.71"/><ellipse class="cls-134" cx="34.82" cy="11.54" rx="2.75" ry="2.71"/><ellipse class="cls-135" cx="35.02" cy="11.92" rx="2.75" ry="2.71"/><ellipse class="cls-136" cx="35.22" cy="12.31" rx="2.75" ry="2.71"/><ellipse class="cls-137" cx="35.4" cy="12.71" rx="2.75" ry="2.71"/><ellipse class="cls-138" cx="35.57" cy="13.11" rx="2.75" ry="2.71"/><ellipse class="cls-139" cx="35.74" cy="13.51" rx="2.75" ry="2.71"/><ellipse class="cls-140" cx="35.89" cy="13.93" rx="2.75" ry="2.71"/><ellipse class="cls-141" cx="36.03" cy="14.34" rx="2.75" ry="2.71"/><ellipse class="cls-142" cx="36.17" cy="14.76" rx="2.75" ry="2.71"/><ellipse class="cls-143" cx="36.29" cy="15.19" rx="2.75" ry="2.71"/><ellipse class="cls-144" cx="36.4" cy="15.62" rx="2.75" ry="2.71"/><ellipse class="cls-145" cx="36.49" cy="16.06" rx="2.75" ry="2.71"/><ellipse class="cls-146" cx="36.58" cy="16.49" rx="2.75" ry="2.71"/><ellipse class="cls-147" cx="36.65" cy="16.94" rx="2.75" ry="2.71"/><ellipse class="cls-148" cx="36.72" cy="17.38" rx="2.75" ry="2.71"/><ellipse class="cls-149" cx="36.77" cy="17.83" rx="2.75" ry="2.71"/><ellipse class="cls-150" cx="36.81" cy="18.29" rx="2.75" ry="2.71"/><ellipse class="cls-151" cx="36.83" cy="18.75" rx="2.75" ry="2.71"/><ellipse class="cls-152" cx="36.85" cy="19.21" rx="2.75" ry="2.71"/><ellipse class="cls-153" cx="36.85" cy="19.67" rx="2.75" ry="2.71"/><ellipse class="cls-154" cx="36.84" cy="20.13" rx="2.75" ry="2.71"/><ellipse class="cls-155" cx="36.81" cy="20.59" rx="2.75" ry="2.71"/><ellipse class="cls-156" cx="36.78" cy="21.04" rx="2.75" ry="2.71"/><ellipse class="cls-157" cx="36.73" cy="21.49" rx="2.75" ry="2.71"/><ellipse class="cls-158" cx="36.67" cy="21.94" rx="2.75" ry="2.71"/><ellipse class="cls-159" cx="36.6" cy="22.39" rx="2.75" ry="2.71"/><ellipse class="cls-160" cx="36.51" cy="22.83" rx="2.75" ry="2.71"/><ellipse class="cls-161" cx="36.42" cy="23.26" rx="2.75" ry="2.71"/><ellipse class="cls-162" cx="36.31" cy="23.69" rx="2.75" ry="2.71"/><ellipse class="cls-163" cx="36.19" cy="24.12" rx="2.75" ry="2.71"/><ellipse class="cls-164" cx="36.06" cy="24.54" rx="2.75" ry="2.71"/><ellipse class="cls-165" cx="35.92" cy="24.96" rx="2.75" ry="2.71"/><ellipse class="cls-166" cx="35.77" cy="25.37" rx="2.75" ry="2.71"/><ellipse class="cls-167" cx="35.61" cy="25.78" rx="2.75" ry="2.71"/><ellipse class="cls-168" cx="35.44" cy="26.18" rx="2.75" ry="2.71"/><ellipse class="cls-169" cx="35.26" cy="26.58" rx="2.75" ry="2.71"/><ellipse class="cls-170" cx="35.07" cy="26.97" rx="2.75" ry="2.71"/><ellipse class="cls-171" cx="34.86" cy="27.36" rx="2.75" ry="2.71"/><ellipse class="cls-172" cx="34.65" cy="27.74" rx="2.75" ry="2.71"/><ellipse class="cls-173" cx="34.43" cy="28.11" rx="2.75" ry="2.71"/><ellipse class="cls-174" cx="34.2" cy="28.48" rx="2.75" ry="2.71"/><ellipse class="cls-175" cx="33.96" cy="28.84" rx="2.75" ry="2.71"/><ellipse class="cls-176" cx="33.71" cy="29.19" rx="2.75" ry="2.71"/><ellipse class="cls-177" cx="33.45" cy="29.54" rx="2.75" ry="2.71"/><ellipse class="cls-178" cx="33.19" cy="29.88" rx="2.75" ry="2.71"/><ellipse class="cls-179" cx="32.91" cy="30.22" rx="2.75" ry="2.71"/><ellipse class="cls-180" cx="32.63" cy="30.54" rx="2.75" ry="2.71"/><ellipse class="cls-181" cx="32.34" cy="30.86" rx="2.75" ry="2.71"/><ellipse class="cls-182" cx="32.04" cy="31.18" rx="2.75" ry="2.71"/><ellipse class="cls-183" cx="31.73" cy="31.48" rx="2.75" ry="2.71"/><ellipse class="cls-184" cx="31.41" cy="31.78" rx="2.75" ry="2.71"/><ellipse class="cls-185" cx="31.09" cy="32.07" rx="2.75" ry="2.71"/><ellipse class="cls-186" cx="30.76" cy="32.35" rx="2.75" ry="2.71"/><ellipse class="cls-187" cx="30.42" cy="32.62" rx="2.75" ry="2.71"/><ellipse class="cls-188" cx="30.07" cy="32.88" rx="2.75" ry="2.71"/><ellipse class="cls-189" cx="29.72" cy="33.14" rx="2.75" ry="2.71"/><ellipse class="cls-190" cx="29.36" cy="33.39" rx="2.75" ry="2.71"/><ellipse class="cls-191" cx="29" cy="33.62" rx="2.75" ry="2.71"/><ellipse class="cls-192" cx="28.63" cy="33.85" rx="2.75" ry="2.71"/><ellipse class="cls-193" cx="28.11" cy="34.15" rx="2.75" ry="2.71"/><ellipse class="cls-194" cx="27.93" cy="34.25" rx="2.75" ry="2.71"/><ellipse class="cls-195" cx="27.61" cy="34.41" rx="2.75" ry="2.71"/><ellipse class="cls-196" cx="27.28" cy="34.58" rx="2.75" ry="2.71"/><ellipse class="cls-197" cx="26.95" cy="34.73" rx="2.75" ry="2.71"/><ellipse class="cls-198" cx="26.61" cy="34.88" rx="2.75" ry="2.71"/><ellipse class="cls-199" cx="26.28" cy="35.02" rx="2.75" ry="2.71"/><ellipse class="cls-200" cx="25.93" cy="35.15" rx="2.75" ry="2.71"/><ellipse class="cls-201" cx="25.59" cy="35.28" rx="2.75" ry="2.71"/><ellipse class="cls-202" cx="25.24" cy="35.4" rx="2.75" ry="2.71"/><ellipse class="cls-203" cx="24.89" cy="35.51" rx="2.75" ry="2.71"/><ellipse class="cls-204" cx="24.53" cy="35.62" rx="2.75" ry="2.71"/><ellipse class="cls-205" cx="24.17" cy="35.71" rx="2.75" ry="2.71"/><ellipse class="cls-206" cx="23.81" cy="35.8" rx="2.75" ry="2.71"/><ellipse class="cls-207" cx="23.45" cy="35.89" rx="2.75" ry="2.71"/><ellipse class="cls-208" cx="23.08" cy="35.96" rx="2.75" ry="2.71"/><ellipse class="cls-209" cx="22.71" cy="36.03" rx="2.75" ry="2.71"/><ellipse class="cls-210" cx="22.34" cy="36.09" rx="2.75" ry="2.71"/><ellipse class="cls-211" cx="21.96" cy="36.14" rx="2.75" ry="2.71"/><ellipse class="cls-212" cx="21.58" cy="36.18" rx="2.75" ry="2.71"/><ellipse class="cls-213" cx="21.2" cy="36.22" rx="2.75" ry="2.71"/><ellipse class="cls-214" cx="20.82" cy="36.24" rx="2.75" ry="2.71"/><ellipse class="cls-215" cx="20.43" cy="36.26" rx="2.75" ry="2.71"/><ellipse class="cls-216" cx="20.04" cy="36.27" rx="2.75" ry="2.71"/><ellipse class="cls-217" cx="19.65" cy="36.27" rx="2.75" ry="2.71"/><ellipse class="cls-218" cx="19.27" cy="36.26" rx="2.75" ry="2.71"/><ellipse class="cls-219" cx="18.88" cy="36.25" rx="2.75" ry="2.71"/><ellipse class="cls-220" cx="18.5" cy="36.22" rx="2.75" ry="2.71"/><ellipse class="cls-221" cx="18.11" cy="36.19" rx="2.75" ry="2.71"/><ellipse class="cls-222" cx="17.74" cy="36.15" rx="2.75" ry="2.71"/><ellipse class="cls-223" cx="17.36" cy="36.1" rx="2.75" ry="2.71"/><ellipse class="cls-224" cx="16.98" cy="36.04" rx="2.75" ry="2.71"/><ellipse class="cls-225" cx="16.61" cy="35.98" rx="2.75" ry="2.71"/><ellipse class="cls-226" cx="16.25" cy="35.91" rx="2.75" ry="2.71"/><ellipse class="cls-227" cx="15.88" cy="35.83" rx="2.75" ry="2.71"/><ellipse class="cls-228" cx="15.52" cy="35.74" rx="2.75" ry="2.71"/><ellipse class="cls-229" cx="15.16" cy="35.64" rx="2.75" ry="2.71"/><ellipse class="cls-230" cx="14.8" cy="35.54" rx="2.75" ry="2.71"/><ellipse class="cls-231" cx="14.45" cy="35.43" rx="2.75" ry="2.71"/><ellipse class="cls-232" cx="14.1" cy="35.31" rx="2.75" ry="2.71"/><ellipse class="cls-233" cx="13.75" cy="35.19" rx="2.75" ry="2.71"/><ellipse class="cls-234" cx="13.41" cy="35.05" rx="2.75" ry="2.71"/><ellipse class="cls-235" cx="13.07" cy="34.92" rx="2.75" ry="2.71"/><ellipse class="cls-236" cx="12.74" cy="34.77" rx="2.75" ry="2.71"/><ellipse class="cls-237" cx="12.4" cy="34.62" rx="2.75" ry="2.71"/><ellipse class="cls-238" cx="12.08" cy="34.46" rx="2.75" ry="2.71"/><ellipse class="cls-239" cx="11.75" cy="34.29" rx="2.75" ry="2.71"/><ellipse class="cls-240" cx="11.43" cy="34.12" rx="2.75" ry="2.71"/><ellipse class="cls-240" cx="11.12" cy="33.94" rx="2.75" ry="2.71"/><ellipse class="cls-241" cx="10.81" cy="33.75" rx="2.75" ry="2.71"/><ellipse class="cls-242" cx="10.5" cy="33.56" rx="2.75" ry="2.71"/><ellipse class="cls-243" cx="10.2" cy="33.36" rx="2.75" ry="2.71"/><ellipse class="cls-244" cx="9.9" cy="33.16" rx="2.75" ry="2.71"/><ellipse class="cls-245" cx="9.61" cy="32.95" rx="2.75" ry="2.71"/><ellipse class="cls-246" cx="9.32" cy="32.73" rx="2.75" ry="2.71"/><ellipse class="cls-247" cx="9.04" cy="32.51" rx="2.75" ry="2.71"/><ellipse class="cls-248" cx="8.76" cy="32.28" rx="2.75" ry="2.71"/><ellipse class="cls-249" cx="8.49" cy="32.05" rx="2.75" ry="2.71"/><ellipse class="cls-250" cx="8.22" cy="31.81" rx="2.75" ry="2.71"/><ellipse class="cls-251" cx="7.96" cy="31.56" rx="2.75" ry="2.71"/><ellipse class="cls-252" cx="7.7" cy="31.31" rx="2.75" ry="2.71"/><ellipse class="cls-253" cx="7.45" cy="31.06" rx="2.75" ry="2.71"/><ellipse class="cls-254" cx="7.2" cy="30.8" rx="2.75" ry="2.71"/><ellipse class="cls-255" cx="6.96" cy="30.53" rx="2.75" ry="2.71"/><ellipse class="cls-256" cx="6.72" cy="30.26" rx="2.75" ry="2.71"/><ellipse class="cls-257" cx="6.5" cy="29.99" rx="2.75" ry="2.71"/><ellipse class="cls-258" cx="6.27" cy="29.71" rx="2.75" ry="2.71"/><ellipse class="cls-259" cx="6.05" cy="29.42" rx="2.75" ry="2.71"/><ellipse class="cls-260" cx="5.84" cy="29.13" rx="2.75" ry="2.71"/><ellipse class="cls-261" cx="5.64" cy="28.84" rx="2.75" ry="2.71"/><ellipse class="cls-262" cx="5.44" cy="28.54" rx="2.75" ry="2.71"/><ellipse class="cls-263" cx="5.24" cy="28.24" rx="2.75" ry="2.71"/><ellipse class="cls-264" cx="5.06" cy="27.93" rx="2.75" ry="2.71"/><ellipse class="cls-265" cx="4.88" cy="27.62" rx="2.75" ry="2.71"/><ellipse class="cls-266" cx="4.7" cy="27.3" rx="2.75" ry="2.71"/><ellipse class="cls-267" cx="4.54" cy="26.98" rx="2.75" ry="2.71"/><ellipse class="cls-268" cx="4.38" cy="26.66" rx="2.75" ry="2.71"/><ellipse class="cls-269" cx="4.22" cy="26.33" rx="2.75" ry="2.71"/><ellipse class="cls-270" cx="4.08" cy="26" rx="2.75" ry="2.71"/><ellipse class="cls-271" cx="3.94" cy="25.66" rx="2.75" ry="2.71"/><ellipse class="cls-272" cx="3.81" cy="25.33" rx="2.75" ry="2.71"/><ellipse class="cls-273" cx="3.68" cy="24.98" rx="2.75" ry="2.71"/><ellipse class="cls-274" cx="3.57" cy="24.64" rx="2.75" ry="2.71"/><ellipse class="cls-275" cx="3.46" cy="24.29" rx="2.75" ry="2.71"/><ellipse class="cls-276" cx="3.35" cy="23.94" rx="2.75" ry="2.71"/><ellipse class="cls-277" cx="3.26" cy="23.58" rx="2.75" ry="2.71"/><ellipse class="cls-278" cx="3.17" cy="23.23" rx="2.75" ry="2.71"/><ellipse class="cls-279" cx="3.09" cy="22.87" rx="2.75" ry="2.71"/><ellipse class="cls-280" cx="3.02" cy="22.5" rx="2.75" ry="2.71"/><ellipse class="cls-281" cx="2.96" cy="22.14" rx="2.75" ry="2.71"/><ellipse class="cls-282" cx="2.9" cy="21.77" rx="2.75" ry="2.71"/><ellipse class="cls-283" cx="2.86" cy="21.39" rx="2.75" ry="2.71"/><ellipse class="cls-284" cx="2.82" cy="21.02" rx="2.75" ry="2.71"/><ellipse class="cls-285" cx="2.79" cy="20.64" rx="2.75" ry="2.71"/><ellipse class="cls-286" cx="2.77" cy="20.27" rx="2.75" ry="2.71"/><ellipse class="cls-287" cx="2.75" cy="19.88" rx="2.75" ry="2.71"/><ellipse class="cls-288" cx="2.75" cy="19.5" rx="2.75" ry="2.71"/></g></g></svg>